<svg xmlns="http://www.w3.org/2000/svg" viewBox="0 0 500 500"><g id="freepik--background-complete--inject-8"><path d="M385.64,98.21a22.5,22.5,0,1,0-16.34,0c-34.59,4.9-33,40.19-33,40.19l81.78.35S419.93,103.08,385.64,98.21Z" style="fill:#ebebeb"></path><circle cx="413.65" cy="132.88" r="24" transform="translate(276.7 545.2) rotate(-89.43)" style="fill:#e0e0e0"></circle><path d="M437.51,135.46a1.91,1.91,0,0,1,0-.39c0-.28,0-.66,0-1.14q0-.39,0-.84c0-.31,0-.65,0-1a17.56,17.56,0,0,0-.24-2.51,23.11,23.11,0,0,0-2-6.6,24,24,0,0,0-5.31-7.36,23.71,23.71,0,0,0-22-5.79,24.14,24.14,0,0,0-3.23,1,24.9,24.9,0,0,0-3.1,1.55,22.09,22.09,0,0,0-5.53,4.47,23.23,23.23,0,0,0-4.08,6.14,23.59,23.59,0,0,0-1.61,14.9,23.11,23.11,0,0,0,2.67,6.87,28,28,0,0,0,2,3,26.91,26.91,0,0,0,2.43,2.57,24.09,24.09,0,0,0,2.69,2.17,24.65,24.65,0,0,0,2.93,1.69,23.89,23.89,0,0,0,12.3,2.38,23.56,23.56,0,0,0,10.44-3.32,23.9,23.9,0,0,0,6.77-6.06,22.76,22.76,0,0,0,3.33-6,16.76,16.76,0,0,0,.77-2.4c.1-.36.2-.68.26-1s.11-.58.15-.83c.09-.47.15-.84.21-1.12a1.74,1.74,0,0,1,.08-.38,1.92,1.92,0,0,1,0,.39l-.16,1.13-.12.84c-.06.3-.15.63-.24,1a17.43,17.43,0,0,1-.73,2.44,22.49,22.49,0,0,1-3.29,6.12,24.2,24.2,0,0,1-17.4,9.65A24.4,24.4,0,0,1,403,154.62a26.5,26.5,0,0,1-3-1.71,26.18,26.18,0,0,1-2.75-2.22,26.9,26.9,0,0,1-2.49-2.62,27.94,27.94,0,0,1-2.06-3,23.66,23.66,0,0,1-2.74-7,24,24,0,0,1,1.65-15.22,23.29,23.29,0,0,1,4.18-6.27,27.68,27.68,0,0,1,2.66-2.54,29,29,0,0,1,3-2,22.76,22.76,0,0,1,6.46-2.61,24.28,24.28,0,0,1,12.76.36,24.13,24.13,0,0,1,14.94,13.14,22.81,22.81,0,0,1,1.91,6.69,17.27,17.27,0,0,1,.19,2.53c0,.37,0,.71,0,1s0,.59-.06.84q-.06.72-.09,1.14A1.69,1.69,0,0,1,437.51,135.46Z" style="fill:#fff"></path><polygon points="411.94 144.05 399.5 133.62 403.14 129.28 411.48 136.27 424.29 122.67 428.41 126.55 411.94 144.05" style="fill:#fff"></polygon><path d="M448.29,95.46a70.79,70.79,0,0,1-5.89,6.31,71,71,0,0,1-6.26,6,72.65,72.65,0,0,1,5.89-6.31A72.69,72.69,0,0,1,448.29,95.46Z" style="fill:#e0e0e0"></path><path d="M469.71,113.39a5.22,5.22,0,0,1-1,.48c-.66.29-1.63.67-2.84,1.11-2.41.9-5.78,2-9.56,3.07s-7.26,1.81-9.79,2.29c-1.26.23-2.29.41-3,.5a5.44,5.44,0,0,1-1.12.11,4.06,4.06,0,0,1,1.08-.31l3-.66c2.51-.57,5.95-1.39,9.73-2.43s7.15-2.11,9.58-2.91l2.89-1A4.77,4.77,0,0,1,469.71,113.39Z" style="fill:#e0e0e0"></path><path d="M457.5,146.52a65,65,0,0,1-7.39-3.84,66.58,66.58,0,0,1-7.14-4.3,68.9,68.9,0,0,1,7.4,3.85A66.75,66.75,0,0,1,457.5,146.52Z" style="fill:#e0e0e0"></path><path d="M421,83.11a7.74,7.74,0,1,0-5.63,0C403.48,84.79,404,96.92,404,96.92l28.12.12S432.79,84.78,421,83.11Z" style="fill:#ebebeb"></path><path d="M38.81,252.32s-9.22,1.71-3,21.49,11.1,29.9,11.1,29.9.92,4.5-2.8,4.54-11.43-2.58-13.81,1.49.1,9,6.18,13.93,19,16.07,20.14,17.08,2.07,3.18-.46,3.61-20.7-.81-20.78,7.72,19.11,19.4,21.18,20.63,2.44,2.25,2,3.42-6.47.19-11.65.05-11.22.59-10.85,5.51,10.75,16.93,39.73,24.84l13.67,2.8L99,399.18c19-23,20.46-38.66,17.88-42.9s-7.94-1.39-12.09,1.68-8.52,7.32-9.53,6.59-1.31-1.77-.34-4,10.27-22,5.21-28.9-19.18,4.44-21.49,5.53-2.83-1.22-2.48-2.68,4.33-18,6.43-25.42,1.36-12.84-3.12-14.89c-4.33-2-9.09,4.56-12.15,6.65s-4.95-2.11-4.95-2.11S60.45,287.71,53.9,268s-15.27-15.68-15.27-15.68" style="fill:#ebebeb"></path><path d="M89.61,412.64c-4.75-14.46-12.75-40.31-19.73-62.47s-13.33-42.19-18-56.68l-5.55-17.15c-.65-2-1.15-3.58-1.51-4.66l-.38-1.22c-.08-.27-.11-.42-.11-.42s.06.14.16.41l.42,1.2,1.58,4.64c1.37,4,3.32,9.88,5.69,17.11,4.75,14.46,11.14,34.5,18.12,56.65s14.94,48,19.62,62.5" style="fill:#e0e0e0"></path><path d="M40.9,313.82a4.14,4.14,0,0,1,.91.43c.58.29,1.4.75,2.4,1.32,2,1.14,4.74,2.79,7.72,4.67l7.62,4.83,2.31,1.44a4.63,4.63,0,0,1,.84.57,5.37,5.37,0,0,1-.92-.42c-.57-.3-1.39-.76-2.39-1.34-2-1.16-4.71-2.85-7.69-4.72l-7.65-4.77-2.32-1.44A4.28,4.28,0,0,1,40.9,313.82Z" style="fill:#e0e0e0"></path><path d="M63.79,326.37c-.1-.06,3.1-5.76,7.16-12.73s7.44-12.58,7.55-12.52-3.11,5.76-7.17,12.73S63.89,326.43,63.79,326.37Z" style="fill:#e0e0e0"></path><path d="M73,360.87a4.29,4.29,0,0,1,.71-.74l2-1.92c1.71-1.62,4-3.86,6.54-6.43s4.67-5,6.23-6.72L90.31,343a4.11,4.11,0,0,1,.72-.73,5.07,5.07,0,0,1-.59.83c-.4.52-1,1.27-1.75,2.17-1.51,1.8-3.66,4.24-6.16,6.81s-4.88,4.8-6.64,6.36c-.88.78-1.6,1.41-2.11,1.82A4.91,4.91,0,0,1,73,360.87Z" style="fill:#e0e0e0"></path><path d="M49.72,354a5,5,0,0,1,.93.18l2.51.64c2.12.55,5,1.35,8.24,2.25s6.1,1.75,8.19,2.38l2.48.76a4.11,4.11,0,0,1,.89.34,4.12,4.12,0,0,1-.94-.18l-2.51-.63c-2.11-.56-5-1.35-8.23-2.26s-6.11-1.74-8.2-2.37l-2.47-.77A3.84,3.84,0,0,1,49.72,354Z" style="fill:#e0e0e0"></path><path d="M53.89,385.47a6.77,6.77,0,0,1,1.19.24l3.22.8c2.71.7,6.45,1.69,10.57,2.81s7.85,2.16,10.55,2.93l3.18.93a6.26,6.26,0,0,1,1.15.4,6.76,6.76,0,0,1-1.2-.24l-3.22-.8c-2.71-.7-6.45-1.69-10.57-2.81s-7.85-2.15-10.54-2.93L55,385.87A6.26,6.26,0,0,1,53.89,385.47Z" style="fill:#e0e0e0"></path><path d="M83.09,393.19a7.81,7.81,0,0,1,.87-1l2.47-2.52c2.09-2.13,4.95-5.08,8-8.43s5.78-6.44,7.72-8.69l2.31-2.67a6.41,6.41,0,0,1,.88-.95,8.38,8.38,0,0,1-.75,1c-.51.66-1.26,1.61-2.2,2.76-1.88,2.31-4.55,5.44-7.64,8.79s-6,6.28-8.12,8.35c-1.07,1-2,1.87-2.57,2.43A8,8,0,0,1,83.09,393.19Z" style="fill:#e0e0e0"></path><path d="M70,59.61l5.42-2.42,4.47-21.74L75.07,24.64S83.21,20.39,88.54,35,93.33,45.5,93.33,45.5s17.8-7.86,20-7c1.57.65,9.93,18.09,14.39,27.58,2.24,4.78,1.29,10.58-2.69,13.72a8.4,8.4,0,0,1-1.8,1.11c-4.43,2-28.69,8.47-28.69,8.47l-9.35,4.18Z" style="fill:#f5f5f5"></path><polygon points="53.18 63.55 73.03 99.11 82.31 94.97 66.11 58.68 53.18 63.55" style="fill:#f5f5f5"></polygon><path d="M46.18,174.8a8.53,8.53,0,1,0-6.2,0C26.86,176.65,27.46,190,27.46,190l31,.13S59.18,176.64,46.18,174.8Z" style="fill:#f5f5f5"></path></g><g id="freepik--Floor--inject-8"><path d="M455.45,466.07c0,.15-92.44.26-206.44.26s-206.46-.11-206.46-.26,92.42-.26,206.46-.26S455.45,465.93,455.45,466.07Z" style="fill:#263238"></path></g><g id="freepik--Device--inject-8"><path d="M238.37,466.07,103.05,466a29.48,29.48,0,0,1-29.47-29.48l.07-339.27a29.48,29.48,0,0,1,29.5-29.47l135.32.08a29.47,29.47,0,0,1,29.46,29.48l-.06,339.27A29.48,29.48,0,0,1,238.37,466.07Z" style="fill:#263238"></path><path d="M238.33,79.85l-26.24,0a6.52,6.52,0,0,0-6.37,6.66v4.76a6.52,6.52,0,0,1-6.37,6.66l-51.15,0a6.53,6.53,0,0,1-6.37-6.67V86.45a6.53,6.53,0,0,0-6.38-6.66H103.27a20.64,20.64,0,0,0-20.65,20.64l-.07,331.15a20.65,20.65,0,0,0,20.63,20.65l135.06.08a20.66,20.66,0,0,0,20.66-20.64L259,100.5A20.65,20.65,0,0,0,238.33,79.85Z" style="fill:#fff"></path><path d="M228.48,430.21H113a5.21,5.21,0,0,1-5.2-5.21V393.43a5.21,5.21,0,0,1,5.2-5.21H228.48a5.21,5.21,0,0,1,5.2,5.21V425A5.21,5.21,0,0,1,228.48,430.21ZM113,389.22a4.21,4.21,0,0,0-4.2,4.21V425a4.21,4.21,0,0,0,4.2,4.21H228.48a4.21,4.21,0,0,0,4.2-4.21V393.43a4.21,4.21,0,0,0-4.2-4.21Z" style="fill:#e0e0e0"></path><path d="M139.61,406.74a9.35,9.35,0,1,0-17.41,4.73h0l0,0c.36.61.81,1,1.26,1.67l5.43,7.2a1.7,1.7,0,0,0,2.7,0l5.34-7.08a20.46,20.46,0,0,0,1.35-1.8l0,0h0A9.36,9.36,0,0,0,139.61,406.74Zm-9.35,4.08a4.12,4.12,0,1,1,4.11-4.12A4.13,4.13,0,0,1,130.26,410.82Z" style="fill:#407BFF"></path><rect x="153.98" y="404.03" width="67.77" height="11.1" rx="4.95" style="fill:#e0e0e0"></rect><path d="M106.59,327.83c0-4.22,3.23-7.21,7.63-7.21a7.35,7.35,0,0,1,6,2.61l-2.5,2.26a4.09,4.09,0,0,0-3.27-1.62,4,4,0,0,0,0,7.92,4.1,4.1,0,0,0,3.27-1.63l2.5,2.26a7.33,7.33,0,0,1-6,2.62C109.82,335,106.59,332.05,106.59,327.83Z" style="fill:#407BFF"></path><path d="M120.91,327.83c0-4.16,3.27-7.21,7.7-7.21s7.71,3.05,7.71,7.21-3.27,7.21-7.71,7.21S120.91,332,120.91,327.83Zm11.45,0a3.75,3.75,0,1,0-3.75,4A3.71,3.71,0,0,0,132.36,327.83Z" style="fill:#407BFF"></path><path d="M151.57,320.89v13.87h-3.23l-6.12-7.39v7.39h-3.84V320.89h3.23l6.12,7.39v-7.39Z" style="fill:#407BFF"></path><path d="M158.26,323.93v3h6.12v3h-6.12v4.75h-3.92V320.89h10.87v3Z" style="fill:#407BFF"></path><path d="M167.06,320.89H171v13.87h-3.92Z" style="fill:#407BFF"></path><path d="M179.83,331.08h-2.14v3.68h-3.92V320.89h6.34c3.78,0,6.16,2,6.16,5.13a4.6,4.6,0,0,1-2.72,4.38l3,4.36h-4.19Zm0-7.1h-2.18v4.07h2.18c1.62,0,2.44-.76,2.44-2S181.49,324,179.87,324Z" style="fill:#407BFF"></path><path d="M200.94,334.76l0-7.35-3.56,6h-1.75l-3.54-5.78v7.15h-3.63V320.89h3.23l4.88,8,4.75-8h3.23l0,13.87Z" style="fill:#407BFF"></path><path d="M218.45,331.73v3H207.32V320.89h10.87v3h-7v2.33h6.16v2.93H211.2v2.54Z" style="fill:#407BFF"></path><path d="M220.63,320.89h6.55c4.6,0,7.75,2.68,7.75,6.94s-3.15,6.93-7.75,6.93h-6.55Zm6.4,10.74a3.81,3.81,0,1,0,0-7.61h-2.48v7.61Z" style="fill:#407BFF"></path><path d="M124.17,350.92h-5.85l-1.26,2.8h-1.15l4.8-10.5h1.09l4.8,10.5h-1.17Zm-.4-.9-2.52-5.64L118.73,350Z" style="fill:#407BFF"></path><path d="M129.86,344.18h-3.69v-1h8.49v1H131v9.54h-1.11Z" style="fill:#407BFF"></path><path d="M138.62,344.18h-3.69v-1h8.49v1h-3.69v9.54h-1.11Z" style="fill:#407BFF"></path><path d="M152.61,352.76v1h-7.42v-10.5h7.2v1H146.3v3.74h5.43v.94H146.3v3.9Z" style="fill:#407BFF"></path><path d="M164,343.22v10.5h-.92l-6.75-8.52v8.52h-1.11v-10.5h.92l6.76,8.52v-8.52Z" style="fill:#407BFF"></path><path d="M167.41,343.22h4.28c3.36,0,5.62,2.16,5.62,5.25s-2.26,5.25-5.62,5.25h-4.28Zm4.22,9.54c2.79,0,4.59-1.77,4.59-4.29s-1.8-4.29-4.59-4.29h-3.11v8.58Z" style="fill:#407BFF"></path><path d="M186.24,350.92h-5.85l-1.26,2.8H178l4.8-10.5h1.1l4.8,10.5H187.5Zm-.41-.9-2.52-5.64L180.79,350Z" style="fill:#407BFF"></path><path d="M199.18,343.22v10.5h-.91l-6.75-8.52v8.52h-1.11v-10.5h.91l6.77,8.52v-8.52Z" style="fill:#407BFF"></path><path d="M201.67,348.47a5.28,5.28,0,0,1,5.51-5.34,5.08,5.08,0,0,1,3.84,1.53l-.71.71a4.15,4.15,0,0,0-3.1-1.25,4.35,4.35,0,1,0,0,8.7,4.08,4.08,0,0,0,3.1-1.26l.71.71a5.11,5.11,0,0,1-3.86,1.54A5.26,5.26,0,0,1,201.67,348.47Z" style="fill:#407BFF"></path><path d="M220.81,352.76v1h-7.42v-10.5h7.2v1H214.5v3.74h5.43v.94H214.5v3.9Z" style="fill:#407BFF"></path><rect x="122.43" y="366" width="96.66" height="9.57" rx="4.27" style="fill:#e0e0e0"></rect><path d="M114.27,113.69H101.68a1,1,0,0,1-1-1h0a1,1,0,0,1,1-1h12.59a1,1,0,0,1,1,1h0A1,1,0,0,1,114.27,113.69Z" style="fill:#263238"></path><path d="M114.15,117.78H101.57a1,1,0,0,1-1-1h0a1,1,0,0,1,1-1h12.58a1,1,0,0,1,1,1h0A1,1,0,0,1,114.15,117.78Z" style="fill:#263238"></path><path d="M114,121.86H101.45a1,1,0,0,1-1-1h0a1,1,0,0,1,1-1H114a1,1,0,0,1,1,1h0A1,1,0,0,1,114,121.86Z" style="fill:#263238"></path></g><g id="freepik--Calendar--inject-8"><path d="M309.81,51.61,237.64,40A6.7,6.7,0,0,0,230,45.56l-11.58,72.17a6.69,6.69,0,0,0,5.54,7.67l2.16.34L246.17,129l49.93,8a6.68,6.68,0,0,0,7.66-5.54l11.59-72.17A6.69,6.69,0,0,0,309.81,51.61Z" style="fill:#fff"></path><path d="M228.32,45.64h86.47a0,0,0,0,1,0,0V67.36a5.58,5.58,0,0,1-5.58,5.58H234.14a5.82,5.82,0,0,1-5.82-5.82V45.64A0,0,0,0,1,228.32,45.64Z" transform="translate(530.28 160.87) rotate(-170.88)" style="fill:#407BFF"></path><path d="M262,82.8l-4.66,29-6.72-1.07,3.8-23.64-5.81-.93.87-5.39Z" style="fill:#263238"></path><path d="M289.77,87.26l-.7,4.35-14.74,22.94-7.3-1.17L281.22,91.5,271.6,90l-.76,4.73-6-1,1.64-10.2Z" style="fill:#263238"></path><path d="M259.34,59.19c0,.15,5.82,1.22,13.06,2.38s13.12,2,13.14,1.83-5.82-1.22-13.05-2.38S259.37,59,259.34,59.19Z" style="fill:#263238"></path><path d="M309.81,51.61a4.87,4.87,0,0,1,.84.17,6.56,6.56,0,0,1,2.26,1.14,6.7,6.7,0,0,1,2.31,3.38,6.59,6.59,0,0,1,.25,2.62c-.11.94-.29,1.92-.45,3-1.33,8.37-3.24,20.45-5.6,35.39-1.2,7.47-2.5,15.65-3.9,24.43-.35,2.2-.7,4.43-1.07,6.7-.19,1.14-.34,2.27-.57,3.44a6.87,6.87,0,0,1-1.64,3.19,7,7,0,0,1-3.09,1.94,7.44,7.44,0,0,1-3.69.11l-7.31-1.17L223.9,125.63a7,7,0,0,1-5.77-6,7.64,7.64,0,0,1,.06-2.19l.34-2.1c.23-1.4.45-2.79.67-4.18q1.34-8.32,2.64-16.39c1.73-10.75,3.39-21.11,5-31q1.2-7.41,2.33-14.43c.19-1.17.38-2.33.56-3.48a8.93,8.93,0,0,1,.43-1.73,6.56,6.56,0,0,1,.85-1.56,6.89,6.89,0,0,1,2.68-2.23,7,7,0,0,1,3.37-.62c8.82,1.36,17,2.73,24.45,3.92l35.36,5.75L306.46,51l2.5.43c.56.09.85.16.85.16s-.3,0-.86-.12l-2.51-.37-9.62-1.5L261.43,44C254,42.84,245.77,41.49,237,40.15a6.47,6.47,0,0,0-5.7,2.69,7,7,0,0,0-.79,1.47,8.21,8.21,0,0,0-.4,1.66c-.19,1.15-.37,2.31-.56,3.48l-2.31,14.43-5,31q-1.29,8.07-2.62,16.4c-.23,1.38-.45,2.78-.67,4.17a16.1,16.1,0,0,0-.41,4.16,6.49,6.49,0,0,0,5.39,5.56l64.24,10.33,7.31,1.18a6.9,6.9,0,0,0,3.5-.1,6.47,6.47,0,0,0,2.9-1.81,6.37,6.37,0,0,0,1.55-3c.22-1.12.38-2.29.57-3.41q.56-3.41,1.09-6.7c1.42-8.78,2.74-17,3.95-24.42,2.42-14.93,4.39-27,5.75-35.37.16-1,.35-2,.46-3a6.37,6.37,0,0,0-.22-2.57,6.66,6.66,0,0,0-4.44-4.51c-.27-.1-.49-.12-.62-.17Z" style="fill:#263238"></path><rect x="251.1" y="42.24" width="19.53" height="5.63" rx="2.72" transform="translate(175.01 295.48) rotate(-80.88)" style="fill:#e0e0e0"></rect><path d="M259.23,54.68a3.35,3.35,0,0,1-1.48-.9,2.61,2.61,0,0,1-.65-1.84c.08-.77.29-1.71.45-2.72l1.21-7.15c.22-1.35.45-2.77.69-4.23a2.56,2.56,0,0,1,1-1.73,2.52,2.52,0,0,1,2-.41,2.5,2.5,0,0,1,1.69,1.13,2.57,2.57,0,0,1,.29,2c-.23,1.46-.45,2.88-.66,4.23-.41,2.68-.78,5.1-1.09,7.17-.08.51-.15,1-.21,1.46a8.08,8.08,0,0,1-.24,1.26,2.65,2.65,0,0,1-1.3,1.45,3.5,3.5,0,0,1-1.71.28,1.17,1.17,0,0,0,.45.12,2.67,2.67,0,0,0,1.35-.2,2.89,2.89,0,0,0,1.5-1.54,7.21,7.21,0,0,0,.29-1.32c.08-.46.17-.94.26-1.45.34-2.06.75-4.48,1.2-7.15.23-1.35.46-2.76.7-4.23a3.14,3.14,0,0,0-.36-2.37,3,3,0,0,0-2.07-1.38,3,3,0,0,0-3.63,2.59c-.23,1.47-.45,2.88-.67,4.23-.4,2.68-.77,5.1-1.09,7.18-.14,1-.31,1.92-.37,2.78a2.8,2.8,0,0,0,.81,2,2.57,2.57,0,0,0,1.16.69C259.06,54.71,259.23,54.7,259.23,54.68Z" style="fill:#263238"></path><rect x="277.17" y="46.43" width="19.53" height="5.63" rx="2.72" transform="translate(192.81 324.73) rotate(-80.88)" style="fill:#e0e0e0"></rect><path d="M285.29,58.87a3.48,3.48,0,0,1-1.47-.9,2.62,2.62,0,0,1-.66-1.84c.08-.77.29-1.72.45-2.73.35-2.07.76-4.48,1.21-7.15l.69-4.23a2.47,2.47,0,0,1,3-2.13,2.47,2.47,0,0,1,1.7,1.13,2.64,2.64,0,0,1,.29,2c-.23,1.47-.46,2.88-.67,4.23-.4,2.68-.77,5.1-1.09,7.18-.07.5-.14,1-.21,1.45a7.86,7.86,0,0,1-.24,1.26,2.65,2.65,0,0,1-1.3,1.45,3.6,3.6,0,0,1-1.71.29,1.1,1.1,0,0,0,.46.11,2.65,2.65,0,0,0,1.34-.2,2.86,2.86,0,0,0,1.5-1.54,6.23,6.23,0,0,0,.29-1.31c.09-.46.17-1,.26-1.45.35-2.07.75-4.49,1.21-7.16L291,43.1a3.12,3.12,0,0,0-.36-2.37,3,3,0,0,0-2.07-1.39,3.07,3.07,0,0,0-2.42.51A3,3,0,0,0,285,41.94c-.23,1.46-.45,2.88-.66,4.23-.41,2.67-.78,5.1-1.1,7.17-.13,1-.31,1.92-.37,2.78a2.82,2.82,0,0,0,.81,2,2.71,2.71,0,0,0,1.16.7A1.13,1.13,0,0,0,285.29,58.87Z" style="fill:#263238"></path></g><g id="freepik--character-4--inject-8"><rect x="291.85" y="355.7" width="166.09" height="66.82" rx="10.02" style="fill:#fff"></rect><path d="M447.93,422.52l.29,0c.19,0,.48,0,.86-.07a10.14,10.14,0,0,0,3.23-1,9.88,9.88,0,0,0,4-3.63,9.69,9.69,0,0,0,1.31-3.22,18.37,18.37,0,0,0,.21-4c0-5.67,0-12.62,0-20.68q0-6,0-12.91c0-2.29,0-4.64,0-7.05v-3.67a11.07,11.07,0,0,0-.5-3.65,9.85,9.85,0,0,0-8.63-6.71c-1.32-.07-2.72,0-4.09,0l-17.27,0-38.1,0-87.3,0a9.8,9.8,0,0,0-8.92,5.79,9.67,9.67,0,0,0-.75,2.67,23.85,23.85,0,0,0-.1,2.82v44.15a11,11,0,0,0,.84,5.08,9.82,9.82,0,0,0,7.83,5.74c.83.08,1.68.07,2.54.07h7.62l71.3.06,48.07.08,13.06.05,3.4,0,1.16,0-1.16,0-3.4,0-13.06.05-48.07.08-71.3.06h-7.62a25.07,25.07,0,0,1-2.59-.06,10.32,10.32,0,0,1-8.24-6,11.8,11.8,0,0,1-.89-5.28V367.24a21.48,21.48,0,0,1,.09-2.88,10.22,10.22,0,0,1,.8-2.82,10.29,10.29,0,0,1,9.39-6.1l87.3,0,38.1,0h17.27c1.39,0,2.74,0,4.12,0a10.18,10.18,0,0,1,8.94,7,11.32,11.32,0,0,1,.52,3.76c0,1.24,0,2.46,0,3.67,0,2.41,0,4.76,0,7.05q0,6.86,0,12.91c0,8.06,0,15,0,20.68a19.37,19.37,0,0,1-.24,4,9.56,9.56,0,0,1-1.36,3.27,10,10,0,0,1-4.1,3.65,9.8,9.8,0,0,1-3.26.93C448.32,422.53,447.93,422.52,447.93,422.52Z" style="fill:#263238"></path><path d="M434.34,403.54a12.28,12.28,0,1,1,12.28-12.28A12.3,12.3,0,0,1,434.34,403.54Zm0-22.56a10.28,10.28,0,1,0,10.28,10.28A10.29,10.29,0,0,0,434.34,381Z" style="fill:#407BFF"></path><path d="M408.28,399.64H365.85a6.79,6.79,0,0,1-6.8-6.79h0a6.79,6.79,0,0,1,6.8-6.8h42.43a6.8,6.8,0,0,1,6.8,6.8h0A6.8,6.8,0,0,1,408.28,399.64Z" style="fill:#e0e0e0"></path><circle cx="327.32" cy="391.03" r="25.49" transform="translate(-106.79 123.46) rotate(-18.42)" style="fill:#fff"></circle><path d="M352.75,392.69s0-.14,0-.42v-2.1c0-.33-.06-.69-.09-1.07a18.37,18.37,0,0,0-.36-2.66,24.45,24.45,0,0,0-2.39-6.93,25.46,25.46,0,0,0-16.3-13,23.48,23.48,0,0,0-3.18-.58c-.54-.05-1.08-.14-1.64-.17l-1.68,0c-.28,0-.56,0-.84,0l-.85.08c-.57.05-1.15.08-1.72.16a27.46,27.46,0,0,0-6.82,2c-.55.25-1.09.55-1.63.83a14.33,14.33,0,0,0-1.6.95,30.71,30.71,0,0,0-3,2.25,29.06,29.06,0,0,0-2.66,2.77,24.45,24.45,0,0,0-4.06,6.72,25.1,25.1,0,0,0-1,15.93,24.81,24.81,0,0,0,3.15,7.19,30.48,30.48,0,0,0,2.29,3.09,27.77,27.77,0,0,0,2.7,2.62,13.42,13.42,0,0,0,1.46,1.15c.51.35,1,.72,1.51,1a24.94,24.94,0,0,0,3.2,1.66,27.9,27.9,0,0,0,3.3,1.21c.56.16,1.13.26,1.68.39l.84.18a8,8,0,0,0,.84.11l1.66.2c.56,0,1.11,0,1.66,0a22.93,22.93,0,0,0,3.22-.16,25.44,25.44,0,0,0,17.85-10.78,24.28,24.28,0,0,0,3.26-6.56,17.54,17.54,0,0,0,.7-2.59c.09-.38.18-.72.23-1.05s.08-.62.12-.88c.07-.52.12-.92.16-1.2s.06-.41.06-.41,0,.14,0,.41-.07.69-.12,1.21c0,.27-.06.56-.1.89s-.13.68-.21,1.06a18,18,0,0,1-.67,2.61,24.5,24.5,0,0,1-3.22,6.64,25.67,25.67,0,0,1-18,11,23.33,23.33,0,0,1-3.26.17c-.55,0-1.11,0-1.67,0l-1.69-.19c-.28,0-.57-.05-.85-.11l-.85-.18c-.56-.14-1.14-.24-1.7-.39a28.19,28.19,0,0,1-3.36-1.22,27.83,27.83,0,0,1-3.25-1.68c-.52-.33-1-.71-1.53-1.06a12.81,12.81,0,0,1-1.48-1.16,23.54,23.54,0,0,1-5.07-5.79,24.67,24.67,0,0,1-3.21-7.3,27.26,27.26,0,0,1-.8-8.18,27.61,27.61,0,0,1,1.85-8,24.66,24.66,0,0,1,4.13-6.82,27.71,27.71,0,0,1,2.71-2.81,29,29,0,0,1,3.07-2.28,13.81,13.81,0,0,1,1.62-1c.55-.28,1.09-.59,1.65-.84a26.83,26.83,0,0,1,3.44-1.25,27.28,27.28,0,0,1,3.49-.77c.58-.08,1.16-.11,1.74-.17l.86-.07c.29,0,.58,0,.86,0l1.7,0c.56,0,1.12.12,1.67.18a24.23,24.23,0,0,1,3.21.59,25.68,25.68,0,0,1,16.42,13.22,24,24,0,0,1,2.34,7,18.37,18.37,0,0,1,.33,2.68c0,.39.06.75.07,1.08l0,.89c0,.52,0,.93,0,1.22S352.75,392.69,352.75,392.69Z" style="fill:#263238"></path><path d="M305.78,404.24l11.22-3.4,18.24,2.81,12.25,2.73a25.08,25.08,0,0,1-20.21,9.93,25.56,25.56,0,0,1-16.28-6A23.63,23.63,0,0,1,305.78,404.24Z" style="fill:#407BFF"></path><path d="M341.76,390.51c-.06-3.43-.75-10.47-1.45-16.84a13.22,13.22,0,0,0-13.53-11.77l-.68,0c-7.37.64-10.93,7.26-10.08,14.6L317.61,402l10.21,6.5,7.07-3-.07-6.65S341.88,397.6,341.76,390.51Z" style="fill:#ffbf9d"></path><path d="M337.84,380.53a1,1,0,0,1-.94,1.05,1,1,0,0,1-1.07-.89,1,1,0,0,1,.94-1.05A1,1,0,0,1,337.84,380.53Z" style="fill:#263238"></path><path d="M339,376.81c-.12.13-.9-.41-2-.38s-1.88.6-2,.47.06-.3.4-.56a2.86,2.86,0,0,1,1.6-.54,2.71,2.71,0,0,1,1.59.46C338.92,376.51,339,376.74,339,376.81Z" style="fill:#263238"></path><path d="M327.81,380.53a1,1,0,0,1-.94,1.05,1,1,0,0,1-1.07-.89,1,1,0,0,1,.94-1.05A1,1,0,0,1,327.81,380.53Z" style="fill:#263238"></path><path d="M328.11,376.81c-.1.15-.94-.3-2-.15s-1.8.8-1.93.68,0-.3.34-.6A2.74,2.74,0,0,1,326,376a2.65,2.65,0,0,1,1.63.29C328,376.53,328.17,376.75,328.11,376.81Z" style="fill:#263238"></path><path d="M332.37,385.66a7.21,7.21,0,0,1,1.76-.37c.28,0,.54-.1.58-.29a1.38,1.38,0,0,0-.21-.82l-.88-2.09a36.82,36.82,0,0,1-2-5.49,36.88,36.88,0,0,1,2.44,5.31l.85,2.11a1.58,1.58,0,0,1,.18,1.09.69.69,0,0,1-.45.42,1.71,1.71,0,0,1-.47.08A7.1,7.1,0,0,1,332.37,385.66Z" style="fill:#263238"></path><path d="M328.13,372.11c-.1.3-1.2.19-2.47.38s-2.3.57-2.48.31.1-.41.51-.71a4.1,4.1,0,0,1,1.82-.7,4.16,4.16,0,0,1,1.94.18C327.92,371.74,328.17,372,328.13,372.11Z" style="fill:#263238"></path><path d="M338.68,372.6c-.18.25-.94,0-1.84,0s-1.67.21-1.85,0,0-.38.36-.62a2.58,2.58,0,0,1,1.49-.45,2.48,2.48,0,0,1,1.48.46C338.65,372.22,338.76,372.47,338.68,372.6Z" style="fill:#263238"></path><path d="M316.75,381.76c-.12-.05-4.92-1.3-4.62,3.54s5.1,3.55,5.1,3.41S316.75,381.76,316.75,381.76Z" style="fill:#ffbf9d"></path><path d="M315.64,387s-.09.06-.22.14a.86.86,0,0,1-.63.05,2.08,2.08,0,0,1-1.08-1.82,2.7,2.7,0,0,1,.16-1.22,1,1,0,0,1,.59-.69.43.43,0,0,1,.51.2c.08.14,0,.23.08.24s.1-.09.05-.28a.57.57,0,0,0-.21-.3.69.69,0,0,0-.48-.09,1.19,1.19,0,0,0-.83.8,2.81,2.81,0,0,0-.21,1.37,2.18,2.18,0,0,0,1.36,2,.87.87,0,0,0,.76-.18C315.63,387.08,315.65,387,315.64,387Z" style="fill:#ff9a6c"></path><path d="M340.86,365.37a2.47,2.47,0,0,0-1.92-1.92c.05-.15-1-.65-1.81-1.22s-1-1.92-1.72-1.25a2.27,2.27,0,0,0-3.14-1.94c0-.86-1.24-1.14-2.07-1.36s-1.15-.34-1.54.42a3.3,3.3,0,0,0-5.15-.27,4.23,4.23,0,0,0-5.05,2.41,4,4,0,0,0-3.44,2.85c-1,.11-1.25.91-1.66,1.85s-1,2-.37,2.79a2.17,2.17,0,0,0-.35,3.43,2.1,2.1,0,0,0-.69.6,2.26,2.26,0,0,0-.57,3.17,2.25,2.25,0,0,0,1.52,4c-.78,1.13.23,2.65.82,3,0,0,2-.84,2.32.62h0a.9.9,0,0,0,1.22.91,3.08,3.08,0,0,0,1.21-1.42,7.11,7.11,0,0,0,1-1.95,1.67,1.67,0,0,0-.73-1.88,2.52,2.52,0,0,0,1.48-2.05,7.29,7.29,0,0,0-.22-2.62c-.27-1.27-.54-2.55-.8-3.82a4.84,4.84,0,0,0,4.1-2.87,2.78,2.78,0,0,0,4-1.1,3.61,3.61,0,0,0,4.46,2.1c-.16,1,1.66,1.89,2.66,2.13a3.54,3.54,0,0,0,2.21-.5s1.73,1,2.65.56,2.09-1.59,1.47-2.54A4.5,4.5,0,0,0,340.86,365.37Z" style="fill:#263238"></path><path d="M331.63,358.92a1.88,1.88,0,0,0-.56-.3,1.06,1.06,0,0,0-.71.06,1.09,1.09,0,0,0-.57.72l-.05.28-.16-.25a1.76,1.76,0,0,0-1.51-.79,1.71,1.71,0,0,0-1.57,1.26l-.08.32-.21-.26a2.17,2.17,0,0,0-1.7-.75,2,2,0,0,0-1.69,1,1.94,1.94,0,0,0-.29.79l0,.2-.19,0a2.07,2.07,0,0,0-2.28,1.14,2.1,2.1,0,0,0,.41,2.26l.19.19-.27.06a2.25,2.25,0,0,0-1.42,1,2.2,2.2,0,0,0-.37,1.3,3,3,0,0,0,.29,1.16s-.09-.07-.2-.26a2.25,2.25,0,0,1-.26-.9,2.38,2.38,0,0,1,.34-1.43,2.5,2.5,0,0,1,1.56-1.13l-.07.25a2.35,2.35,0,0,1,2.16-4l-.22.16a2.46,2.46,0,0,1,.33-.94,2.41,2.41,0,0,1,2-1.18,2.48,2.48,0,0,1,2,.9l-.29.07a2,2,0,0,1,3.6-.5l-.21,0a1.22,1.22,0,0,1,.72-.83,1.16,1.16,0,0,1,.82,0,1,1,0,0,1,.42.28A.41.41,0,0,1,331.63,358.92Z" style="fill:#455a64"></path><path d="M341.56,386.64a1.51,1.51,0,0,0-2.24.74,1.92,1.92,0,0,0-1.86-.77A2,2,0,0,0,336,388a1.55,1.55,0,0,0-2.58-.44,2,2,0,0,1-1.94-1.73,1.22,1.22,0,0,0-1.33.14,2,2,0,0,0-2.89-.48,1.08,1.08,0,0,0-2.09.08,1.74,1.74,0,0,0-2-.53,1.18,1.18,0,0,0-1.46-1.08c.17-.59-.71-.86-1.16-1.29A8.27,8.27,0,0,0,320,382c-.21-.18-.59-.21-.73,0a1,1,0,0,0-1.89-.66,3.11,3.11,0,0,0-.16.86c-.13.93-.66,2,0,2.68.12.12.27.22.32.37s-.17.53-.19.81.28.58.41.88a2.93,2.93,0,0,1,0,1.44c0,.49.24,1.11.73,1.06a1.71,1.71,0,0,0,.53,2.11,1.68,1.68,0,0,0,1,2.19.85.85,0,0,0-.06,1.12,2.4,2.4,0,0,0,1,.72.71.71,0,0,0-.17,1,1.65,1.65,0,0,0,1,.58.74.74,0,0,1,.43.22c.17.25-.06.6,0,.9.08.46.73.59.92,1s-.05.91.25,1.2.51.15.77.24c.45.16.65.67.94,1.05a4,4,0,0,0,2.36,1.27c.44.11.9.21,1.35.3.91.16,1.82.27,2.74.39.46.05,1,.06,1.25-.33a1.59,1.59,0,0,0,2.52-.3,3.82,3.82,0,0,0,2.45-.47l.8-.35c.8-.35,1.7-.79,1.93-1.63a1.77,1.77,0,0,0,1.27-2.42c.36.11.72-.26.77-.64a3.32,3.32,0,0,0-.14-1.12c-.28-1.52.53-3.07.32-4.6-.15-1.07-.79-2.13-.48-3.16a1.92,1.92,0,0,0,.15-.65c0-.22-.22-.45-.43-.39a1,1,0,0,0-1-1.31" style="fill:#263238"></path><path d="M328.77,386.75c.17,0,.21,1.17,1.25,2s2.29.65,2.3.81-.27.24-.8.27a3,3,0,0,1-1.93-.61,2.61,2.61,0,0,1-1-1.66C328.56,387.05,328.69,386.75,328.77,386.75Z" style="fill:#fff"></path><path d="M322.27,394.84a10.44,10.44,0,0,1-.46-2.5,10.58,10.58,0,0,1,.35-2.53,2.16,2.16,0,0,0-.3.7,5.88,5.88,0,0,0-.24,1.83,6.08,6.08,0,0,0,.32,1.82A2.14,2.14,0,0,0,322.27,394.84Z" style="fill:#455a64"></path><path d="M321.15,393.13s-.15-.19-.27-.53a3.52,3.52,0,0,1-.12-1.44c.09-1.14.41-2,.35-2.05a4.81,4.81,0,0,0-.54,2,3.12,3.12,0,0,0,.19,1.5C320.92,393,321.14,393.15,321.15,393.13Z" style="fill:#455a64"></path><path d="M320,392.15a7.23,7.23,0,0,1-.51-2.11,7.35,7.35,0,0,1,.33-2.15,1.56,1.56,0,0,0-.3.59,4.33,4.33,0,0,0-.22,1.57,4.11,4.11,0,0,0,.36,1.54A1.49,1.49,0,0,0,320,392.15Z" style="fill:#455a64"></path><path d="M339.7,399.4a1.22,1.22,0,0,0,.67-.43,3.93,3.93,0,0,0,.85-1.74,6.16,6.16,0,0,0,.16-1.92,2.15,2.15,0,0,0-.16-.78,9.6,9.6,0,0,1-.19,2.66,4.29,4.29,0,0,1-.76,1.69A5.45,5.45,0,0,1,339.7,399.4Z" style="fill:#455a64"></path><path d="M338.66,399.14a1.55,1.55,0,0,0,.55-.38,3.76,3.76,0,0,0,.89-1.34,3.67,3.67,0,0,0,.26-1.59,1.57,1.57,0,0,0-.14-.66,5.84,5.84,0,0,0,0,.66,4.32,4.32,0,0,1-.29,1.52,4.48,4.48,0,0,1-.82,1.31C338.84,399,338.64,399.11,338.66,399.14Z" style="fill:#455a64"></path><path d="M340.47,369.41a9.33,9.33,0,0,0-4.79-3.48c-5.87-1.74-14.1-2.4-22.79,6.17l-1.27.57a21.36,21.36,0,0,1,.18-5.08c.3-1.44,2.93-9.85,12.33-10.73C324.13,356.86,338.49,354.52,340.47,369.41Z" style="fill:#455a64"></path><g style="opacity:0.30000000000000004"><path d="M340.47,369.41a9.33,9.33,0,0,0-4.79-3.48c-5.87-1.74-14.1-2.4-22.79,6.17l-1.27.57a21.36,21.36,0,0,1,.18-5.08c.3-1.44,2.93-9.85,12.33-10.73C324.13,356.86,338.49,354.52,340.47,369.41Z"></path></g><path d="M312.89,372.1c3.57-3.91,8.16-6.15,13-8s12.44-3,17.58-3.26a10.71,10.71,0,0,1,4.58.45,4.13,4.13,0,0,1,2.76,3.4c.08,1.94-3.76,4.1-5.52,4.9s-5.36,2.2-5.36,2.2-1-4.39-4.43-5.64C328.28,363.62,312.62,372.24,312.89,372.1Z" style="fill:#455a64"></path><path d="M340.9,366.56a2.76,2.76,0,0,0-3-1.73,1.05,1.05,0,0,0,0-1.26,1.92,1.92,0,0,0-1.15-.66,3.5,3.5,0,0,0-3.89,2,3.36,3.36,0,0,0-3.14-.86,2.6,2.6,0,0,0-2.16,2.25,2.1,2.1,0,0,0,1.27,1.93,3.17,3.17,0,0,0,2.85-.31,2.94,2.94,0,0,0,4.65,1.24,2.67,2.67,0,0,0,4.57-2.62Z" style="fill:#263238"></path></g><g id="freepik--character-3--inject-8"><rect x="288.32" y="264.09" width="169.63" height="68.24" rx="10.02" style="fill:#fff"></rect><path d="M447.93,332.33l.3,0c.19,0,.49,0,.88-.08a10.16,10.16,0,0,0,3.29-1,10,10,0,0,0,4-3.79,9.88,9.88,0,0,0,1.25-3.32,23.44,23.44,0,0,0,.15-4.08c0-5.8,0-12.9,0-21.14,0-4.12,0-8.53,0-13.2,0-2.33,0-4.74,0-7.2v-3.75a11,11,0,0,0-.52-3.73,9.82,9.82,0,0,0-5-5.72,9.93,9.93,0,0,0-3.88-1c-1.37,0-2.78,0-4.2,0l-17.65,0-38.94,0-89.23,0a11.34,11.34,0,0,0-2.84.42,11.07,11.07,0,0,0-2.6,1.23,10,10,0,0,0-3.58,4.37,10.9,10.9,0,0,0-.7,2.75c-.06.94,0,1.92-.05,2.89v45.13a11.1,11.1,0,0,0,.86,5.19,9.78,9.78,0,0,0,8.08,5.72c3.47.08,7,0,10.4,0l72.87.06,49.14.08,13.35,0,3.48,0,1.18,0-1.18,0-3.48,0-13.35.05-49.14.08-72.87.05c-3.44,0-6.89.05-10.44,0a10.28,10.28,0,0,1-8.49-6,11.75,11.75,0,0,1-.92-5.39V276c0-1,0-1.93.05-2.94a10.29,10.29,0,0,1,4.5-7.5,10.83,10.83,0,0,1,2.73-1.29,11.35,11.35,0,0,1,3-.45l89.23,0,38.94,0h17.65c1.42,0,2.81,0,4.21,0a10.2,10.2,0,0,1,9.23,7,11.59,11.59,0,0,1,.53,3.85c0,1.26,0,2.51,0,3.75,0,2.46,0,4.87,0,7.2,0,4.67,0,9.08,0,13.2,0,8.24,0,15.34,0,21.14a23.82,23.82,0,0,1-.19,4.11,10.09,10.09,0,0,1-5.42,7.17,10.19,10.19,0,0,1-3.33,1A10.45,10.45,0,0,1,447.93,332.33Z" style="fill:#263238"></path><path d="M433,311.9h0a11.51,11.51,0,0,1-10.66-12.32h0a11.52,11.52,0,0,1,12.32-10.67h0a11.53,11.53,0,0,1,10.66,12.32h0A11.52,11.52,0,0,1,433,311.9Z" style="fill:#407BFF"></path><polygon points="433.13 306.46 426.22 301.08 428.1 298.67 432.74 302.28 439.37 294.7 441.67 296.71 433.13 306.46" style="fill:#fff"></polygon><path d="M407.22,309H363.88a6.94,6.94,0,0,1-6.94-6.94h0a6.94,6.94,0,0,1,6.94-6.94h43.34a6.94,6.94,0,0,1,6.94,6.94h0A6.94,6.94,0,0,1,407.22,309Z" style="fill:#e0e0e0"></path><circle cx="324.46" cy="298.13" r="26.03" transform="translate(-115.33 270.81) rotate(-39.02)" style="fill:#fff"></circle><path d="M301.34,309.79a4.13,4.13,0,0,1,.23.36c.14.26.35.62.62,1.08l.45.8c.18.28.41.58.63.9a19.74,19.74,0,0,0,1.69,2.19,25.08,25.08,0,0,0,5.66,4.94,26.15,26.15,0,0,0,21.18,3.22,24.18,24.18,0,0,0,3.12-1.11c.51-.23,1-.44,1.55-.69l1.51-.85c.25-.14.51-.27.75-.43l.72-.5c.48-.34,1-.67,1.44-1a27.76,27.76,0,0,0,2.66-2.44,28.69,28.69,0,0,0,2.39-2.84c.36-.51.68-1.05,1-1.58a12.82,12.82,0,0,0,.93-1.66,23.54,23.54,0,0,0,2.49-7.38,25,25,0,0,0,.17-8.06,27.64,27.64,0,0,0-2.41-7.95,28,28,0,0,0-4.83-6.77l-1.48-1.41-1.6-1.26a6.85,6.85,0,0,0-.83-.58l-.85-.54-.84-.54-.89-.45a30.3,30.3,0,0,0-3.62-1.58,29.43,29.43,0,0,0-3.75-.95,13.44,13.44,0,0,0-1.89-.27c-.63-.05-1.25-.13-1.88-.16a26.74,26.74,0,0,0-3.7.17,27.85,27.85,0,0,0-3.56.61c-.57.15-1.13.35-1.69.52l-.84.26c-.27.1-.53.23-.8.34l-1.59.68c-.51.24-1,.54-1.49.8a25.46,25.46,0,0,0-2.78,1.8,26.17,26.17,0,0,0-10.37,18.75,24.85,24.85,0,0,0,.47,7.5,19,19,0,0,0,.7,2.67c.12.38.22.73.33,1l.36.84c.2.5.36.88.47,1.15a3.93,3.93,0,0,1,.15.4,3.71,3.71,0,0,1-.18-.38l-.51-1.14-.38-.84c-.12-.31-.22-.67-.35-1.05a18.28,18.28,0,0,1-.74-2.67,24.94,24.94,0,0,1-.53-7.55,26.31,26.31,0,0,1,10.39-19,23.37,23.37,0,0,1,2.81-1.83c.5-.27,1-.57,1.51-.82l1.6-.69c.27-.11.54-.25.82-.34l.84-.27c.57-.17,1.14-.38,1.72-.53a28.34,28.34,0,0,1,3.61-.63,25.83,25.83,0,0,1,3.75-.17c.63,0,1.26.1,1.9.15a12.39,12.39,0,0,1,1.91.28,28.67,28.67,0,0,1,3.81.95,30.42,30.42,0,0,1,3.67,1.6l.9.46.86.54.86.55a6.31,6.31,0,0,1,.84.59l1.63,1.27,1.5,1.44a26,26,0,0,1,7.35,14.92,25.45,25.45,0,0,1-.18,8.18,31,31,0,0,1-1,3.88,29,29,0,0,1-1.57,3.6,14.6,14.6,0,0,1-.94,1.69c-.35.53-.68,1.08-1,1.6a28.21,28.21,0,0,1-2.42,2.87,28.63,28.63,0,0,1-2.71,2.47c-.47.37-1,.69-1.46,1l-.73.51c-.25.16-.51.29-.76.43l-1.53.85c-.51.26-1.05.46-1.57.7A25.84,25.84,0,0,1,319.78,324a26.12,26.12,0,0,1-9.27-3.78,24.86,24.86,0,0,1-5.67-5,19,19,0,0,1-1.66-2.21c-.22-.33-.44-.63-.62-.92l-.44-.81-.59-1.1Z" style="fill:#263238"></path><path d="M308.45,318.49s1.24-.41,5.52-1.73,18.33.65,18.33.65l8.05,1.66s-5.72,5.88-16.71,5.14S308.45,318.49,308.45,318.49Z" style="fill:#407BFF"></path><path d="M338.43,285a3.29,3.29,0,0,0,1.16-6.44,3.42,3.42,0,0,0-3.19-5.66,4.1,4.1,0,0,0-6.29-3.13,4.62,4.62,0,0,0-5.67.09,3.28,3.28,0,0,0-2.69,5.66" style="fill:#263238"></path><path d="M333.11,317.94l-.13-5.77s7.74-1.43,7.58-8.92c-.09-3.62-.86-11.06-1.64-17.78a14,14,0,0,0-14.35-12.33l-.72,0c-7.77.73-11.5,7.74-10.56,15.48l1.12,28.13s9.83,5.22,12,4.46A60.81,60.81,0,0,0,333.11,317.94Z" style="fill:#ae7461"></path><path d="M333,312.17a17.42,17.42,0,0,1-9.55-2.55s2.11,5.48,9.55,4.55Z" style="fill:#6f4439"></path><path d="M335.89,292.93a1.07,1.07,0,0,1-1,1.12,1,1,0,0,1-1.14-.93,1.07,1.07,0,0,1,1-1.11A1,1,0,0,1,335.89,292.93Z" style="fill:#263238"></path><path d="M337.44,289.2c-.13.14-1-.43-2.11-.39s-2,.65-2.1.51.06-.31.42-.59a2.91,2.91,0,0,1,1.68-.58,2.73,2.73,0,0,1,1.68.48C337.38,288.88,337.5,289.13,337.44,289.2Z" style="fill:#263238"></path><path d="M325.53,293.1a1.08,1.08,0,0,1-1,1.12,1,1,0,0,1-1.13-.93,1.06,1.06,0,0,1,1-1.11A1,1,0,0,1,325.53,293.1Z" style="fill:#263238"></path><path d="M326.14,289.81c-.13.14-1-.43-2.11-.39s-2,.65-2.1.51.06-.31.42-.59a3,3,0,0,1,1.68-.59,2.87,2.87,0,0,1,1.68.48C326.07,289.49,326.2,289.74,326.14,289.81Z" style="fill:#263238"></path><path d="M330.61,298.19a8.38,8.38,0,0,1,1.86-.4c.29,0,.57-.11.61-.31a1.49,1.49,0,0,0-.23-.87l-.94-2.2a39.32,39.32,0,0,1-2.16-5.79,38.7,38.7,0,0,1,2.62,5.6l.91,2.22a1.69,1.69,0,0,1,.19,1.15.75.75,0,0,1-.47.45,1.91,1.91,0,0,1-.49.08A7,7,0,0,1,330.61,298.19Z" style="fill:#263238"></path><path d="M326.35,285.88c-.14.29-1.13,0-2.35,0s-2.23.24-2.35-.06c0-.15.15-.42.58-.66a3.6,3.6,0,0,1,1.81-.45,3.52,3.52,0,0,1,1.78.48C326.23,285.46,326.42,285.74,326.35,285.88Z" style="fill:#263238"></path><path d="M337.44,285.12c-.24.27-1.19,0-2.34.06s-2.1.25-2.33,0,0-.39.45-.66a3.78,3.78,0,0,1,1.89-.49,3.68,3.68,0,0,1,1.88.46C337.4,284.72,337.54,285,337.44,285.12Z" style="fill:#263238"></path><path d="M314.75,295.89a2,2,0,0,0-2.26-1.88c-1.39.18-2.92,1-2.73,3.91.35,5.11,5.41,3.71,5.41,3.56S314.91,298,314.75,295.89Z" style="fill:#ae7461"></path><path d="M313.93,299.63s-.09.07-.23.15a.91.91,0,0,1-.67.06,2.22,2.22,0,0,1-1.15-1.91,2.87,2.87,0,0,1,.16-1.29,1,1,0,0,1,.63-.73.45.45,0,0,1,.54.21c.08.14.05.24.08.25s.1-.09,0-.3a.62.62,0,0,0-.22-.31.72.72,0,0,0-.51-.1,1.25,1.25,0,0,0-.87.86,3,3,0,0,0-.22,1.44,2.33,2.33,0,0,0,1.45,2.12.94.94,0,0,0,.81-.19C313.93,299.76,313.94,299.64,313.93,299.63Z" style="fill:#6f4439"></path><path d="M334.3,275a2.47,2.47,0,0,0-.19-.36,3.33,3.33,0,0,0-2.6-1.36,13.37,13.37,0,0,0-1.82-.69,4.47,4.47,0,0,0-7.58-.06l-.62.13a4.56,4.56,0,0,0-6.85,2.2,3.3,3.3,0,0,0-3.56,4.93,3.15,3.15,0,0,0-1.64,2.56,1.83,1.83,0,0,0,1.92,1.8,68.23,68.23,0,0,0,.48,7.87c.16,1.79,2.48,2.78,2.68,4,1,6.18,2.92,2.68,3.25-10.2l.38-.34c.26-.25.32-.56.54-.85s.79-.25,1.22-.22a3.27,3.27,0,0,0,3.31-2.46,1.36,1.36,0,0,0,1.84.11,7.35,7.35,0,0,0,1.34-1.54,2.12,2.12,0,0,1,1.73-.94,5.52,5.52,0,0,0,1.12.21c.67-.09,1-.88,1.05-1.55a3.23,3.23,0,0,1,.46-1.63,3.89,3.89,0,0,1,1.29-.41c.26,0,.52.06.76.09h.37a3.89,3.89,0,0,1,.47.17c2.29,1,4.43,5.63,4.43,5.63A9,9,0,0,0,334.3,275Z" style="fill:#263238"></path><path d="M319,274.2l.06-.14a2.62,2.62,0,0,1,.21-.37,3.64,3.64,0,0,1,1.14-1.1,3.75,3.75,0,0,1,2.31-.57,4,4,0,0,1,2.64,1.34h-.15a6,6,0,0,1,1.18-1,4.45,4.45,0,0,1,3.42-.57,3.42,3.42,0,0,1,2.25,1.74,3,3,0,0,1,.29,1.9,2.17,2.17,0,0,1-.15.5l-.08.17a5.21,5.21,0,0,0,.15-.68,3.13,3.13,0,0,0-.35-1.83,3.28,3.28,0,0,0-2.15-1.61,4.26,4.26,0,0,0-3.27.56,5.47,5.47,0,0,0-1.14.92l-.08.09-.08-.09a3.82,3.82,0,0,0-2.5-1.29,3.6,3.6,0,0,0-2.22.51,3.86,3.86,0,0,0-1.15,1C319.06,274,319,274.21,319,274.2Z" style="fill:#fff"></path><path d="M310.42,280.07l.05-.08.15-.21a3.1,3.1,0,0,1,.78-.6,3.26,3.26,0,0,1,1.51-.38,3,3,0,0,1,1.92.64l-.14.05a4.12,4.12,0,0,1,2-2.64,5.23,5.23,0,0,1,1.82-.62,6.25,6.25,0,0,1,2,.07,10,10,0,0,1,3.49,1.5l-.15.05a4.53,4.53,0,0,1,2.22-2.5,4.39,4.39,0,0,1,2.62-.41,4.3,4.3,0,0,1,1.63.59,2.79,2.79,0,0,1,.38.27c.08.07.12.1.12.11s-.18-.13-.53-.32a4.49,4.49,0,0,0-1.62-.53,4.32,4.32,0,0,0-2.52.44,4.4,4.4,0,0,0-2.11,2.41l0,.12-.11-.07a10.24,10.24,0,0,0-3.42-1.45,5.84,5.84,0,0,0-1.95-.07,4.9,4.9,0,0,0-1.75.59,3.89,3.89,0,0,0-2,2.49l0,.14-.11-.09a2.87,2.87,0,0,0-1.81-.64,3.21,3.21,0,0,0-1.46.33A3.48,3.48,0,0,0,310.42,280.07Z" style="fill:#fff"></path><path d="M330.8,276.25s0,.07-.08.2a3.58,3.58,0,0,0-.17.6c-.06.27-.11.6-.19,1a3.24,3.24,0,0,1-.45,1.28,1.09,1.09,0,0,1-.71.41,3.62,3.62,0,0,1-.87,0,1.72,1.72,0,0,0-.87.1,2.14,2.14,0,0,0-.72.6c-.22.25-.42.53-.64.82a3.6,3.6,0,0,1-.74.84,2.42,2.42,0,0,1-1.11.42,2.16,2.16,0,0,1-.62,0,.86.86,0,0,1-.56-.36l.19,0a3.27,3.27,0,0,1-.32.87,2.83,2.83,0,0,1-.59.75,3.56,3.56,0,0,1-1.77.81,4.53,4.53,0,0,1-.82.06,1.64,1.64,0,0,0-.74,0,1,1,0,0,0-.54.45,5.68,5.68,0,0,1-.5.6,4,4,0,0,1-2.59,1.32A3.71,3.71,0,0,1,313,286a3.75,3.75,0,0,1-1.18-1.9l.09,0a2.05,2.05,0,0,1-1.68-.34,1.91,1.91,0,0,1-.71-1.09,1.86,1.86,0,0,1,0-.81l.05-.2,0-.07a2.31,2.31,0,0,0,0,1.06,1.8,1.8,0,0,0,.69,1,1.92,1.92,0,0,0,1.58.3l.07,0,0,.07a3.64,3.64,0,0,0,1.16,1.81,3.5,3.5,0,0,0,2.31.89,3.83,3.83,0,0,0,2.45-1.28,5.27,5.27,0,0,0,.49-.57,1.23,1.23,0,0,1,.63-.53,1.2,1.2,0,0,1,.42-.07l.4,0a3.94,3.94,0,0,0,.77-.06,3.33,3.33,0,0,0,1.67-.76,2.79,2.79,0,0,0,.55-.69,2.71,2.71,0,0,0,.29-.81l.06-.24.13.2a1,1,0,0,0,1,.29,2.25,2.25,0,0,0,1-.38,3.38,3.38,0,0,0,.7-.8c.22-.28.43-.56.65-.82a2.71,2.71,0,0,1,.79-.64,1.85,1.85,0,0,1,.95-.09,4.07,4.07,0,0,0,.84,0,.93.93,0,0,0,.62-.35,3.06,3.06,0,0,0,.46-1.22c.09-.38.15-.71.22-1a3.75,3.75,0,0,1,.21-.59A.93.93,0,0,1,330.8,276.25Z" style="fill:#455a64"></path><path d="M327.1,300.33a2.8,2.8,0,0,0,1.19,3.41,2,2,0,0,0,2.7-.93,3.67,3.67,0,0,0,.3-1.72C330.11,300.84,328.27,300.58,327.1,300.33Z" style="fill:#6f4439"></path><path d="M330.82,303.16a.87.87,0,0,1-.3.31,2.19,2.19,0,0,1-1.09.42,2.28,2.28,0,0,1-1.66-.5,2.65,2.65,0,0,1-1-1.88,3.53,3.53,0,0,1,.1-1.13l0-.09.09,0c1.21.21,2.26.41,3,.56a11.66,11.66,0,0,1,1.2.28A7.37,7.37,0,0,1,330,301c-.76-.12-1.82-.29-3-.5l.12-.08a3.41,3.41,0,0,0-.09,1.06,2.52,2.52,0,0,0,.9,1.75,2.15,2.15,0,0,0,1.53.5,2.31,2.31,0,0,0,1.06-.34C330.7,303.26,330.81,303.14,330.82,303.16Z" style="fill:#263238"></path></g><g id="freepik--character-2--inject-8"><rect x="289.72" y="175.19" width="165.97" height="66.77" rx="10.02" style="fill:#fff"></rect><path d="M445.68,242l.29,0c.2,0,.49,0,.86-.07a10.34,10.34,0,0,0,3.23-1,10,10,0,0,0,4-3.63,9.69,9.69,0,0,0,1.31-3.22,18.9,18.9,0,0,0,.22-4c0-5.68,0-12.61-.05-20.67q0-6,0-12.9c0-2.29,0-4.63,0-7.05v-3.66a11.07,11.07,0,0,0-.5-3.65,9.83,9.83,0,0,0-8.61-6.71c-1.33-.07-2.72,0-4.1,0l-17.25,0-38.07,0-87.24,0a9.74,9.74,0,0,0-8.91,5.78,9.69,9.69,0,0,0-.76,2.67,23.69,23.69,0,0,0-.1,2.81v38.78c0,1.79,0,3.57,0,5.35a11.15,11.15,0,0,0,.85,5.07,9.79,9.79,0,0,0,7.82,5.74c.83.08,1.68.07,2.54.07h7.61l71.25.06,48,.08,13.06,0,3.4,0,1.15,0-1.15,0-3.4,0-13.06.05-48,.08-71.25.06h-7.61a25.07,25.07,0,0,1-2.59-.06,10.33,10.33,0,0,1-8.23-6,11.78,11.78,0,0,1-.89-5.27V214.65q0-11,0-22.26v-5.68a21.59,21.59,0,0,1,.11-2.88,9.9,9.9,0,0,1,.79-2.81,10.31,10.31,0,0,1,9.39-6.09L387,175l38.07,0,17.25,0c1.39,0,2.74,0,4.12,0a10.18,10.18,0,0,1,8.94,7,11.54,11.54,0,0,1,.51,3.76c0,1.24,0,2.46,0,3.66,0,2.42,0,4.76,0,7.05q0,6.85,0,12.9c0,8.06,0,15,0,20.67a18.61,18.61,0,0,1-.24,4,9.56,9.56,0,0,1-1.36,3.27,9.94,9.94,0,0,1-4.1,3.64,10.12,10.12,0,0,1-3.26.94C446.08,242,445.68,242,445.68,242Z" style="fill:#263238"></path><path d="M432.57,222.92h0a11.29,11.29,0,0,1-10.44-12.06h0a11.28,11.28,0,0,1,12.06-10.43h0a11.27,11.27,0,0,1,10.43,12h0A11.27,11.27,0,0,1,432.57,222.92Z" style="fill:#407BFF"></path><polygon points="432.69 217.6 425.93 212.34 427.76 209.97 432.3 213.5 438.79 206.09 441.04 208.06 432.69 217.6" style="fill:#fff"></polygon><rect x="358.14" y="206.47" width="55.99" height="13.58" rx="6.79" style="fill:#e0e0e0"></rect><circle cx="326.36" cy="209.45" r="25.47" transform="translate(-59.89 243.96) rotate(-37.8)" style="fill:#fff"></circle><path d="M303.74,220.86s.08.11.22.35l.61,1.06.44.77c.18.28.4.57.62.89a19.55,19.55,0,0,0,1.64,2.14,24.5,24.5,0,0,0,5.55,4.83,25.58,25.58,0,0,0,20.72,3.15,23.66,23.66,0,0,0,3-1.09c.5-.22,1-.42,1.52-.67l1.47-.82c.25-.15.5-.27.74-.43l.7-.49c.47-.34,1-.65,1.42-1a27.77,27.77,0,0,0,2.6-2.39,27.29,27.29,0,0,0,2.33-2.77c.35-.5.67-1,1-1.55a12.35,12.35,0,0,0,.91-1.63,27.55,27.55,0,0,0,1.51-3.47,29.35,29.35,0,0,0,.93-3.75,24.75,24.75,0,0,0,.17-7.88,25.23,25.23,0,0,0-7.09-14.4l-1.45-1.39-1.56-1.22a6.25,6.25,0,0,0-.81-.57l-.83-.53-.83-.53-.87-.44a28.28,28.28,0,0,0-3.54-1.54,28.6,28.6,0,0,0-3.67-.93,13.1,13.1,0,0,0-1.85-.27c-.61-.05-1.22-.13-1.84-.15a27.19,27.19,0,0,0-3.62.15,28.42,28.42,0,0,0-3.48.61c-.56.15-1.11.34-1.66.51l-.82.25c-.27.09-.52.22-.78.33l-1.55.67c-.51.23-1,.53-1.46.78a24.51,24.51,0,0,0-2.73,1.76,25.64,25.64,0,0,0-10.14,18.35,24.51,24.51,0,0,0,.46,7.34,18,18,0,0,0,.68,2.6c.12.38.22.73.33,1l.35.83.46,1.13c.1.25.15.39.15.39s-.07-.13-.18-.38-.29-.63-.5-1.11c-.11-.25-.23-.52-.37-.82s-.22-.66-.34-1a19.1,19.1,0,0,1-.73-2.61,24.31,24.31,0,0,1-.51-7.39,25.69,25.69,0,0,1,10.16-18.58,23.54,23.54,0,0,1,2.75-1.78c.49-.27,1-.56,1.48-.81l1.56-.67c.27-.11.53-.24.8-.34l.83-.26c.56-.17,1.11-.37,1.68-.52a28.9,28.9,0,0,1,3.53-.62,26.25,26.25,0,0,1,3.67-.16c.62,0,1.24.1,1.86.15a13.16,13.16,0,0,1,1.87.27,29.46,29.46,0,0,1,3.73.93,29.82,29.82,0,0,1,3.59,1.57l.88.45.84.53.84.53a6,6,0,0,1,.82.58l1.59,1.25,1.48,1.4a25.48,25.48,0,0,1,7.18,14.61,24.64,24.64,0,0,1-.17,8,28.53,28.53,0,0,1-.95,3.8,29.92,29.92,0,0,1-1.53,3.52,12.59,12.59,0,0,1-.93,1.64c-.34.53-.66,1.07-1,1.57a25.79,25.79,0,0,1-2.36,2.81,27.43,27.43,0,0,1-2.65,2.42c-.46.36-1,.68-1.43,1l-.71.5c-.24.16-.5.28-.75.43l-1.5.83c-.5.25-1,.45-1.53.68a24.74,24.74,0,0,1-3.09,1.09,25.76,25.76,0,0,1-20.92-3.27,24.23,24.23,0,0,1-5.55-4.92,18.12,18.12,0,0,1-1.62-2.17c-.22-.32-.44-.61-.61-.9l-.43-.79-.58-1.07Z" style="fill:#263238"></path><path d="M307.27,226.07l9.78-3.42,15.6-.6L347,224.81s-7,10.83-19.88,10.46A27.55,27.55,0,0,1,307.27,226.07Z" style="fill:#407BFF"></path><path d="M336.89,187.12c3.29.07,6.11,5,5.62,7.72-.24,1.34-.85,2.87.23,3.87s3.33.9,4.35,1.91a4.21,4.21,0,0,1,1.16,3c-.14,1.69.13,3.94,1.47,4.54L343,210.54c-.69-.7-1-1.8-1.65-2.5.79.73,1.55,3.34-2,3.63l-2.22-2c-6.08,1.56-12.47,3.5-17.32.85" style="fill:#263238"></path><path d="M305.91,201.74a39.72,39.72,0,0,0,1.47-3.74c.65-2.8-.66-6,.75-8.5,1-1.79,3.1-2.63,5.07-3.2s3.85-.9,5.34-2.31c1.09-1,1.72-2.47,2.81-3.51a9,9,0,0,1,5.95-2,12.9,12.9,0,0,1,6.41,1.17,7,7,0,0,1,3.87,5,21.16,21.16,0,0,0,.32,3.2,21.69,21.69,0,0,0,1.73,3.07,5.64,5.64,0,0,1-1.54,6.73l-15.44,19.18c-3.18,1.14-6.65-2.92-9-5.3S304.8,204.93,305.91,201.74Z" style="fill:#263238"></path><path d="M337.74,195.16c-.54-4.43-3.8-9.71-8.2-9l-13.63,4.3c-1.34.22-2.06,1.29-2.52,1.09l4,31.71,9.36,6.62,5.81-7s-.43-4.35-.43-4.33,5.63-1.27,6.38-8.75C338.87,206.12,338.34,200.09,337.74,195.16Z" style="fill:#ffbf9d"></path><path d="M325.8,201.91a.94.94,0,0,1-.86,1,.91.91,0,0,1-1-.8,1,1,0,0,1,.86-1A.91.91,0,0,1,325.8,201.91Z" style="fill:#263238"></path><path d="M335.19,201.43a1,1,0,0,1-.86,1,.92.92,0,0,1-1-.8,1,1,0,0,1,.86-1A.9.9,0,0,1,335.19,201.43Z" style="fill:#263238"></path><path d="M336.86,198.55c-.1.17-1-.4-2.08-.26s-1.84.88-2,.74,0-.36.34-.7a2.47,2.47,0,0,1,1.55-.79,2.55,2.55,0,0,1,1.69.4C336.76,198.2,336.92,198.47,336.86,198.55Z" style="fill:#263238"></path><path d="M326.72,199.48c-.13.15-1-.49-2.18-.46s-2,.68-2.18.53.07-.35.44-.66a2.91,2.91,0,0,1,1.74-.61,2.7,2.7,0,0,1,1.74.56C326.66,199.13,326.79,199.41,326.72,199.48Z" style="fill:#263238"></path><path d="M330.72,206.53a6.41,6.41,0,0,1,1.64-.4c.26,0,.51-.11.54-.29a1.35,1.35,0,0,0-.22-.76l-.89-2a34.91,34.91,0,0,1-2-5.1A35.2,35.2,0,0,1,332.2,203c.3.68.58,1.33.85,2a1.47,1.47,0,0,1,.2,1,.64.64,0,0,1-.41.41,2,2,0,0,1-.44.09A7.56,7.56,0,0,1,330.72,206.53Z" style="fill:#263238"></path><path d="M332.12,218.59A18.91,18.91,0,0,1,322,216.52s2.81,5.28,10.19,4.16Z" style="fill:#ff9a6c"></path><path d="M330.43,209a1.83,1.83,0,0,0-1.69-.59,1.65,1.65,0,0,0-1.13.69,1.05,1.05,0,0,0,0,1.22,1.22,1.22,0,0,0,1.36.26,3.79,3.79,0,0,0,1.26-.85,1.19,1.19,0,0,0,.28-.32.35.35,0,0,0,0-.38" style="fill:#407BFF"></path><path d="M327.75,207.41c.16,0,.23,1.09,1.23,1.82s2.17.55,2.18.7-.25.23-.74.27a2.75,2.75,0,0,1-1.83-.52,2.43,2.43,0,0,1-1-1.53C327.56,207.69,327.67,207.41,327.75,207.41Z" style="fill:#263238"></path><path d="M326.69,196c-.08.29-1.11.22-2.3.43s-2.15.6-2.32.36.07-.39.45-.68a4,4,0,0,1,1.69-.71,3.93,3.93,0,0,1,1.83.11C326.49,195.65,326.73,195.86,326.69,196Z" style="fill:#263238"></path><path d="M336.55,194.86c-.19.24-1,0-2,.09s-1.78.26-2,0,0-.35.37-.59a3,3,0,0,1,1.59-.48,3,3,0,0,1,1.6.38C336.51,194.51,336.63,194.74,336.55,194.86Z" style="fill:#263238"></path><path d="M301.53,200.31c.7-1.29-.65-2.73.43-3.93s3.56-1.12,4.48-2.23a2.37,2.37,0,0,0,.78-1.91c0-1,.49-5.29,6.73-6.15l.87,3.88c.39-.18.79-.34,1.19-.48a68.28,68.28,0,0,1,15.77-3.7,2.77,2.77,0,0,1-1,3.38,12.13,12.13,0,0,1-3.54,1.51,4.81,4.81,0,0,0-3,2.28c-.55,1.25-.14,2.75-.62,4-.84,2.21-3.95,2.86-4.78,5.07-.63,1.67,1,3.58,1.24,5.35.24,2,.65,5.11-.84,6.47a37.68,37.68,0,0,1-3.5,2.64l-18.42-11.58C296.35,202.6,300.57,202.08,301.53,200.31Z" style="fill:#263238"></path><path d="M314.61,214.56a5.38,5.38,0,0,0,1.43-.49,7.23,7.23,0,0,0,3.67-8.77c-.17-.55-.38-1.11-.52-1.68a4,4,0,0,1-.05-1.78,2.25,2.25,0,0,1,1.05-1.42,12.06,12.06,0,0,1,1.79-.77,3.76,3.76,0,0,0,1.69-1.08,3.28,3.28,0,0,0,.64-1.85c.1-1.26-.12-2.5.31-3.55l.08-.19.1-.18a2.52,2.52,0,0,1,.24-.33,2.71,2.71,0,0,1,.61-.51,5.72,5.72,0,0,1,1.43-.6,10,10,0,0,0,2.69-1,5.74,5.74,0,0,0,1.71-1.64,5.67,5.67,0,0,0,.77-1.61,5.28,5.28,0,0,0,.21-1.11,1.91,1.91,0,0,0,0-.39,8.4,8.4,0,0,1-.3,1.47,5.76,5.76,0,0,1-.79,1.57,5.86,5.86,0,0,1-1.69,1.57,10.3,10.3,0,0,1-2.65.95,5.93,5.93,0,0,0-1.49.61,2.69,2.69,0,0,0-.66.55,1.83,1.83,0,0,0-.26.36l-.12.19-.09.21c-.46,1.13-.23,2.39-.34,3.61a3.11,3.11,0,0,1-.58,1.72,3.66,3.66,0,0,1-1.59,1,10.21,10.21,0,0,0-1.83.79,2.36,2.36,0,0,0-1.16,1.57,4.1,4.1,0,0,0,.06,1.88c.14.6.36,1.15.53,1.7a7.2,7.2,0,0,1-.57,5.84A7.27,7.27,0,0,1,316,214a9.12,9.12,0,0,1-1,.44Z" style="fill:#263238"></path><path d="M336.15,187.49a9.12,9.12,0,0,1,1.13-.21,5.38,5.38,0,0,1,3,.6,5.31,5.31,0,0,1,2.65,3.56,9.7,9.7,0,0,1,.1,2.71c0,.47-.09.95-.14,1.45a5.28,5.28,0,0,0,.06,1.53,1.83,1.83,0,0,0,.89,1.27,3.24,3.24,0,0,0,1.48.27,5.11,5.11,0,0,1,1.37.11,3.33,3.33,0,0,1,1.16.58,3.24,3.24,0,0,1,1.25,2,7,7,0,0,1,0,2.14,13.72,13.72,0,0,0-.18,1.79,4.72,4.72,0,0,0,.17,1.35,2.56,2.56,0,0,0,.36.79,1.77,1.77,0,0,0,.13.17l.06.06a3.87,3.87,0,0,1-.46-1,4.43,4.43,0,0,1-.12-1.33,16.53,16.53,0,0,1,.2-1.77,6.9,6.9,0,0,0,.05-2.19,3.44,3.44,0,0,0-1.32-2.14,3.53,3.53,0,0,0-1.24-.62,5.22,5.22,0,0,0-1.42-.13,2.94,2.94,0,0,1-1.36-.24,1.53,1.53,0,0,1-.77-1.12,11.26,11.26,0,0,1,.07-2.9,9.16,9.16,0,0,0-.12-2.78,5.41,5.41,0,0,0-2.78-3.66,5.34,5.34,0,0,0-3.09-.54,4.47,4.47,0,0,0-.84.19C336.24,187.44,336.14,187.48,336.15,187.49Z" style="fill:#263238"></path><path d="M305.12,209.63s0,0,0-.11a2.74,2.74,0,0,1-.11-.34,2.92,2.92,0,0,1-.06-1.34,3.42,3.42,0,0,1,1-1.86,2.91,2.91,0,0,1,1.16-.64c.46-.12,1-.17,1.48-.34a2.1,2.1,0,0,0,.72-.42,2,2,0,0,0,.48-.73A4.37,4.37,0,0,0,310,202a10.25,10.25,0,0,1,0-1.92,2.49,2.49,0,0,1,.31-.93,2.32,2.32,0,0,1,.71-.72,6.51,6.51,0,0,1,2-.71,6.63,6.63,0,0,0,2.13-.79,2.57,2.57,0,0,0,.81-.86,3.79,3.79,0,0,0,.39-1.13c.15-.79.15-1.6.3-2.39a4.65,4.65,0,0,1,2.89-3.42,8.16,8.16,0,0,1,2.19-.36,5,5,0,0,0,1.09-.21,2.23,2.23,0,0,0,.94-.55,4.69,4.69,0,0,0,.93-1.85,4.7,4.7,0,0,1,1-1.64,4.87,4.87,0,0,1,3-1.53,4.38,4.38,0,0,1,2.73.59,5,5,0,0,1,1.56,1.46,4.72,4.72,0,0,1,.6,1.21,2.24,2.24,0,0,1,.1.35c0,.07,0,.11,0,.11a3.17,3.17,0,0,0-.11-.46A4.24,4.24,0,0,0,333,185a5.14,5.14,0,0,0-1.57-1.49,4.48,4.48,0,0,0-2.79-.63,5,5,0,0,0-3.08,1.56,4.85,4.85,0,0,0-1,1.68,4.73,4.73,0,0,1-.9,1.79,3,3,0,0,1-1.95.71,8.48,8.48,0,0,0-2.24.38,4.73,4.73,0,0,0-3,3.52c-.16.81-.16,1.62-.3,2.39a3.56,3.56,0,0,1-.38,1.08,2.49,2.49,0,0,1-.76.82c-1.28.82-2.9.72-4.13,1.51a2.24,2.24,0,0,0-.74.76,2.48,2.48,0,0,0-.33,1,9.72,9.72,0,0,0,0,2,4.44,4.44,0,0,1-.2,1.76,2.17,2.17,0,0,1-.45.69,2.14,2.14,0,0,1-.68.4c-.5.17-1,.22-1.48.35a3,3,0,0,0-1.18.67,3.35,3.35,0,0,0-1,1.91,2.83,2.83,0,0,0,.08,1.36,2.24,2.24,0,0,0,.13.34Z" style="fill:#455a64"></path></g><g id="freepik--character-1--inject-8"><circle cx="168.08" cy="218.94" r="70.23" transform="translate(-30.91 27.66) rotate(-8.62)" style="fill:#f5f5f5"></circle><path d="M228.93,205.37l.81,29.91-10.67-16.43-25-.24,5.58,9.9c5.84,8.66,9.38,15.94,17.05,24.24,3.83,4.15,7.39,9.93,9.13,11.14,4.16,2.92,10.41,5.26,15.84.56,7.58-6.56,6.68-19.18,4.29-32.07-2.66-14.31-4.05-28.11-4.05-28.11Z" style="fill:#ffbf9d"></path><path d="M231.89,187.27s-2.31-4.45-4.14-4-4.3,2-4.6,3.53.1,2.84.79,2.78a11.21,11.21,0,0,0,2.71-1.39l2.34,3.29-1,4.16-2.43,1.25-1.4-2.9.57-3.29s-1.66-1.4-2.58,1.23-2,7.36.66,9.65a78.87,78.87,0,0,0,7.64,5.39l12-1,2.87-14.09S250,187,250.31,185s.57-8,.57-8a1.44,1.44,0,0,0-2.26.61c-.83,1.68-1.63,6.56-1.63,6.56L243,188l1.57-17.25s-2.4-1.56-3.38,2.32-2.06,13.46-2.55,13.46-1.94,0-1.73-2-.44-17.38-.44-17.38-3.46.76-3.24,4,.08,13.41,0,14.18S231.89,187.27,231.89,187.27Z" style="fill:#ffbf9d"></path><path d="M231.88,250a36.25,36.25,0,0,1-1.47-7.32,38.49,38.49,0,0,1-.55-7.51c.17,0,.55,3.31,1.11,7.4A72.77,72.77,0,0,1,231.88,250Z" style="fill:#ff9a6c"></path><path d="M235.26,202c-.09,0-.26-.48-.68-1.19a8,8,0,0,0-5.05-3.67c-.81-.18-1.34-.19-1.34-.28s.52-.2,1.4-.12a6.81,6.81,0,0,1,5.35,3.88A2.46,2.46,0,0,1,235.26,202Z" style="fill:#ff9a6c"></path><polygon points="142.35 202.54 158.44 200.9 185.79 202.1 198.24 206.39 180.92 223.94 158.02 221.09 147.76 215.26 142.35 202.54" style="fill:#ffbf9d"></polygon><path d="M178.48,134.36c2.82-1.79,3.5-5.94,2-8.91s-4.77-4.77-8.06-5.3a15.34,15.34,0,0,0-13.24,4.39c-1.82,1.87-3.3,4.31-5.76,5.17-2.17.76-4.57.08-6.85.37a10.36,10.36,0,0,0-7.23,5.22,22.35,22.35,0,0,0-2.57,8.79c-.33,2.81-.55,5.89-2.5,7.93s-4.89,2.42-7.25,3.84A9.94,9.94,0,0,0,124,169.43c.93,1.36,2.27,2.61,2.38,4.26.1,1.5-.87,2.84-1.33,4.28a6.7,6.7,0,0,0,5.74,8.32c2,.12,4-.65,5.81.23s2.39,3,3.5,4.57a8.4,8.4,0,0,0,10.22,2.64c1.44-.71,2.8-1.88,4.4-1.77s2.86,1.47,4.43,1.78c2.06.39,4-1.12,5.23-2.82s2.08-3.71,3.64-5.1c2.05-1.82,4.93-2.27,7.52-3.17a21.22,21.22,0,0,0,12-29.72" style="fill:#263238"></path><path d="M148.66,171.22a5.75,5.75,0,0,0-2.29-1.5h.17a2.65,2.65,0,0,0-.49-.09,2.29,2.29,0,0,0-1.78.22h0a4.21,4.21,0,0,0-2.31,2,5,5,0,0,0,.59,5.16,3.83,3.83,0,0,0,7-1.32A4.76,4.76,0,0,0,148.66,171.22Z" style="fill:#455a64"></path><path d="M185.79,202.1l3-55a4.66,4.66,0,0,0-4-4.85l-24.58-7c-7.91-1.07-13.46,8.55-14.18,16.49-.81,8.83-1.45,19.64-.59,26.26C147.12,191.38,158,193.4,158,193.4s.08,13.57,0,18.39l8.18,17.71Z" style="fill:#ffbf9d"></path><path d="M151,161.79a1.7,1.7,0,0,0,1.6,1.76,1.61,1.61,0,0,0,1.79-1.48,1.7,1.7,0,0,0-1.59-1.77A1.64,1.64,0,0,0,151,161.79Z" style="fill:#263238"></path><path d="M148.23,156.59c.2.23,1.52-.69,3.35-.63s3.14,1,3.35.79-.1-.5-.68-.95a4.67,4.67,0,0,0-2.67-.91,4.52,4.52,0,0,0-2.68.79C148.33,156.09,148.12,156.49,148.23,156.59Z" style="fill:#263238"></path><path d="M167.44,162.22A1.69,1.69,0,0,0,169,164a1.61,1.61,0,0,0,1.79-1.48,1.69,1.69,0,0,0-1.59-1.76A1.61,1.61,0,0,0,167.44,162.22Z" style="fill:#263238"></path><path d="M166.21,157.44c.21.23,1.52-.69,3.35-.63s3.15,1,3.35.79-.1-.5-.67-.94a4.58,4.58,0,0,0-2.68-.91,4.39,4.39,0,0,0-2.67.78C166.31,156.94,166.11,157.34,166.21,157.44Z" style="fill:#263238"></path><path d="M159.18,170.83a12.51,12.51,0,0,0-3-.62c-.46-.06-.9-.17-1-.49a2.41,2.41,0,0,1,.35-1.38c.47-1.11,1-2.29,1.48-3.52,2.07-5,3.58-9.14,3.37-9.22s-2,3.92-4.1,8.93c-.5,1.24-1,2.42-1.43,3.54a2.72,2.72,0,0,0-.29,1.83,1.15,1.15,0,0,0,.75.71,3.16,3.16,0,0,0,.79.13A12.28,12.28,0,0,0,159.18,170.83Z" style="fill:#263238"></path><path d="M158.1,193.35a31.85,31.85,0,0,0,17.1-4.27s-3.84,9.87-17.08,8.25Z" style="fill:#ff9a6c"></path><path d="M159.33,175.19a4.5,4.5,0,0,1,3.76-1.86,2.93,2.93,0,0,1,2.38,1.38,2.69,2.69,0,0,1-3.13,3.94,6.69,6.69,0,0,1-2.65-1.74,2.15,2.15,0,0,1-.56-.71.92.92,0,0,1,.1-.92" style="fill:#ff9a6c"></path><path d="M164.53,172.25c-.29,0-.35,2-2.09,3.32s-3.85,1.09-3.88,1.36.46.4,1.36.45a5,5,0,0,0,3.23-1,4.33,4.33,0,0,0,1.63-2.79C164.88,172.74,164.67,172.24,164.53,172.25Z" style="fill:#263238"></path><path d="M165.62,149.88c.16.5,2,.32,4.14.64s3.86.95,4.16.52c.13-.21-.16-.69-.84-1.19a7,7,0,0,0-3.07-1.17,6.87,6.87,0,0,0-3.26.29C166,149.26,165.55,149.64,165.62,149.88Z" style="fill:#263238"></path><path d="M149.05,150.31c.31.42,1.58,0,3.1.05s2.79.36,3.1-.07c.14-.21-.05-.63-.6-1a4.32,4.32,0,0,0-2.5-.75,4.27,4.27,0,0,0-2.5.76C149.1,149.68,148.91,150.1,149.05,150.31Z" style="fill:#263238"></path><path d="M137.1,148.11a9,9,0,0,1,3.49-5,32.14,32.14,0,0,0,3-1.72c1.91-1.55,2.36-4.24,3.54-6.4a10,10,0,0,1,7.63-5.07c2.63-.27,5.34.52,7.9-.12,1.9-.48,3.55-1.71,5.47-2.07,3.74-.71,7.21,2,9.92,4.64,0,2.67-2.12,4.46-4.17,6.18a9.3,9.3,0,0,1-7.51,2c-2-.37-4.28-1.4-6.05-.32s-1.93,3.95-3.58,5.38c-2.36,2-6.1.13-9.09,1-2.31.69-3.75,2.9-5.29,4.75s-3.83,3.63-6.14,2.94A27.13,27.13,0,0,1,137.1,148.11Z" style="fill:#263238"></path><path d="M165.15,136.8c1.68-.48,5.11-1.56,6-3,2-3.15,5.39-5.31,8.9-5.12a8.46,8.46,0,0,1,7.61,6.68,12.17,12.17,0,0,1,10.45,6.73,13.51,13.51,0,0,1,.66,1.56,9.22,9.22,0,0,1,.62,7.76c-.58,1.51-1.57,3.2-.79,4.62s2.8,1.49,4.36,2a6.12,6.12,0,0,1,3.86,6.85,7.78,7.78,0,0,0-.49,3,6.6,6.6,0,0,0,1.81,2.61A7.65,7.65,0,0,1,203.67,183c-1.19.21-2.48.16-3.51.8-1.19.73-1.7,2.15-2.54,3.26a6.6,6.6,0,0,1-7.14,2.24,6.47,6.47,0,0,1-1.44-.72,4.73,4.73,0,0,1-4.19,1.85l.49-28a2.31,2.31,0,0,1-1.69,1.33c-4.49,1-5.15-8.24-4.15-10.74a26.61,26.61,0,0,1-4.5-4.74c-1.24-1.83-2.33-6.83-2.07-9.08C171.31,139.29,164.42,137,165.15,136.8Z" style="fill:#263238"></path><path d="M184.11,164.7c.14-2.85,3.62-3.46,6.08-2,1.35.78,2.39,2.35,2.26,5.37-.33,8.05-8.34,6.06-8.34,5.83S183.94,168,184.11,164.7Z" style="fill:#ffbf9d"></path><path d="M186.69,170.92s.14.1.37.22a1.38,1.38,0,0,0,1.05.07c.86-.28,1.63-1.6,1.73-3.05a4.62,4.62,0,0,0-.31-2,1.6,1.6,0,0,0-1-1.11.69.69,0,0,0-.84.35c-.12.22-.08.38-.12.39s-.17-.14-.09-.47a.85.85,0,0,1,.34-.49,1.08,1.08,0,0,1,.78-.18,2,2,0,0,1,1.42,1.31,4.77,4.77,0,0,1,.39,2.27c-.12,1.62-1,3.1-2.19,3.39a1.51,1.51,0,0,1-1.27-.27C186.7,171.11,186.66,170.93,186.69,170.92Z" style="fill:#ff9a6c"></path><path d="M176.24,134.63a4.7,4.7,0,0,1,1.6,1.34c.8,1.1,1.1,3.2.6,5.57l-.05.2.2,0a7.82,7.82,0,0,1,5.19,4.57,6.18,6.18,0,0,1,.41,2,11.53,11.53,0,0,1-.25,2.13,15.06,15.06,0,0,0-.3,2.29,3.78,3.78,0,0,0,.63,2.38,9.78,9.78,0,0,0,4,3,13.39,13.39,0,0,1,3.73,2.44,10.07,10.07,0,0,1,3,6.75,10.41,10.41,0,0,1-1.06,5c-.53,1.1-1,1.63-.94,1.66s.13-.11.35-.36a8.86,8.86,0,0,0,.79-1.2,10.22,10.22,0,0,0-1.78-12.19,14,14,0,0,0-3.85-2.57,9.43,9.43,0,0,1-3.77-2.81c-.89-1.23-.49-2.82-.26-4.26a12,12,0,0,0,.25-2.24,6.61,6.61,0,0,0-.47-2.15,8.18,8.18,0,0,0-5.58-4.78l.16.25c.47-2.48.09-4.65-.82-5.8a3.39,3.39,0,0,0-1.26-1A1.87,1.87,0,0,0,176.24,134.63Z" style="fill:#455a64"></path><path d="M189.7,173.93a5.75,5.75,0,0,0-2.29-1.5h.17a2.65,2.65,0,0,0-.49-.09,2.29,2.29,0,0,0-1.78.22h0a4.21,4.21,0,0,0-2.31,2,5,5,0,0,0,.59,5.16,3.83,3.83,0,0,0,7-1.32A4.76,4.76,0,0,0,189.7,173.93Z" style="fill:#455a64"></path><path d="M204.86,278l.15-33.83,3.15,6.25,19.68-19.56s-9.52-17.32-13.93-20.67-21.63-6.84-22.74-7.5c0,0-4.46,7.52-18.36,11.69s-25.56-13.77-25.56-13.77l-15.81.7s-1.34,23.74-1.58,40c-.08,4.78.2,8.95.32,11.63.53,11.81,12.43,32.11,12.43,32.11s16.9,6,34.78,3.81S204.86,278,204.86,278Z" style="fill:#455a64"></path><path d="M131.44,201.29C123.19,203,115.81,213.4,107,233.74L131,251.68Z" style="fill:#455a64"></path><path d="M206.05,223.44a3.84,3.84,0,0,1,.15,1.06c.06.69.11,1.68.15,2.91.08,2.47.07,5.87-.16,9.63s-.62,7.13-1,9.57c-.19,1.22-.36,2.2-.5,2.87a3.61,3.61,0,0,1-.28,1,32.18,32.18,0,0,1,.36-4c.27-2.44.6-5.81.83-9.55s.3-7.13.33-9.58A31,31,0,0,1,206.05,223.44Z" style="fill:#263238"></path><path d="M132.19,218.14a6.23,6.23,0,0,1-.12,1.33c-.14,1-.32,2.17-.52,3.58-.44,3-1,7.2-1.38,11.83a106.22,106.22,0,0,0-.22,11.9c.07,1.43.13,2.63.17,3.61a6.19,6.19,0,0,1,0,1.33,5.29,5.29,0,0,1-.24-1.31c-.12-.85-.24-2.08-.36-3.61a83.69,83.69,0,0,1,0-12A113.89,113.89,0,0,1,131.13,223c.28-1.5.52-2.72.71-3.55A4.75,4.75,0,0,1,132.19,218.14Z" style="fill:#263238"></path><path d="M169.85,230.53l.8,32.3a3,3,0,0,1-2.91,3.05l-13.61.32a3,3,0,0,1-3-2.78l-2.2-32a3,3,0,0,1,2.85-3.18l15-.67A3,3,0,0,1,169.85,230.53Z" style="fill:#263238"></path><path d="M158,234.2a1.26,1.26,0,1,0,1.2-1.31A1.26,1.26,0,0,0,158,234.2Z" style="fill:#fff"></path><path d="M149.55,238.84s-3.69,4.79-5,6.9-1.56,8.79-1.56,8.79l0,4.65-7.37,3.27,5.69,15.87,11.18-9.67,11.29-2.12s5.21-5.36,6-7.76a11.12,11.12,0,0,0,.63-4.23,80.18,80.18,0,0,0,2.74-7.61,28.59,28.59,0,0,0,.27-5.45s-1.45-.35-2.58,2.06l1.77-4.08s-1.16-3-3.69.06-6.71,8.3-6.71,8.3L157.42,252l-.65-.69s8.43-11.25,8.14-13.19-2.14-1.95-4,.18-9.38,12.73-10.4,12.88-1.39-1.27-1.39-1.27l.54-3.93.37-.83Z" style="fill:#ffbf9d"></path><path d="M164.08,254.42a1.94,1.94,0,0,0,.34-.4c.21-.27.5-.66.85-1.15.7-1,1.64-2.36,2.61-3.92s1.78-3,2.35-4.09c.28-.53.5-1,.64-1.27a2.66,2.66,0,0,0,.21-.48,1.81,1.81,0,0,0-.29.44l-.71,1.23c-.61,1-1.45,2.48-2.41,4s-1.88,3-2.54,4c-.31.47-.57.87-.79,1.19A2.6,2.6,0,0,0,164.08,254.42Z" style="fill:#ff9a6c"></path><path d="M166.71,259.44a35,35,0,0,0,2.28-3.25,33,33,0,0,0,2.07-3.39,35,35,0,0,0-2.28,3.25A31.77,31.77,0,0,0,166.71,259.44Z" style="fill:#ff9a6c"></path><path d="M110.4,236.31s-12.47,32.67-13.05,44c-.54,10.3,8.38,16.52,15.1,15.54,15.8-2.29,40.06-27.16,40.06-27.16L143.39,259l-21.31,9.55L128.7,250Z" style="fill:#ffbf9d"></path><g style="opacity:0.30000000000000004"><path d="M227.5,267.1c2.65-6.46.67-14.27-4-19.4s-11.77-7.75-18.74-8a33.52,33.52,0,0,0-30.66,49.44,28.2,28.2,0,0,0,9.85-2.42C188.11,284.58,227.5,267.1,227.5,267.1Z"></path></g><circle cx="202.83" cy="272.23" r="26.59" transform="translate(-110.78 142.24) rotate(-30.8)" style="fill:#407BFF"></circle><polygon points="200.93 284.61 187.14 273.05 191.18 268.24 200.42 275.99 214.6 260.92 219.18 265.22 200.93 284.61" style="fill:#fff"></polygon></g></svg>
