<svg class="svg-icon" style="width: 1em; height: 1em;vertical-align: middle;fill: currentColor;overflow: hidden;" viewBox="0 0 1024 1024" version="1.1" xmlns="http://www.w3.org/2000/svg"><path d="M941.719269 230.141055C941.719269 205.299255 921.602814 185.182797 896.761012 185.182797L127.54276 185.182797C102.700959 185.182797 82.584501 205.299255 82.584501 230.141055L82.584501 907.282633C82.584501 932.124434 102.700959 952.240894 127.54276 952.240894L896.761012 952.240894C921.602814 952.240894 941.719269 932.124434 941.719269 907.282633L941.719269 230.141055 941.719269 230.141055ZM1003.08122 907.282633C1003.08122 966.011892 955.490267 1013.602841 896.761012 1013.602841L127.54276 1013.602841C68.813503 1013.602841 21.222554 966.011892 21.222554 907.282633L21.222554 230.141055C21.222554 171.411799 68.813503 123.82085 127.54276 123.82085L896.761012 123.82085C955.490267 123.82085 1003.08122 171.411799 1003.08122 230.141055L1003.08122 907.282633 1003.08122 907.282633ZM236.023122 292.583081C219.079395 292.583081 205.308396 278.812083 205.308396 261.868355L205.308396 31.744176C205.308396 14.800448 219.079395 1.02945 236.023122 1.02945 252.966851 1.02945 266.737849 14.800448 266.737849 31.744176L266.737849 261.868355C266.670344 278.812083 252.966851 292.583081 236.023122 292.583081M772.957041 292.583081C756.01331 292.583081 742.242312 278.812083 742.242312 261.868355L742.242312 31.744176C742.242312 14.800448 756.01331 1.02945 772.957041 1.02945 789.900767 1.02945 803.604259 14.800448 803.604259 31.744176L803.604259 261.868355C803.671765 278.812083 789.900767 292.583081 772.957041 292.583081M969.261269 358.602866 48.76455 358.602866C40.258934 358.602866 33.440939 351.717367 33.440939 343.279256 33.440939 334.773639 40.326438 327.955645 48.76455 327.955645L969.261269 327.955645C977.766883 327.955645 984.584876 334.841144 984.584876 343.279256 984.584876 351.784872 977.766883 358.602866 969.261269 358.602866M243.921195 523.517317C245.541312 525.002428 247.768974 525.879992 250.131645 525.812486 252.561821 525.74498 254.654473 524.732408 256.207085 523.112288L273.960872 504.615948 273.893367 504.48094 357.666939 417.939669C359.219551 416.387056 360.097115 414.226899 360.02961 411.864228 359.962105 409.56906 358.882027 407.476409 357.26191 405.991301L342.410833 391.680264C340.790716 390.195156 337.685491 389.317592 335.255315 389.385097 332.892643 389.452602 331.677556 390.465176 330.192448 392.017788L284.086606 444.064059C274.365902 454.662328 251.819267 478.154031 247.498954 478.154031 243.246146 478.154031 237.575735 471.133524 235.955617 469.648417L217.121752 452.367163C215.43413 450.882056 213.273974 450.004492 210.843798 450.071994 208.481126 450.139501 206.32097 451.152073 204.768357 452.772192L192.955001 465.058083C191.402388 466.678198 190.524825 468.838355 190.59233 471.133524 190.659835 473.496195 191.672408 475.588846 193.292525 477.073953L243.921195 523.517317 243.921195 523.517317ZM486.331265 523.517317C487.95138 525.002428 490.179043 525.879992 492.541714 525.812486 494.971892 525.74498 497.064542 524.732408 498.617156 523.112288L516.438446 504.615948 516.303438 504.48094 600.077009 417.939669C601.629622 416.387056 602.507186 414.226899 602.43968 411.864228 602.372174 409.56906 601.359602 407.476409 599.739486 405.991301L584.888406 391.680264C583.268291 390.195156 580.095562 389.317592 577.665384 389.385097 575.302713 389.452602 574.087627 390.465176 572.602515 392.017788L526.56418 444.064059C516.775973 454.662328 494.229336 478.154031 489.909023 478.154031 485.656216 478.154031 479.985803 471.133524 478.365688 469.648417L459.531821 452.367163C457.911706 450.882056 455.684043 450.004492 453.321372 450.071994 450.958701 450.139501 448.798544 451.152073 447.24593 452.772192L435.365069 465.058083C433.81246 466.678198 432.934896 468.838355 433.002398 471.133524 433.069904 473.496195 434.149982 475.588846 435.770102 477.073953L486.331265 523.517317 486.331265 523.517317ZM720.033202 523.517317C721.653322 525.002428 723.88098 525.879992 726.243652 525.812486 728.673829 525.74498 730.766479 524.732408 732.319093 523.112288L750.140383 504.548446 750.005375 504.413434 833.778946 417.872163C835.331559 416.319549 836.209123 414.159393 836.141617 411.796722 836.074115 409.434051 835.061539 407.341399 833.441423 405.856291L818.590347 391.545254C816.970228 390.060146 813.797499 389.182583 811.434828 389.250088 809.072157 389.317592 807.85707 390.330166 806.304457 391.882778L760.266117 443.929051C750.47791 454.459814 727.931277 478.019023 723.610964 478.019023 719.358153 478.019023 713.687745 470.998512 712.067625 469.513404L693.233762 452.232151C691.613643 450.747044 689.453486 449.86948 687.023309 449.936986 684.660638 450.004492 682.500481 451.017064 680.947872 452.63718L669.06701 464.990577C667.514397 466.54319 666.636833 468.703347 666.704339 471.066018 666.771841 473.428689 667.851919 475.521339 669.404533 477.006447L720.033202 523.517317 720.033202 523.517317ZM241.423514 696.127328C243.043631 697.612435 245.271293 698.489999 247.633964 698.422497 250.06414 698.354991 252.156792 697.342419 253.709404 695.722299L271.530696 677.158453 271.463191 677.090951 355.236763 590.549676C356.789375 588.997067 357.666939 586.83691 357.599434 584.474239 357.531929 582.111568 356.519356 580.018913 354.899239 578.533806L340.048162 564.222771C338.36054 562.805166 335.255315 561.927602 332.825138 561.995108 330.462467 562.062615 329.247379 563.075187 327.694767 564.6278L281.65643 616.674071C271.935725 627.272339 249.389091 650.764042 245.068778 650.764042 240.81597 650.764042 235.145559 643.743531 233.525441 642.258424L214.624071 624.977175C213.003954 623.492063 210.843798 622.614503 208.413621 622.682006 206.05095 622.749512 203.890794 623.762084 202.338181 625.382203L190.524825 637.668094C188.972212 639.220703 188.094649 641.38086 188.162154 643.743531 188.229658 646.106206 189.242232 648.198857 190.862349 649.683964L241.423514 696.127328 241.423514 696.127328ZM241.423514 869.547397C243.043631 871.032508 245.271293 871.910072 247.633964 871.842566 250.06414 871.77506 252.156792 870.762488 253.709404 869.142368L271.530696 850.578526 271.395686 850.443514 355.169258 763.902243C356.72187 762.282123 357.599434 760.189473 357.531929 757.826802 357.464424 755.464131 356.451851 753.37148 354.831734 751.886373L339.980657 737.575334C338.36054 736.090227 335.18781 735.212663 332.825138 735.280169 330.462467 735.347671 329.247379 736.360247 327.762271 737.912857L281.723935 789.959131C271.935725 800.489894 249.389091 824.049103 245.068778 824.049103 240.81597 824.049103 235.145559 817.028592 233.525441 815.543484L214.691576 798.262231C213.003954 796.912136 210.843798 796.034572 208.413621 796.102074 206.05095 796.169581 203.890794 797.182153 202.338181 798.802272L190.45732 811.155669C188.904707 812.708278 188.027144 814.868435 188.094649 817.231106 188.162154 819.593777 189.242232 821.686432 190.862349 823.171539L241.423514 869.547397 241.423514 869.547397ZM483.901088 696.127328C485.521207 697.612435 487.748866 698.489999 490.111537 698.422497 492.541714 698.354991 494.634365 697.342419 496.186978 695.722299L514.008269 677.158453 513.873261 677.090951 597.646832 590.549676C599.199445 588.997067 600.077009 586.83691 600.009503 584.474239 599.942001 582.17907 598.861922 580.086419 597.241803 578.601312L582.390727 564.290273C580.770611 562.805166 577.665384 561.927602 575.235207 561.995108 572.872536 562.062615 571.657449 563.075187 570.172342 564.6278L524.134003 616.674071C514.345796 627.272339 491.799163 650.764042 487.47885 650.764042 483.226038 650.764042 477.55563 643.743531 475.935511 642.258424L457.101648 624.977175C455.481528 623.492063 453.253865 622.614503 450.891194 622.682006 448.461021 622.749512 446.300865 623.762084 444.815757 625.314697L432.934896 637.668094C431.382282 639.220703 430.504718 641.38086 430.572225 643.743531 430.639727 646.106206 431.719805 648.198857 433.339924 649.683964L483.901088 696.127328 483.901088 696.127328ZM717.603029 696.127328C719.223144 697.612435 721.450807 698.489999 723.813478 698.422497 726.243652 698.354991 728.336306 697.342419 729.888915 695.722299L747.71021 677.158453 747.575198 677.023445 831.348773 590.482174C832.901382 588.929561 833.778946 586.769404 833.711444 584.406733 833.643938 582.044062 832.631366 579.951411 831.011246 578.4663L816.16017 564.155265C814.540055 562.670158 811.367322 561.792594 809.00465 561.8601 806.641979 561.927602 805.426893 562.940178 803.874279 564.492788L757.835944 616.674071C748.047733 627.204833 725.5011 650.764042 721.180787 650.764042 716.92798 650.764042 711.257567 643.743531 709.637448 642.258424L690.803585 624.977175C689.183465 623.492063 687.023309 622.614503 684.593136 622.682006 682.230465 622.749512 680.070308 623.762084 678.517694 625.382203L666.636833 637.735596C665.084219 639.288209 664.206655 641.448366 664.274162 643.811037 664.341668 646.173708 665.421746 648.266363 666.974355 649.75147L717.603029 696.127328 717.603029 696.127328ZM730.496463 769.572651C711.460082 769.572651 696.271483 769.505149 696.271483 769.505149L696.271483 866.23966C696.271483 866.23966 711.460082 866.172154 730.496463 866.172154L758.038458 866.172154C777.074835 866.172154 792.938488 866.23966 792.938488 866.23966L792.938488 769.505149C792.938488 769.505149 777.074835 769.572651 758.038458 769.572651L730.496463 769.572651 730.496463 769.572651ZM454.468956 769.505149 454.468956 804.067652 454.468956 866.172154C454.468956 866.172154 469.927576 866.104648 488.963957 866.104648L516.505952 866.104648C535.542329 866.104648 551.135961 866.172154 551.135961 866.172154L551.000953 804.067652C551.000953 785.031274 551.135961 769.505149 551.135961 769.505149L454.468956 769.505149 454.468956 769.505149Z"  /></svg>