<svg xmlns="http://www.w3.org/2000/svg" viewBox="0 0 500 500"><g id="freepik--background-complete--inject-15"><rect y="382.4" width="500" height="0.25" style="fill:#ebebeb"></rect><rect x="416.78" y="398.49" width="33.12" height="0.25" style="fill:#ebebeb"></rect><rect x="322.53" y="401.21" width="8.69" height="0.25" style="fill:#ebebeb"></rect><rect x="396.59" y="389.21" width="19.19" height="0.25" style="fill:#ebebeb"></rect><rect x="52.46" y="390.89" width="43.19" height="0.25" style="fill:#ebebeb"></rect><rect x="104.56" y="390.89" width="6.33" height="0.25" style="fill:#ebebeb"></rect><rect x="131.47" y="395.11" width="93.68" height="0.25" style="fill:#ebebeb"></rect><path d="M237,337.8H43.91a5.71,5.71,0,0,1-5.7-5.71V60.66A5.71,5.71,0,0,1,43.91,55H237a5.71,5.71,0,0,1,5.71,5.71V332.09A5.71,5.71,0,0,1,237,337.8ZM43.91,55.2a5.46,5.46,0,0,0-5.45,5.46V332.09a5.46,5.46,0,0,0,5.45,5.46H237a5.47,5.47,0,0,0,5.46-5.46V60.66A5.47,5.47,0,0,0,237,55.2Z" style="fill:#ebebeb"></path><path d="M453.31,337.8H260.21a5.72,5.72,0,0,1-5.71-5.71V60.66A5.72,5.72,0,0,1,260.21,55h193.1A5.71,5.71,0,0,1,459,60.66V332.09A5.71,5.71,0,0,1,453.31,337.8ZM260.21,55.2a5.47,5.47,0,0,0-5.46,5.46V332.09a5.47,5.47,0,0,0,5.46,5.46h193.1a5.47,5.47,0,0,0,5.46-5.46V60.66a5.47,5.47,0,0,0-5.46-5.46Z" style="fill:#ebebeb"></path><polygon points="441.14 381.86 441.14 332.54 418.38 332.54 418.38 286.81 415.17 286.81 415.17 313.02 406.42 313.02 406.42 305.77 390.66 305.77 390.66 280.68 387.74 280.68 387.74 250 385.41 250 385.41 280.12 379.87 280.12 379.87 324.74 369.36 324.74 369.36 280.12 350.39 280.12 350.39 317.85 330.48 317.85 330.48 272.12 327.27 272.12 327.27 298.33 318.52 298.33 318.52 291.08 302.76 291.08 302.76 265.98 299.84 265.98 299.84 235.31 297.51 235.31 297.51 265.42 291.96 265.42 291.96 310.04 281.46 310.04 281.46 265.42 262.49 265.42 262.49 308.58 249.7 308.58 249.7 283.49 246.78 283.49 246.78 252.81 244.45 252.81 244.45 282.93 238.91 282.93 238.91 327.55 228.4 327.55 228.4 282.93 209.44 282.93 209.44 327.55 200.1 327.55 200.1 332.54 183.74 332.54 183.74 286.81 180.53 286.81 180.53 313.02 171.78 313.02 171.78 305.77 156.02 305.77 156.02 280.68 153.1 280.68 153.1 250 150.77 250 150.77 280.12 145.68 280.12 145.68 277.61 126.71 277.61 126.71 280.12 116.21 280.12 116.21 277.61 110.66 277.61 110.66 247.49 108.33 247.49 108.33 278.16 105.41 278.16 105.41 303.26 89.66 303.26 89.66 310.51 80.9 310.51 80.9 284.3 77.69 284.3 77.69 330.03 54.93 330.03 54.93 381.86 441.14 381.86" style="fill:#e0e0e0"></polygon><circle cx="147.19" cy="126.72" r="27.79" transform="translate(-37.29 65.97) rotate(-22.5)" style="fill:#fafafa"></circle><path d="M132.78,126.41a4.83,4.83,0,0,0-4.83-4.83,4.92,4.92,0,0,0-1.39.2,10.21,10.21,0,0,0-10.12-11.71,9.74,9.74,0,0,0-1.88.18A8.94,8.94,0,0,0,98,114.77h-.15a8.24,8.24,0,1,0,0,16.48h30.25A4.82,4.82,0,0,0,132.78,126.41Z" style="fill:#f0f0f0"></path><path d="M441.37,202.4a4.8,4.8,0,0,0-6.21-4.63,10.42,10.42,0,0,0,.11-1.48A10.23,10.23,0,0,0,425,186.06a10.63,10.63,0,0,0-1.89.17,8.94,8.94,0,0,0-16.58,4.52h-.14a8.24,8.24,0,0,0,0,16.48h30.25A4.82,4.82,0,0,0,441.37,202.4Z" style="fill:#f0f0f0"></path><path d="M279.51,144.68a7.65,7.65,0,0,1,7.65-7.64,7.53,7.53,0,0,1,2.19.32,16.42,16.42,0,0,1-.17-2.34,16.19,16.19,0,0,1,16.18-16.19,16.38,16.38,0,0,1,3,.28,14.14,14.14,0,0,1,26.23,7.15h.23a13,13,0,1,1,0,26.07H286.94A7.63,7.63,0,0,1,279.51,144.68Z" style="fill:#f0f0f0"></path><path d="M142.28,210.29a9.19,9.19,0,0,1,11.84-8.81,18.72,18.72,0,0,1-.21-2.82,19.48,19.48,0,0,1,19.48-19.48,19.23,19.23,0,0,1,3.58.34,17,17,0,0,1,31.57,8.6h.28a15.69,15.69,0,0,1,0,31.38H151.21v0A9.18,9.18,0,0,1,142.28,210.29Z" style="fill:#f0f0f0"></path><path d="M193.39,140.88a3,3,0,0,0-3-3,3.08,3.08,0,0,0-.86.12,5.53,5.53,0,0,0,.07-.92,6.36,6.36,0,0,0-6.36-6.36,6.45,6.45,0,0,0-1.17.11,5.56,5.56,0,0,0-10.31,2.81h-.09a5.12,5.12,0,1,0,0,10.24h18.81A3,3,0,0,0,193.39,140.88Z" style="fill:#f0f0f0"></path><path d="M394.7,108.48a3,3,0,0,1,3-3,3,3,0,0,1,.86.12,7,7,0,0,1-.06-.92,6.36,6.36,0,0,1,6.36-6.36,6.45,6.45,0,0,1,1.17.11,5.55,5.55,0,0,1,10.3,2.81h.1a5.12,5.12,0,0,1,0,10.24H397.62A3,3,0,0,1,394.7,108.48Z" style="fill:#f0f0f0"></path></g><g id="freepik--Shadow--inject-15"><ellipse id="freepik--path--inject-15" cx="250" cy="416.24" rx="193.89" ry="11.32" style="fill:#f5f5f5"></ellipse></g><g id="freepik--Street--inject-15"><path d="M108.67,400.1s-2.12-7.11,2.17-8.53,6.84-4.74,6.7-8.49,4.37-7.42,7.76-3.9,2.93-2.71,7.45-4.22,8.35,2.16,7.11,5.52,3.22,5.45,8.56,2.6,11.21,2.34,10.08,6.4-.2,4.52,3.17,3.16,9.42,2.49,7.31,7.46S108.67,400.1,108.67,400.1Z" style="fill:#407BFF"></path><path d="M108.67,400.1s-2.12-7.11,2.17-8.53,6.84-4.74,6.7-8.49,4.37-7.42,7.76-3.9,2.93-2.71,7.45-4.22,8.35,2.16,7.11,5.52,3.22,5.45,8.56,2.6,11.21,2.34,10.08,6.4-.2,4.52,3.17,3.16,9.42,2.49,7.31,7.46S108.67,400.1,108.67,400.1Z" style="opacity:0.4"></path><path d="M313.51,401.42c-3.81-2.58-.38-7,3.43-7.49s7.64-5.07,7.82-8,7-11.8,17.71-6.3,7.42.81,15.14-.74,12.59,2.9,9.2,6.23c0,0,7.75-1.31,10.95,3.6s0,8,0,8,14.58-.3,13.27,5.82S313.51,401.42,313.51,401.42Z" style="fill:#407BFF"></path><path d="M313.51,401.42c-3.81-2.58-.38-7,3.43-7.49s7.64-5.07,7.82-8,7-11.8,17.71-6.3,7.42.81,15.14-.74,12.59,2.9,9.2,6.23c0,0,7.75-1.31,10.95,3.6s0,8,0,8,14.58-.3,13.27,5.82S313.51,401.42,313.51,401.42Z" style="opacity:0.4"></path><path d="M102.79,399.19v10.44H397V399.19a3.12,3.12,0,0,0-3.08-3.28h-288A3.11,3.11,0,0,0,102.79,399.19Z" style="fill:#263238"></path><rect x="361.89" y="395.91" width="18.29" height="13.72" style="fill:#407BFF"></rect><rect x="327.6" y="395.91" width="17.53" height="13.72" style="fill:#407BFF"></rect><rect x="292.54" y="395.91" width="18.29" height="13.72" style="fill:#407BFF"></rect><rect x="258.25" y="395.91" width="17.53" height="13.72" style="fill:#407BFF"></rect><rect x="223.96" y="395.91" width="17.53" height="13.72" style="fill:#407BFF"></rect><rect x="188.9" y="395.91" width="18.29" height="13.72" style="fill:#407BFF"></rect><rect x="154.61" y="395.91" width="17.53" height="13.72" style="fill:#407BFF"></rect><rect x="119.55" y="395.91" width="18.29" height="13.72" style="fill:#407BFF"></rect><g style="isolation:isolate;opacity:0.6000000000000001"><rect x="361.89" y="395.91" width="18.29" height="13.72" style="fill:#fff"></rect><rect x="327.6" y="395.91" width="17.53" height="13.72" style="fill:#fff"></rect><rect x="292.54" y="395.91" width="18.29" height="13.72" style="fill:#fff"></rect><rect x="258.25" y="395.91" width="17.53" height="13.72" style="fill:#fff"></rect><rect x="223.96" y="395.91" width="17.53" height="13.72" style="fill:#fff"></rect><rect x="188.9" y="395.91" width="18.29" height="13.72" style="fill:#fff"></rect><rect x="154.61" y="395.91" width="17.53" height="13.72" style="fill:#fff"></rect><rect x="119.55" y="395.91" width="18.29" height="13.72" style="fill:#fff"></rect></g><path d="M102.79,399.19v10.44H397V399.19a3.12,3.12,0,0,0-3.08-3.28h-288A3.11,3.11,0,0,0,102.79,399.19Z" style="fill:#fff;isolation:isolate;opacity:0.4"></path></g><g id="freepik--Screen--inject-15"><path d="M396.2,75.75v288a4.2,4.2,0,0,1-4.27,4.21h-134a3.73,3.73,0,0,1-2.68-1.08A3.84,3.84,0,0,1,254.1,364V75.4a3.4,3.4,0,0,1,3.27-3.53h38.06a2.67,2.67,0,0,1,2.45,1.71l1.58,3.88a2.67,2.67,0,0,0,2.45,1.69h46.57a2.64,2.64,0,0,0,2.45-1.66l1.58-3.9A2.68,2.68,0,0,1,355,71.87h37.51A3.83,3.83,0,0,1,396.2,75.75Z" style="fill:#407BFF;isolation:isolate"></path><path d="M391.2,75.75v288a4.21,4.21,0,0,1-4.28,4.21h-134a3.7,3.7,0,0,1-2.67-1.08A3.84,3.84,0,0,1,249.1,364V75.4a3.39,3.39,0,0,1,3.27-3.53h38.05a2.67,2.67,0,0,1,2.45,1.71l1.58,3.88a2.68,2.68,0,0,0,2.45,1.69h46.57a2.64,2.64,0,0,0,2.45-1.66l1.58-3.9A2.69,2.69,0,0,1,350,71.87h37.51A3.84,3.84,0,0,1,391.2,75.75Z" style="fill:#407BFF"></path><path d="M391.2,75.75v288a4.21,4.21,0,0,1-4.28,4.21h-134a3.7,3.7,0,0,1-2.67-1.08A3.8,3.8,0,0,1,249.1,364V75.4a3.39,3.39,0,0,1,3.27-3.53h38.05a2.67,2.67,0,0,1,2.45,1.71l1.58,3.88a2.68,2.68,0,0,0,2.45,1.69h46.57a2.64,2.64,0,0,0,2.45-1.66l1.58-3.9A2.69,2.69,0,0,1,350,71.87h37.51A3.84,3.84,0,0,1,391.2,75.75Z" style="fill:#fff;opacity:0.4"></path><g style="isolation:isolate;opacity:0.1"><path d="M313,79.15l-40.9,153.23h0l-.46,1.72h0l-.74,2.76h0l-.46,1.72-21.36,80V221.79l40-149.92h1.3a2.67,2.67,0,0,1,2.45,1.71l1.58,3.88a2.68,2.68,0,0,0,2.45,1.69Z" style="fill:#fff"></path><polygon points="391.2 157.41 391.2 254.25 365.68 349.82 365.06 352.14 360.85 367.91 335 367.91 339.21 352.15 339.89 349.62 343.26 336.95 343.94 334.42 345.3 329.36 345.97 326.82 347.32 321.76 347.99 319.23 369.26 239.57 369.26 239.56 370.25 235.88 370.25 235.87 391.2 157.41" style="fill:#fff"></polygon><path d="M327,79.15,286.38,231.43l-.25.91-2.22,8.34-.24.91L250.24,366.83A3.8,3.8,0,0,1,249.1,364V349.31l28.75-107.72.25-.91,2.22-8.34.25-.91L321.22,79.15Z" style="fill:#fff"></path></g><rect x="266.76" y="80.83" width="1.98" height="2.64" transform="translate(535.51 164.29) rotate(180)" style="fill:#fff;isolation:isolate;opacity:0.6000000000000001"></rect><rect x="263.54" y="79.95" width="1.98" height="3.52" transform="translate(529.05 163.41) rotate(180)" style="fill:#fff;isolation:isolate;opacity:0.6000000000000001"></rect><rect x="260.31" y="79.07" width="1.98" height="4.4" transform="translate(522.6 162.53) rotate(180)" style="fill:#fff;isolation:isolate;opacity:0.6000000000000001"></rect><rect x="257.08" y="78.18" width="1.98" height="5.28" transform="translate(516.15 161.65) rotate(180)" style="fill:#fff;isolation:isolate;opacity:0.6000000000000001"></rect><rect x="371.88" y="79.86" width="1.17" height="2.64" style="fill:#fff;isolation:isolate;opacity:0.6000000000000001"></rect><rect x="373.86" y="78.9" width="9.35" height="4.57" transform="translate(757.07 162.37) rotate(180)" style="fill:#fff;isolation:isolate;opacity:0.6000000000000001"></rect><path d="M366.44,110.83H279.68a5.59,5.59,0,0,1-5.59-5.59h0a5.58,5.58,0,0,1,5.59-5.58h86.76a5.58,5.58,0,0,1,5.59,5.58h0A5.59,5.59,0,0,1,366.44,110.83Z" style="fill:#fff;opacity:0.6000000000000001"></path><rect x="257.23" y="142.01" width="125.98" height="176.96" style="fill:#fff;opacity:0.4"></rect><path d="M366.44,129.53H279.68a5.58,5.58,0,0,1-5.59-5.58h0a5.58,5.58,0,0,1,5.59-5.58h86.76A5.58,5.58,0,0,1,372,124h0A5.58,5.58,0,0,1,366.44,129.53Z" style="fill:#fff;opacity:0.6000000000000001"></path><path d="M267.31,120h0a4.28,4.28,0,0,0-6.05,0h0a4.28,4.28,0,0,0,0,6l3,3,3-3A4.28,4.28,0,0,0,267.31,120Zm-1.68,4.37a1.9,1.9,0,1,1,0-2.69A1.91,1.91,0,0,1,265.63,124.41Z" style="fill:#407BFF"></path><path d="M284.68,146.65h0a4.26,4.26,0,0,0-6.05,0h0a4.27,4.27,0,0,0,0,6l3,3,3-3A4.27,4.27,0,0,0,284.68,146.65ZM283,151a1.91,1.91,0,1,1,0-2.7A1.91,1.91,0,0,1,283,151Z" style="fill:#407BFF"></path><path d="M264.29,100.5a4.75,4.75,0,1,0,4.75,4.74A4.75,4.75,0,0,0,264.29,100.5Zm0,7.83a3.09,3.09,0,1,1,3.08-3.09A3.08,3.08,0,0,1,264.29,108.33Z" style="fill:#407BFF"></path><path d="M266.17,105.24a1.88,1.88,0,1,1-1.88-1.88A1.88,1.88,0,0,1,266.17,105.24Z" style="fill:#407BFF"></path><path d="M354.26,289.6a4.75,4.75,0,1,0,4.75,4.75A4.75,4.75,0,0,0,354.26,289.6Zm0,7.84a3.09,3.09,0,1,1,3.09-3.09A3.09,3.09,0,0,1,354.26,297.44Z" style="fill:#407BFF"></path><path d="M356.14,294.35a1.88,1.88,0,1,1-1.88-1.88A1.88,1.88,0,0,1,356.14,294.35Z" style="fill:#407BFF"></path><path d="M383.21,171.75v-9.68l-29.63,28.31-31.3-10.8L341.89,142H334l-8.36,16L265,142h-7.75v5.2l22.82,6L261.55,187,305,197.59l-5.16,9.88L257.23,196.4v7.24l39.27,10.2-12.71,24.37-20.07-5.84-6.49,4.23V245l7.62-5,15.63,4.54-23.25,44.56v15.12l15.21-29.14,20.69,6.08v26.6L316.75,319h16.31l-32.93-15.64V283.21l83.08,24.4v-7.3L358.42,293,366,251.25l17.26,4.52v-7.23l-46.57-12.21,20.66-39.82Zm-111.14,10.6,15-27.28,35.28,9.32-14,26.81Zm87.09,67.12-7.5,41.58-75.92-22.3L297,228l8.14,9,25.57,5Zm-29.54-14.8-20.81-4.09-8.33-9.24L319,185.85l30.48,10.52Z" style="opacity:0.2"></path><path d="M338,158.67,328,178l25.59,7.85,14.12-14.62A266.53,266.53,0,0,1,338,158.67Z" style="fill:#fff;opacity:0.4"></path><path d="M383.21,142V155.2l-12.52,13c-8.42-3-16.73-6.24-24.82-10q-3.08-1.42-6.09-2.95L346.6,142Z" style="fill:#fff;opacity:0.4"></path><polygon points="320.22 190.12 343.98 198.13 332.1 222.99 307.98 215.24 320.22 190.12" style="fill:#fff;opacity:0.4"></polygon><path d="M344,232.92c.2-.67,11.67-24.41,11.67-24.41l17,5.29,3,26.85Z" style="fill:#fff;opacity:0.4"></path><path d="M309.2,269.74c.36-.3,8.25-24.62,8.25-24.62l36.81,6.48-6.13,32.47Z" style="fill:#fff;opacity:0.4"></path><path d="M289.39,255.84l11.1,3.66-5.55,10.24s-11.69-2.68-11.69-3.47S289.39,255.84,289.39,255.84Z" style="fill:#fff;opacity:0.4"></path><path d="M290,286.64c-.27.66-4.12,19.66-6.67,32.33H258l15.59-35.88Z" style="fill:#fff;opacity:0.4"></path><path d="M383.21,310.34V319H362.29l-29.5-9.75c.94-4,2-7.88,3.26-11.74Z" style="fill:#fff;opacity:0.4"></path><path d="M332.28,296.45l-21.14-5.76-3,10.39L329.07,308C330,304.1,331,300.24,332.28,296.45Z" style="fill:#fff;opacity:0.4"></path><polygon points="383.21 268.74 383.21 290.88 363.76 286.64 367.72 265.68 383.21 268.74" style="fill:#fff;opacity:0.4"></polygon><polygon points="266.81 226.31 272.98 212.21 290.16 217.27 283.25 232 266.81 226.31" style="fill:#fff;opacity:0.4"></polygon><polygon points="282.46 177.26 290.93 161.91 313.91 168.58 306.2 184.97 282.46 177.26" style="fill:#fff;opacity:0.4"></polygon><path d="M328.38,142c-2.13,4.31-4.88,9.78-5.32,10.13s-28.85-6.85-41.41-10.13Z" style="fill:#fff;opacity:0.4"></path><polygon points="272.97 157.41 257.23 190.3 257.23 153.32 272.97 157.41" style="fill:#fff;opacity:0.4"></polygon><path d="M356.15,288.64l-.18,0a1,1,0,0,1-.81-1.15L362,248c-4.84-1.48-29.91-9-54.15-13.1a1,1,0,0,1-.57-.3l-11.53-12.51a1,1,0,0,1-.16-1.13l13.38-25.76-42.34-9.58a1,1,0,0,1-.65-1.46l14.24-26a1,1,0,1,1,1.76,1L268.33,184l42.31,9.58a1,1,0,0,1,.67,1.44l-13.66,26.27L308.48,233c26.88,4.56,54.64,13.28,54.92,13.37a1,1,0,0,1,.68,1.12l-6.95,40.31A1,1,0,0,1,356.15,288.64Z" style="fill:#407BFF"></path><rect x="257.23" y="330.15" width="125.98" height="11.19" rx="2.63" style="opacity:0.2"></rect></g><g id="freepik--Character--inject-15"><path d="M204.37,181.47c1.68,1.12,3.54,2.38,5.36,3.48s3.68,2.22,5.53,3.23a55.8,55.8,0,0,0,5.54,2.66c.92.36,1.82.67,2.67.91a11.09,11.09,0,0,0,1.24.3l.29,0,.14,0a1.38,1.38,0,0,0,.33,0,13.12,13.12,0,0,0,2.47-.39c.95-.23,1.93-.52,2.93-.85,2-.66,4-1.44,6.07-2.26,4.06-1.67,8.19-3.47,12.25-5.28l0,0a2.44,2.44,0,0,1,2.47,4.18,109.23,109.23,0,0,1-11.56,7.67c-2,1.16-4.1,2.26-6.3,3.27-1.1.49-2.24,1-3.46,1.39a19.38,19.38,0,0,1-4.15,1,11,11,0,0,1-1.35.08c-.24,0-.54,0-.71,0l-.55,0c-.73-.06-1.43-.17-2.1-.29a31.06,31.06,0,0,1-3.83-1,53,53,0,0,1-6.85-2.8c-2.17-1.05-4.25-2.21-6.27-3.43s-4-2.47-6-4a4.9,4.9,0,0,1,5.65-8Z" style="fill:#ebb376"></path><path d="M214.58,185.4s-3,6.67-6.18,10.34a8.88,8.88,0,0,1-2.23,2c-4.75-3.23-7.76-5.67-9.68-7.9-2.66-3.09-3.19-5.8-3.25-9.68C200.07,175.42,214.58,185.4,214.58,185.4Z" style="fill:#407BFF"></path><path d="M208.4,195.74a8.88,8.88,0,0,1-2.23,2c-4.75-3.23-7.76-5.67-9.68-7.9-.18-.52-.34-1-.48-1.52C196,188.28,205.29,188,208.4,195.74Z" style="opacity:0.2"></path><path d="M162.57,160.21a7.29,7.29,0,0,1-.86,7.31c-2.71,3.65-12.5,12.37-3.06,19s25.28-7.57,24.92-18.43S167.73,154,162.57,160.21Z" style="fill:#263238"></path><path d="M151.26,178.12a.45.45,0,0,1-.44-.37c-.91-4.87,3.41-7,8-9.17l.81-.39c4.35-2.12,2.94-8.26,2.92-8.32a.45.45,0,0,1,.34-.54.45.45,0,0,1,.54.33c0,.07,1.6,6.9-3.4,9.34l-.82.39c-4.44,2.15-8.28,4-7.5,8.19a.45.45,0,0,1-.36.53Z" style="fill:#263238"></path><path d="M212.17,393.27c-6,0-6.79-.1-10.16-.21-2.88-.1-3.57.26-5.89.21-1.94,0-1.87-1.9-1.27-4,.3-1.07.76-3.34,1.17-5.07l8.79-.64c1.24,2.36,4,5.73,7.41,6.18C215.44,390.15,214.56,393.27,212.17,393.27Z" style="fill:#263238"></path><path d="M208.36,227.75c10.35,32,3.77,50.95.09,74.83-3.86,25.08-4.35,65.33-3.38,81.73-1.41.81-6.5.24-9.27-.62,0,0-16.64-53.8-4.42-78.63-7.91-58,0-74.62,0-74.62Z" style="fill:#407BFF"></path><path d="M208.45,302.58c-3.86,25.08-4.35,65.32-3.38,81.73-1.41.81-6.5.25-9.27-.62a241,241,0,0,1-7.72-36.5c-1.87-15-2-31.3,3.3-42.13-1.79-13.12-2.77-24.12-3.22-33.28-1.52-31.4,3.22-41.34,3.22-41.34l17-2.68C218.72,259.78,212.13,278.7,208.45,302.58Z" style="fill:#fff;opacity:0.6000000000000001"></path><path d="M188.08,347.19c-1.87-15-2-31.3,3.3-42.13-1.79-13.12-2.77-24.12-3.22-33.28a34.47,34.47,0,0,1,6.32-1.14S202.49,312.45,188.08,347.19Z" style="opacity:0.2"></path><path d="M205.44,377.36c.17,1.47.51,4,.95,5.94a1.31,1.31,0,0,1-.53,1.54c-3.74,1.32-9.41.49-11.21.18a1.12,1.12,0,0,1-.75-1l-1.12-5.53c-.15-.76.17-1.48.67-1.51l11.08-.76C205,376.22,205.36,376.7,205.44,377.36Z" style="fill:#407BFF"></path><path d="M193.64,393.27c-6,0-6.79-.1-10.16-.21-2.89-.1-3.58.26-5.9.21-1.93,0-1.86-1.9-1.26-4,.29-1.07.76-3.34,1.17-5.07l8.78-.64c1.24,2.36,4,5.73,7.41,6.18C196.91,390.15,196,393.27,193.64,393.27Z" style="fill:#263238"></path><path d="M200,229.07s-6.42,49.63-10.09,73.51c-3.86,25.08-4.35,65.33-3.39,81.73-1.4.81-6.49.24-9.26-.62,0,0-16.65-53.8-4.42-78.63-7.91-58,3.54-72.25,3.54-72.25Z" style="fill:#407BFF"></path><path d="M200,229.07s-6.42,49.63-10.09,73.51c-3.86,25.08-4.35,65.33-3.39,81.73-1.4.81-6.49.24-9.26-.62,0,0-16.65-53.8-4.42-78.63-7.91-58,3.54-72.25,3.54-72.25Z" style="fill:#fff;opacity:0.6000000000000001"></path><path d="M186.9,377.36c.18,1.47.52,4,.95,5.94a1.3,1.3,0,0,1-.53,1.54c-3.73,1.32-9.4.49-11.21.18a1.14,1.14,0,0,1-.75-1l-1.12-5.53c-.15-.76.17-1.48.67-1.51l11.09-.76C186.43,376.22,186.82,376.7,186.9,377.36Z" style="fill:#407BFF"></path><path d="M208.36,227.75l-32,5.06a68.82,68.82,0,0,0-2.4-12.92,135.51,135.51,0,0,0-5.41-15.22c-1.31-3.16-2.83-6.61-4.59-10.42a7.56,7.56,0,0,1,4.84-10.71l1.46-.37.1,0c.77-.19,1.57-.37,2.38-.54a103.78,103.78,0,0,1,14.53-2.3c1.6-.11,3.26-.17,4.86-.2a9,9,0,0,1,3.55.68c4.24,1.67,7.66,6.24,8.5,10.66a97.89,97.89,0,0,1,2.12,13C207.08,210.87,207.63,217.19,208.36,227.75Z" style="fill:#407BFF"></path><path d="M171.19,166.1c2,4.47,4.91,12.78,2.37,16.38,0,0,4.32-1.36,14.64,3,2.1-4.33-.12-5.26-.12-5.26-5.5-.4-6.26-4.24-6.2-8Z" style="fill:#ebb376"></path><path d="M175.55,168.59l6.32,3.61a15.06,15.06,0,0,0,.16,2.62c-2.06,0-5.3-1.69-6-3.72A6.91,6.91,0,0,1,175.55,168.59Z" style="opacity:0.2"></path><path d="M165.72,157.35c2.61,7.32,3.56,10.47,8.44,13.4,7.33,4.42,15.77.13,15.41-7.69C189.24,156,185,145.23,176.85,144A10,10,0,0,0,165.72,157.35Z" style="fill:#ebb376"></path><path d="M174.32,140.49c5.68,0,14,5.23,6.78,6.78.07,2.32-4.18,2.52-7.32,1.42.51,1.69-2.21,5.18-6.13,4.3,2.28,1.13,2.69,6.94,0,7.39s-8.31,2.21-7.79-7.39S168.25,140.49,174.32,140.49Z" style="fill:#263238"></path><path d="M175.55,157.08c.19.63.68,1.06,1.08,1s.58-.68.38-1.3-.67-1.05-1.08-1S175.36,156.46,175.55,157.08Z" style="fill:#263238"></path><path d="M183.36,155c.19.62.68,1.05,1.08.95s.58-.67.38-1.3-.67-1.05-1.08-1S183.17,154.37,183.36,155Z" style="fill:#263238"></path><path d="M183.57,153.77l1.36-.78S184.53,154.34,183.57,153.77Z" style="fill:#263238"></path><path d="M181.38,156.93a19.14,19.14,0,0,0,3.43,3.46,2.59,2.59,0,0,1-2.07.94Z" style="fill:#d58745"></path><path d="M179.9,164.47a5.92,5.92,0,0,0,1.06-.16.17.17,0,0,0,.13-.22.2.2,0,0,0-.24-.14,5.4,5.4,0,0,1-4.59-1,.18.18,0,1,0-.24.27A5.67,5.67,0,0,0,179.9,164.47Z" style="fill:#263238"></path><path d="M165,164a6.23,6.23,0,0,0,4.37,1.9c2.11,0,2.45-2.19,1.26-4-1.07-1.63-3.45-3.59-5.28-2.71S163.56,162.55,165,164Z" style="fill:#ebb376"></path><path d="M173.18,153.45a.38.38,0,0,0,.25-.16,2.79,2.79,0,0,1,2.29-1.32.35.35,0,0,0,.37-.36.41.41,0,0,0-.39-.39,3.44,3.44,0,0,0-2.92,1.64.41.41,0,0,0,.4.59Z" style="fill:#263238"></path><path d="M185.32,150.13a.32.32,0,0,0,.25-.11.38.38,0,0,0,0-.53,4,4,0,0,0-3.35-1.15.35.35,0,0,0-.27.44.42.42,0,0,0,.47.3A3.21,3.21,0,0,1,185,150,.41.41,0,0,0,185.32,150.13Z" style="fill:#263238"></path><path d="M175.77,155.86l1.35-.78S176.72,156.43,175.77,155.86Z" style="fill:#263238"></path><path d="M165.72,157.35c1.55-.36,1.86-4.75,1.92-6.93a2.11,2.11,0,0,1,1.13-1.82c2.59-1.37,9.2-4.54,15.48-4.77l.68-1.72s-4.53-6.77-14.62-4.63-12.94,9.11-13.06,11.74a46.06,46.06,0,0,0,1.55,10.46c.47,1.19,4.4,2.26,4.4,2.26S162,158.22,165.72,157.35Z" style="fill:#407BFF"></path><path d="M163,147.62c0,.66-.38,1.2-.84,1.2s-.85-.54-.85-1.2.38-1.21.85-1.21S163,147,163,147.62Z" style="fill:#263238"></path><path d="M158.66,148.22c-.22.62-.58,1.07-.8,1s-.21-.65,0-1.27.59-1.07.8-1S158.89,147.59,158.66,148.22Z" style="fill:#263238"></path><path d="M170.71,140.93a1.07,1.07,0,0,1,.07,1.47c-.37.28-1,.09-1.41-.44a.9.9,0,1,1,1.34-1Z" style="fill:#263238"></path><path d="M178.44,138.79c.55.37.85.88.69,1.12s-.75.15-1.3-.22-.86-.88-.69-1.12S177.89,138.42,178.44,138.79Z" style="fill:#263238"></path><path d="M201.54,210.52l-2.36-.53a2.79,2.79,0,0,0-2.49.66l-3.16,2.84a5.25,5.25,0,0,0-1.7,4.49L192,219c3.85,1.13,8.85-.48,8.85-.48l1.48-.3a2.34,2.34,0,0,0,1.9-2.73l-.56-2.93A2.68,2.68,0,0,0,201.54,210.52Z" style="fill:#ebb376"></path><path d="M257.34,180.52,255,180a2.8,2.8,0,0,0-2.49.65l-3.15,2.84a5.23,5.23,0,0,0-1.7,4.5l.12,1c3.85,1.14,8.85-.47,8.85-.47l1.47-.3a2.33,2.33,0,0,0,1.9-2.73l-.55-2.94A2.72,2.72,0,0,0,257.34,180.52Z" style="fill:#ebb376"></path><path d="M174,219.89a135.51,135.51,0,0,0-5.41-15.22c3.64-5,2.76-9.25,2.76-9.25S178.78,202.6,174,219.89Z" style="opacity:0.2"></path><path d="M171.25,193.52c-.12,1-.23,2.19-.34,3.3s-.17,2.28-.23,3.41q-.19,3.42-.16,6.8a44.29,44.29,0,0,0,1.72,12.71l-.44-.84a1.09,1.09,0,0,0-.58-.46s.14.1.42.17a9.25,9.25,0,0,0,2.41.12,39.38,39.38,0,0,0,6.15-.9c2.13-.44,4.28-1,6.44-1.58s4.35-1.22,6.47-1.85l.06,0a2.45,2.45,0,0,1,1.94,4.45c-2.07,1.23-4.14,2.28-6.27,3.32a70.48,70.48,0,0,1-6.6,2.77,40,40,0,0,1-7.27,2,18.09,18.09,0,0,1-4.45.2,9.82,9.82,0,0,1-2.89-.72,7.32,7.32,0,0,1-3.21-2.6,3.25,3.25,0,0,1-.35-.63L164,223a37.26,37.26,0,0,1-2.28-7.85,57.37,57.37,0,0,1-.89-7.74,74.69,74.69,0,0,1,0-7.63c.06-1.26.15-2.52.26-3.78s.26-2.48.47-3.87a4.91,4.91,0,0,1,9.72,1.32Z" style="fill:#ebb376"></path><path d="M166.35,184.68c-5.46,3.86-7.26,6.87-7.26,20.59,3.94,2,14.91,0,14.91,0S174.08,187.68,166.35,184.68Z" style="fill:#407BFF"></path><path d="M186.9,190c-9.54-.11-16.62-6.78-16.62-6.78l.1,0c.77-.19,1.57-.37,2.38-.54a103.78,103.78,0,0,1,14.53-2.3c1.6-.11,3.26-.17,4.86-.2a9,9,0,0,1,3.55.68C196.87,184.25,194.94,190.05,186.9,190Z" style="fill:#ebb376"></path><g style="opacity:0.6000000000000001"><path d="M184.13,208.42l.1-.68a1.58,1.58,0,0,0,1.34.48.84.84,0,0,0,.78-1.05c-.22-1.42-2.35-.16-2.69-2.32a1.46,1.46,0,0,1,1.16-1.89,1.71,1.71,0,0,1,1.29.32L186,204a1.52,1.52,0,0,0-1.1-.31.86.86,0,0,0-.77,1.07c.23,1.43,2.36.17,2.7,2.31a1.49,1.49,0,0,1-1.19,1.89A1.81,1.81,0,0,1,184.13,208.42Z" style="fill:#fff"></path><path d="M191.37,208l-.68-4.24-.79,3.75-.24,0-1.92-3.3.68,4.22-.52.08-.93-5.82.44-.07,2.22,3.84.88-4.33.44-.07.94,5.82Z" style="fill:#fff"></path><path d="M195.16,205.85l-2,.32-.18,1.52-.55.09.77-6.09.53-.09,2.63,5.55-.56.09Zm-.29-.63-1.27-2.73-.35,3Z" style="fill:#fff"></path><path d="M199.43,206.66l-1.1-1.66a1.55,1.55,0,0,1-.23.06l-.93.15.29,1.77-.54.08-.93-5.82,1.46-.23c1-.16,1.69.51,1.89,1.78a2,2,0,0,1-.53,2l1.2,1.81Zm-.63-3.79c-.13-.83-.56-1.25-1.25-1.14l-.91.15.42,2.62.91-.15C198.66,204.24,198.94,203.71,198.8,202.87Z" style="fill:#fff"></path><path d="M200.69,201.23l-1.29.21-.11-.73,3.09-.49.12.72-1.29.21.82,5.1-.53.08Z" style="fill:#fff"></path><polygon points="201.2 192.97 197.58 193.51 196.24 196.92 198.53 199.79 202.15 199.24 203.48 195.83 201.2 192.97" style="fill:#fff"></polygon><polygon points="195.92 197.25 194.11 197.53 193.44 199.23 194.59 200.66 196.4 200.39 197.06 198.69 195.92 197.25" style="fill:#fff"></polygon></g><ellipse cx="242.72" cy="391.22" rx="24.05" ry="30.04" style="fill:#263238"></ellipse><ellipse cx="237.77" cy="391.22" rx="19.1" ry="23.86" style="fill:#fff;opacity:0.6000000000000001"></ellipse><ellipse cx="233.25" cy="391.22" rx="12.12" ry="15.14" style="fill:#263238"></ellipse><path d="M225,404h-57.2a6.25,6.25,0,0,1-4.41-1.83l-4.52-4.49h74.34l-3.41,4.07A6.28,6.28,0,0,1,225,404Z" style="fill:#263238"></path><path d="M225,404h-57.2a6.25,6.25,0,0,1-4.41-1.83l-4.52-4.49h74.34l-3.41,4.07A6.28,6.28,0,0,1,225,404Z" style="fill:#fff;opacity:0.2"></path><path d="M238.31,402.08H142.56a4.42,4.42,0,0,1-4.41-4.41h0a4.42,4.42,0,0,1,4.41-4.4h95.75a4.42,4.42,0,0,1,4.41,4.4h0A4.42,4.42,0,0,1,238.31,402.08Z" style="fill:#263238"></path><path d="M238.31,402.08H142.56a4.42,4.42,0,0,1-4.41-4.41h0a4.42,4.42,0,0,1,4.41-4.4h95.75a4.42,4.42,0,0,1,4.41,4.4h0A4.42,4.42,0,0,1,238.31,402.08Z" style="fill:#fff;opacity:0.4"></path><ellipse cx="149.46" cy="391.22" rx="24.05" ry="30.04" style="fill:#263238"></ellipse><ellipse cx="144.52" cy="391.22" rx="19.1" ry="23.86" style="fill:#fff;opacity:0.6000000000000001"></ellipse><path d="M151.73,386.35h0l0-.19h0C150,380,145.29,375.82,140,375.82c-6.82,0-12.38,6.91-12.38,15.4s5.56,15.41,12.38,15.41c5.29,0,10-4.15,11.69-10.34h0l0-.19a18.89,18.89,0,0,0,0-9.75ZM140,406.11c-6.54,0-11.86-6.68-11.86-14.89s5.32-14.88,11.86-14.88c5,0,9.46,3.93,11.14,9.81h-2.29a5.07,5.07,0,1,0,0,10.14h2.29C149.44,402.18,145,406.11,140,406.11Zm11.83-13.69c0,.13,0,.25,0,.38s0,.53-.08.79,0,.3-.07.45-.07.48-.11.71-.07.31-.11.47-.08.37-.13.55h-2.44a4.55,4.55,0,1,1,0-9.1h2.44c.05.19.09.37.13.56s.08.31.11.47.08.46.11.69.05.31.07.46.06.52.08.78,0,.26,0,.39c0,.4,0,.8,0,1.2S151.84,392,151.82,392.42Z" style="opacity:0.2"></path><path d="M228.36,216.19h-30.1a2.69,2.69,0,0,0-2.57,1.81c0,.14-.08.28-.11.43a2.71,2.71,0,0,0,2.68,3.22h52.8a2.72,2.72,0,0,0,1.38-5.08l-.21-.11a2.81,2.81,0,0,0-1.21-.27Z" style="fill:#263238"></path><path d="M207.56,396s2-30.49,19.3-63.18a6.71,6.71,0,0,0,.79-3.14V230.44a15,15,0,0,0-3.51-9.66l-3.85-4.59.84-1.51,3.81,1.92a15,15,0,0,1,8.28,13.24l1.3,105.22a6.51,6.51,0,0,1-.28,2l-18.52,61.7Z" style="fill:#263238"></path><path d="M221.06,395.77s3.18-36.9,18.69-61.14a6.53,6.53,0,0,0,1-3.54V229.6A15,15,0,0,0,235,217.75L231,214.68h-9.91l3.94,3.07a15,15,0,0,1,5.78,11.85V331.09a6.53,6.53,0,0,1-1,3.54c-15.5,24.24-18.69,61.14-18.69,61.14Z" style="fill:#263238"></path><path d="M221.06,395.77s3.18-36.9,18.69-61.14a6.53,6.53,0,0,0,1-3.54V229.6A15,15,0,0,0,235,217.75L231,214.68h-9.91l3.94,3.07a15,15,0,0,1,5.78,11.85V331.09a6.53,6.53,0,0,1-1,3.54c-15.5,24.24-18.69,61.14-18.69,61.14Z" style="fill:#fff;opacity:0.2"></path><path d="M222.91,395.48l-.61,6.29a2.45,2.45,0,0,1-2.44,2.21H200.41l1.84-1.9h1.67a1.72,1.72,0,0,0,1.71-1.56l.44-4.52a1.44,1.44,0,0,1,1.42-1.29h14.72A.71.71,0,0,1,222.91,395.48Z" style="fill:#263238"></path><path d="M222.91,395.48l-.61,6.29a2.45,2.45,0,0,1-2.44,2.21H204.4l3.64-.45a1.82,1.82,0,0,0,1.58-1.68l.44-5.85a1.42,1.42,0,0,1,1.41-1.29h10.74A.71.71,0,0,1,222.91,395.48Z" style="fill:#fff;opacity:0.1"></path></g></svg>
