<?xml version="1.0" encoding="utf-8"?>

<!DOCTYPE svg PUBLIC "-//W3C//DTD SVG 1.1//EN" "http://www.w3.org/Graphics/SVG/1.1/DTD/svg11.dtd">
<!-- Uploaded to: SVG Repo, www.svgrepo.com, Generator: SVG Repo Mixer Tools -->
<svg height="800px" width="800px" version="1.1" id="_x32_" xmlns="http://www.w3.org/2000/svg" xmlns:xlink="http://www.w3.org/1999/xlink" 
	 viewBox="0 0 512 512"  xml:space="preserve">
<style type="text/css">
	.st0{fill:#000000;}
</style>
<g>
	<path class="st0" d="M170.563,295.724c0,4.673,3.786,8.459,8.456,8.459h23.371c4.674,0,8.464-3.786,8.464-8.459v-17.412h-40.29
		V295.724z"/>
	<path class="st0" d="M301.142,295.724c0,4.673,3.786,8.459,8.468,8.459h23.362c4.674,0,8.456-3.786,8.456-8.459v-17.412h-40.286
		V295.724z"/>
	<path class="st0" d="M344.757,188.992l-11.877-43.054c-6.422-23.235-27.566-39.328-51.662-39.328h-50.441
		c-24.114,0-45.24,16.093-51.658,39.328l-11.886,43.054c-15.944,6.122-27.267,21.556-27.267,39.653
		c0,23.446,19.005,42.465,42.451,42.465h147.15c23.446,0,42.46-19.019,42.46-42.465
		C372.028,210.548,360.705,195.123,344.757,188.992z M182.418,246.916c-10.094,0-18.263-8.187-18.263-18.272
		c0-10.094,8.17-18.272,18.263-18.272c10.098,0,18.276,8.178,18.276,18.272C200.694,238.73,192.516,246.916,182.418,246.916z
		 M307.028,169.147c-0.694,0.914-1.775,1.449-2.922,1.449H207.89c-1.147,0-2.227-0.535-2.922-1.449
		c-0.693-0.914-0.926-2.09-0.619-3.206l4.327-15.664c3.43-12.421,14.814-21.092,27.698-21.092h39.249
		c12.883,0,24.268,8.671,27.698,21.074l4.322,15.681C307.954,167.056,307.73,168.233,307.028,169.147z M329.568,246.916
		c-10.089,0-18.272-8.187-18.272-18.272c0-10.094,8.182-18.272,18.272-18.272c10.098,0,18.276,8.178,18.276,18.272
		C347.844,238.73,339.667,246.916,329.568,246.916z"/>
	<path class="st0" d="M405.968,62.124C364.553,20.714,310.278,0,256.002,0c-54.28,0-108.556,20.714-149.97,62.124
		c-82.812,82.822-82.812,217.12,0,299.923L255.993,512l149.975-149.953C488.78,279.244,488.78,144.946,405.968,62.124z
		 M380.527,336.607L255.993,461.119L131.472,336.607c-68.655-68.66-68.655-180.373,0.005-249.042
		c33.263-33.259,77.484-51.583,124.526-51.583c47.037,0,91.258,18.324,124.521,51.583
		C449.184,156.234,449.184,267.947,380.527,336.607z"/>
</g>
</svg>