<svg width="100" height="100" viewBox="0 0 100 100" fill="none" xmlns="http://www.w3.org/2000/svg">
<path d="M38.556 92.066C44.322 95.79 55.156 91.266 59.278 87.018C72.68 73.2 96.386 49.864 91.8 25.54C89.846 15.202 79.54 12.034 75.4 11.378C65.432 9.8 55.248 11.084 45.36 13.03C35.034 15.062 24.16 18.088 16.176 25.312C13.152 28.05 10.454 31.272 9 35.126C7.532 39.04 7.2 43.358 7.826 47.48C8.85 54.126 12.192 60.226 16.294 65.554C20.396 70.882 25.278 75.554 29.894 80.436C32.926 83.622 33.7 88.93 38.556 92.066Z" fill="#407BFF"/>
<path opacity="0.7" d="M38.556 92.066C44.322 95.79 55.156 91.266 59.278 87.018C72.68 73.2 96.386 49.864 91.8 25.54C89.846 15.202 79.54 12.034 75.4 11.378C65.432 9.8 55.248 11.084 45.36 13.03C35.034 15.062 24.16 18.088 16.176 25.312C13.152 28.05 10.454 31.272 9 35.126C7.532 39.04 7.2 43.358 7.826 47.48C8.85 54.126 12.192 60.226 16.294 65.554C20.396 70.882 25.278 75.554 29.894 80.436C32.926 83.622 33.7 88.93 38.556 92.066Z" fill="white"/>
<path d="M17.8 37.484L17.016 37.416C16.9497 37.176 16.8543 36.9449 16.732 36.728L17.476 35.844L16.388 34.756M17.476 40.726L16.732 39.842C16.8543 39.6244 16.9497 39.3927 17.016 39.152L18.168 39.054V37.516M15.5 41.07L16.382 41.812L17.122 41.072M10.872 39.152C10.9391 39.3924 11.0345 39.624 11.156 39.842L10.414 40.726L11.5 41.812L12.384 41.07C12.602 41.1915 12.8336 41.2868 13.074 41.354L13.172 42.506H14.71L14.81 41.354M10.864 35.4L10.414 35.852L11.156 36.736C11.0345 36.9533 10.9392 37.1843 10.872 37.424L9.71997 37.524V39.062L10.414 39.13M15.5 35.5C15.2818 35.3788 15.0502 35.2835 14.81 35.216L14.71 34.064H13.172L13.074 35.216C12.8336 35.2832 12.602 35.3785 12.384 35.5L11.5 34.756L11.154 35.102M12.714 36.986C12.9236 36.7878 13.178 36.6433 13.4555 36.5648C13.733 36.4862 14.0254 36.476 14.3078 36.535C14.5901 36.5939 14.854 36.7203 15.0769 36.9033C15.2998 37.0863 15.4752 37.3205 15.588 37.586M13.324 39.962C12.9811 39.8352 12.6853 39.6064 12.4765 39.3064C12.2676 39.0064 12.1558 38.6495 12.156 38.284M15.728 38.284C15.728 38.7577 15.5398 39.2119 15.2049 39.5469C14.8699 39.8818 14.4156 40.07 13.942 40.07" stroke="#263238" stroke-linecap="round" stroke-linejoin="round"/>
<path d="M87.2 17.44L85.956 17.332C85.8495 16.9506 85.6977 16.5833 85.504 16.238L86.684 14.838L84.958 13.112M86.684 22.584L85.504 21.184C85.6977 20.8387 85.8495 20.4714 85.956 20.09L87.782 19.932V17.49M83.558 23.128L84.958 24.308L86.132 23.134M81.256 25.4H82.294L82.452 23.574M76.2 14.12L75.484 14.836L76.664 16.236C76.4667 16.5818 76.311 16.9497 76.2 17.332L74.374 17.49M83.544 14.29C83.1974 14.0974 82.8296 13.9457 82.448 13.838L82.29 12.012H79.856L79.698 13.838C79.3155 13.9451 78.947 14.0968 78.6 14.29L77.2 13.11L76.652 13.658M79.126 16.658C79.4573 16.3422 79.8603 16.1114 80.3003 15.9855C80.7404 15.8595 81.2044 15.8421 81.6527 15.9347C82.101 16.0273 82.5201 16.2271 82.8742 16.5172C83.2283 16.8072 83.5069 17.1788 83.686 17.6M83.91 18.702C83.91 19.4538 83.6114 20.1748 83.08 20.7066C82.5486 21.2384 81.8278 21.5375 81.076 21.538" stroke="#263238" stroke-linecap="round" stroke-linejoin="round"/>
<g opacity="0.3">
<path d="M76.842 74.6C76.7801 74.4808 76.6952 74.3751 76.5922 74.2889C76.4892 74.2028 76.3702 74.1379 76.242 74.098L63.642 70.116C63.5098 70.0749 63.3707 70.0613 63.2331 70.0761C63.0955 70.0909 62.9624 70.1337 62.842 70.202L62.242 70.016C62.2552 69.9404 62.2393 69.8626 62.1975 69.7983C62.1557 69.7339 62.0911 69.6877 62.0167 69.669C61.9423 69.6502 61.8635 69.6603 61.7963 69.6973C61.729 69.7342 61.6782 69.7952 61.654 69.868L61.584 70.084L51.108 66.772C51.0915 66.768 51.0744 66.768 51.058 66.772L50.386 66.908C50.3683 66.9113 50.3518 66.9193 50.3384 66.9313C50.325 66.9433 50.3152 66.9588 50.31 66.976C50.3049 66.9929 50.3042 67.0107 50.3081 67.0279C50.3119 67.0451 50.3202 67.061 50.332 67.074L50.804 67.572C50.8161 67.5843 50.8313 67.5933 50.848 67.598L61.324 70.91L61.256 71.126C61.2438 71.1641 61.2393 71.2042 61.2427 71.244C61.2462 71.2838 61.2575 71.3226 61.276 71.358C61.3132 71.4295 61.3772 71.4834 61.454 71.508C61.492 71.5202 61.5322 71.5247 61.572 71.5213C61.6118 71.5178 61.6506 71.5065 61.686 71.488C61.7464 71.4578 61.7944 71.4076 61.822 71.346L62.422 71.532C62.4815 71.6588 62.5665 71.7718 62.6719 71.8641C62.7772 71.9563 62.9005 72.0258 63.034 72.068L75.634 76.05C75.7621 76.0907 75.8971 76.1056 76.031 76.094C76.165 76.0824 76.2953 76.0445 76.4146 75.9825C76.5339 75.9204 76.6397 75.8354 76.7261 75.7324C76.8125 75.6294 76.8777 75.5103 76.918 75.382C76.9577 75.2531 76.9715 75.1176 76.9585 74.9834C76.9454 74.8491 76.9058 74.7188 76.842 74.6Z" fill="black"/>
<path d="M35.418 72.316L34.784 72.116C34.7887 72.0922 34.7846 72.0676 34.7724 72.0466C34.7603 72.0256 34.7409 72.0098 34.718 72.002L33.866 71.738C33.8405 71.7304 33.8131 71.7331 33.7896 71.7454C33.7661 71.7577 33.7483 71.7788 33.74 71.804L33.51 72.55C33.5025 72.5752 33.5052 72.6023 33.5176 72.6255C33.5299 72.6487 33.5509 72.6662 33.576 72.674L34.428 72.938H34.458C34.4772 72.9377 34.4959 72.9318 34.5118 72.9212C34.5278 72.9106 34.5403 72.8956 34.548 72.878L35.182 73.078C35.2541 73.101 35.3142 73.1515 35.3494 73.2185C35.3846 73.2854 35.392 73.3636 35.37 73.436L33.57 79.226C33.5646 79.2447 33.5645 79.2646 33.5698 79.2833C33.5751 79.302 33.5856 79.3189 33.6 79.332L33.42 79.916C33.4102 79.9404 33.4102 79.9676 33.42 79.992C33.4328 80.0146 33.4534 80.0316 33.478 80.04L33.938 80.182C33.9472 80.1841 33.9568 80.1841 33.966 80.182C33.9874 80.1821 34.0082 80.1754 34.0255 80.1628C34.0428 80.1502 34.0556 80.1324 34.062 80.112L34.244 79.526C34.2551 79.529 34.2669 79.529 34.278 79.526C34.2896 79.5203 34.2999 79.5121 34.3082 79.5021C34.3165 79.4921 34.3225 79.4805 34.326 79.468L36.126 73.668C36.2099 73.393 36.1817 73.0959 36.0476 72.8416C35.9135 72.5872 35.6843 72.3961 35.41 72.31L35.418 72.316Z" fill="black"/>
<path d="M29.696 76.632C29.7102 76.6146 29.7173 76.5925 29.716 76.57C29.716 76.5567 29.7132 76.5436 29.7077 76.5315C29.7021 76.5194 29.6941 76.5087 29.684 76.5L29.022 75.9C29.0123 75.8911 29.001 75.8842 28.9886 75.8797C28.9763 75.8752 28.9631 75.8733 28.95 75.874C28.9232 75.8761 28.8982 75.8882 28.88 75.908L28.358 76.486C28.3486 76.4953 28.3412 76.5064 28.3361 76.5186C28.331 76.5307 28.3284 76.5438 28.3284 76.557C28.3284 76.5702 28.331 76.5833 28.3361 76.5955C28.3412 76.6077 28.3486 76.6187 28.358 76.628L29.018 77.228C29.037 77.2442 29.061 77.2533 29.086 77.254C29.1092 77.2535 29.1313 77.2442 29.148 77.228L29.64 77.672C29.6965 77.7237 29.7303 77.7956 29.734 77.872C29.7367 77.9458 29.7101 78.0177 29.66 78.072L25.598 82.57C25.5849 82.5844 25.5764 82.6024 25.5736 82.6216C25.5707 82.6408 25.5736 82.6605 25.582 82.678L25.182 83.132C25.1726 83.1413 25.1652 83.1524 25.1601 83.1646C25.155 83.1767 25.1524 83.1898 25.1524 83.203C25.1524 83.2162 25.155 83.2293 25.1601 83.2415C25.1652 83.2537 25.1726 83.2647 25.182 83.274L25.538 83.594C25.5561 83.6105 25.5795 83.6197 25.604 83.62C25.6182 83.6203 25.6323 83.6176 25.6454 83.612C25.6584 83.6065 25.6702 83.5983 25.68 83.588L26.08 83.134C26.0906 83.1359 26.1014 83.1359 26.112 83.134C26.1382 83.1319 26.1625 83.1197 26.18 83.1L30.242 78.602C30.4346 78.388 30.5345 78.1064 30.5199 77.8189C30.5053 77.5314 30.3773 77.2614 30.164 77.068L29.696 76.632Z" fill="black"/>
<path d="M63.09 78.84L61.312 79.316L60.782 78.784L60.982 78.06L62.76 77.586C62.7758 77.5813 62.7903 77.5729 62.8021 77.5614C62.814 77.5499 62.8229 77.5357 62.828 77.52C62.8337 77.5048 62.8353 77.4883 62.8329 77.4722C62.8304 77.4561 62.8239 77.4409 62.814 77.428C62.5938 77.1408 62.3013 76.9171 61.9664 76.7799C61.6314 76.6426 61.2661 76.5966 60.9076 76.6466C60.5492 76.6967 60.2104 76.8409 59.9258 77.0646C59.6413 77.2883 59.4212 77.5835 59.288 77.92L42.288 82.466C42.0185 82.2741 41.7039 82.1552 41.3748 82.1208C41.0458 82.0865 40.7134 82.1378 40.4101 82.2699C40.1067 82.4019 39.8427 82.6102 39.6436 82.8745C39.4445 83.1387 39.3172 83.45 39.274 83.778C39.2718 83.7942 39.2737 83.8107 39.2794 83.8261C39.2851 83.8414 39.2945 83.8551 39.3068 83.866C39.319 83.8768 39.3337 83.8845 39.3496 83.8884C39.3655 83.8922 39.3822 83.8921 39.398 83.888L41.054 83.444L41.544 83.934L41.364 84.602L39.708 85.046C39.6921 85.0504 39.6776 85.0587 39.6657 85.07C39.6538 85.0814 39.6449 85.0955 39.6398 85.1111C39.6346 85.1267 39.6334 85.1434 39.6362 85.1596C39.6391 85.1758 39.6459 85.1911 39.656 85.204C39.8348 85.4367 40.0646 85.6252 40.3278 85.7549C40.5911 85.8846 40.8806 85.952 41.174 85.952C41.3427 85.9524 41.5108 85.9309 41.674 85.888C41.947 85.8148 42.2004 85.6822 42.4161 85.4996C42.6319 85.3171 42.8046 85.0891 42.922 84.832L59.91 80.286C59.9876 80.3472 60.0691 80.4033 60.154 80.454C60.4458 80.6221 60.7745 80.7158 61.1111 80.7269C61.4477 80.7379 61.7818 80.666 62.084 80.5173C62.3862 80.3687 62.6472 80.148 62.8439 79.8747C63.0406 79.6013 63.167 79.2838 63.212 78.95C63.2141 78.9339 63.2123 78.9174 63.2067 78.9021C63.2011 78.8868 63.192 78.8731 63.18 78.862C63.1677 78.8516 63.1532 78.8443 63.1376 78.8404C63.122 78.8366 63.1057 78.8365 63.09 78.84Z" fill="black"/>
</g>
<path d="M64.768 70.788L64.568 71.422L50.882 67.094L50.41 66.598L51.082 66.462L64.768 70.788Z" fill="#999999" stroke="#263238" stroke-linecap="round" stroke-linejoin="round"/>
<path d="M62.852 69.906L62.124 69.676L62.142 69.616C62.1584 69.5643 62.1537 69.5082 62.1287 69.46C62.1038 69.4118 62.0607 69.3755 62.009 69.359C61.9573 69.3426 61.9011 69.3473 61.8529 69.3723C61.8047 69.3972 61.7684 69.4403 61.752 69.492L61.352 70.748C61.3355 70.8011 61.3408 70.8585 61.3667 70.9076C61.3926 70.9567 61.4369 70.9936 61.49 71.01C61.543 71.0265 61.6004 71.0212 61.6496 70.9953C61.6987 70.9694 61.7355 70.9251 61.752 70.872L61.77 70.812L62.498 71.042C62.5493 71.1655 62.6269 71.2763 62.7253 71.3667C62.8237 71.4572 62.9407 71.5252 63.068 71.566L75.668 75.546C75.9014 75.6197 76.1545 75.5977 76.3717 75.4848C76.5888 75.3719 76.7523 75.1774 76.826 74.944C76.8997 74.7106 76.8777 74.4575 76.7648 74.2403C76.6519 74.0232 76.4574 73.8597 76.224 73.786L63.624 69.804C63.4956 69.7637 63.36 69.7519 63.2267 69.7695C63.0933 69.7871 62.9654 69.8337 62.852 69.906Z" fill="#407BFF" stroke="#263238" stroke-linecap="round" stroke-linejoin="round"/>
<path d="M62.852 69.906L62.596 70.716" stroke="#263238" stroke-linecap="round" stroke-linejoin="round"/>
<path d="M61.764 70.812L61.996 70.08" stroke="#263238" stroke-linecap="round" stroke-linejoin="round"/>
<path d="M33.7567 78.7994L33.525 79.5484L33.9836 79.6903L34.2153 78.9413L33.7567 78.7994Z" fill="#999999" stroke="#263238" stroke-linecap="round" stroke-linejoin="round"/>
<path d="M34.248 79.036L33.674 78.858L35.474 73.058C35.504 72.9601 35.4938 72.8544 35.4458 72.764C35.3978 72.6736 35.3159 72.606 35.218 72.576L33.93 72.176L34.108 71.604L35.396 72.004C35.5197 72.0423 35.6347 72.1046 35.7343 72.1874C35.834 72.2702 35.9163 72.3718 35.9767 72.4863C36.037 72.6009 36.0742 72.7263 36.0861 72.8553C36.098 72.9842 36.0844 73.1143 36.046 73.238L34.248 79.036Z" fill="#999999" stroke="#263238" stroke-linecap="round" stroke-linejoin="round"/>
<path d="M33.8351 71.4408L33.6046 72.1859L34.4567 72.4495L34.6872 71.7044L33.8351 71.4408Z" fill="#999999" stroke="#263238" stroke-linecap="round" stroke-linejoin="round"/>
<path d="M25.7824 82.2202L25.257 82.8021L25.6132 83.1237L26.1386 82.5418L25.7824 82.2202Z" fill="#999999" stroke="#263238" stroke-linecap="round" stroke-linejoin="round"/>
<path d="M26.13 82.642L25.684 82.242L29.746 77.742C29.78 77.7045 29.8063 77.6607 29.8233 77.613C29.8403 77.5653 29.8477 77.5147 29.8451 77.4642C29.8425 77.4136 29.8299 77.3641 29.8081 77.3184C29.7863 77.2727 29.7557 77.2318 29.718 77.198L28.718 76.294L29.118 75.848L30.118 76.752C30.2152 76.8388 30.2943 76.944 30.3506 77.0616C30.407 77.1792 30.4394 77.3068 30.4461 77.437C30.4528 77.5672 30.4336 77.6974 30.3896 77.8201C30.3457 77.9429 30.2778 78.0557 30.19 78.152L26.13 82.642Z" fill="#999999" stroke="#263238" stroke-linecap="round" stroke-linejoin="round"/>
<path d="M28.9544 75.5777L28.4317 76.1566L29.0938 76.7544L29.6165 76.1755L28.9544 75.5777Z" fill="#999999" stroke="#263238" stroke-linecap="round" stroke-linejoin="round"/>
<path d="M59.9949 77.4366L41.6 82.3586L42.1811 84.5303L60.576 79.6082L59.9949 77.4366Z" fill="#407BFF" stroke="#263238" stroke-linecap="round" stroke-linejoin="round"/>
<path d="M40.708 81.874C40.3608 81.9668 40.0488 82.1602 39.8114 82.43C39.574 82.6998 39.4218 83.0339 39.374 83.39L41.086 82.932L41.656 83.504L41.456 84.284L39.744 84.742C39.9449 85.0031 40.2129 85.2048 40.5194 85.3255C40.8259 85.4463 41.1595 85.4815 41.4845 85.4276C41.8095 85.3736 42.1138 85.2325 42.3648 85.0191C42.6159 84.8058 42.8044 84.5284 42.9101 84.2163C43.0158 83.9043 43.0349 83.5695 42.9653 83.2474C42.8956 82.9254 42.7399 82.6284 42.5147 82.3879C42.2894 82.1475 42.0032 81.9727 41.6864 81.8822C41.3696 81.7917 41.0342 81.7889 40.716 81.874H40.708Z" fill="#407BFF" stroke="#263238" stroke-linecap="round" stroke-linejoin="round"/>
<path d="M61.686 80.162C62.0582 80.0624 62.3927 79.8548 62.6471 79.5655C62.9016 79.2761 63.0647 78.9179 63.116 78.536L61.282 79.026L60.672 78.414L60.896 77.58L62.728 77.088C62.5127 76.8084 62.2255 76.5925 61.8971 76.4633C61.5687 76.3341 61.2114 76.2965 60.8633 76.3544C60.5152 76.4122 60.1893 76.5635 59.9204 76.792C59.6515 77.0205 59.4497 77.3177 59.3364 77.6519C59.2231 77.9861 59.2026 78.3448 59.2771 78.6898C59.3517 79.0347 59.5184 79.3529 59.7596 79.6106C60.0007 79.8682 60.3073 80.0555 60.6465 80.1526C60.9858 80.2498 61.345 80.253 61.686 80.162Z" fill="#407BFF" stroke="#263238" stroke-linecap="round" stroke-linejoin="round"/>
<path d="M57.366 79.758L45.306 82.986C45.2497 83.0014 45.1908 83.0055 45.1329 82.998C45.075 82.9905 45.0191 82.9717 44.9685 82.9425C44.9179 82.9133 44.8736 82.8743 44.8382 82.8279C44.8027 82.7815 44.7768 82.7285 44.762 82.672C44.7321 82.5585 44.7483 82.4378 44.8071 82.3362C44.866 82.2346 44.9626 82.1605 45.076 82.13L57.138 78.902C57.2515 78.8721 57.3722 78.8883 57.4738 78.9471C57.5754 79.006 57.6495 79.1027 57.68 79.216C57.7099 79.3295 57.6937 79.4502 57.6349 79.5518C57.576 79.6534 57.4794 79.7275 57.366 79.758Z" fill="#999999" stroke="#263238" stroke-linecap="round" stroke-linejoin="round"/>
<path d="M68.106 18.414H70.842C70.895 18.414 70.9459 18.4351 70.9834 18.4726C71.0209 18.5101 71.042 18.561 71.042 18.614V19.768H67.91V18.612C67.9105 18.56 67.9312 18.5102 67.9678 18.4733C68.0044 18.4363 68.054 18.415 68.106 18.414Z" fill="#BFBFBF" stroke="#263238" stroke-linecap="round" stroke-linejoin="round"/>
<path d="M71.832 18.414H74.568C74.621 18.414 74.6719 18.4351 74.7094 18.4726C74.7469 18.5101 74.768 18.561 74.768 18.614V19.768H71.634V18.612C71.6345 18.5596 71.6555 18.5096 71.6925 18.4726C71.7296 18.4356 71.7796 18.4145 71.832 18.414Z" fill="#BFBFBF" stroke="#263238" stroke-linecap="round" stroke-linejoin="round"/>
<path d="M25.03 18.414H31C31.053 18.414 31.1039 18.4351 31.1414 18.4726C31.1789 18.5101 31.2 18.561 31.2 18.614V19.768H24.832V18.612C24.8325 18.5596 24.8535 18.5096 24.8905 18.4726C24.9276 18.4356 24.9776 18.4145 25.03 18.414Z" fill="#BFBFBF" stroke="#263238" stroke-linecap="round" stroke-linejoin="round"/>
<path d="M80.46 58.914V22.876C80.46 20.5818 78.6002 18.722 76.306 18.722L23.36 18.722C21.0658 18.722 19.206 20.5818 19.206 22.876V58.914C19.206 61.2082 21.0658 63.068 23.36 63.068H76.306C78.6002 63.068 80.46 61.2082 80.46 58.914Z" fill="#BFBFBF" stroke="#263238" stroke-linecap="round" stroke-linejoin="round"/>
<path d="M76.442 19.188H23.228C21.2652 19.188 19.674 20.7792 19.674 22.742V59.05C19.674 61.0128 21.2652 62.604 23.228 62.604H76.442C78.4048 62.604 79.996 61.0128 79.996 59.05V22.742C79.996 20.7792 78.4048 19.188 76.442 19.188Z" fill="#263238"/>
<path d="M20.566 39.276C20.566 39.3155 20.5543 39.3542 20.5323 39.3871C20.5103 39.42 20.4791 39.4456 20.4426 39.4608C20.406 39.4759 20.3658 39.4799 20.327 39.4721C20.2882 39.4644 20.2526 39.4454 20.2246 39.4174C20.1966 39.3894 20.1776 39.3538 20.1699 39.315C20.1621 39.2762 20.1661 39.236 20.1812 39.1995C20.1964 39.1629 20.222 39.1317 20.2549 39.1097C20.2878 39.0877 20.3265 39.076 20.366 39.076C20.4191 39.076 20.4699 39.0971 20.5074 39.1346C20.5449 39.1721 20.566 39.2229 20.566 39.276Z" fill="white" stroke="#263238" stroke-linecap="round" stroke-linejoin="round"/>
<path d="M20.754 41.14C20.754 41.2191 20.7305 41.2964 20.6866 41.3622C20.6426 41.428 20.5801 41.4793 20.5071 41.5095C20.434 41.5398 20.3535 41.5477 20.2759 41.5323C20.1984 41.5169 20.1271 41.4788 20.0711 41.4228C20.0152 41.3669 19.9771 41.2956 19.9617 41.218C19.9462 41.1404 19.9542 41.06 19.9844 40.9869C20.0147 40.9138 20.066 40.8514 20.1318 40.8074C20.1975 40.7635 20.2749 40.74 20.354 40.74C20.4601 40.74 20.5618 40.7821 20.6368 40.8571C20.7118 40.9322 20.754 41.0339 20.754 41.14Z" fill="white" stroke="#263238" stroke-linecap="round" stroke-linejoin="round"/>
<path d="M20.648 42.434C20.6484 42.4906 20.6319 42.5461 20.6008 42.5934C20.5696 42.6407 20.525 42.6777 20.4728 42.6996C20.4206 42.7216 20.363 42.7275 20.3074 42.7167C20.2518 42.7059 20.2007 42.6789 20.1605 42.6389C20.1203 42.599 20.0928 42.5481 20.0816 42.4925C20.0704 42.437 20.076 42.3794 20.0976 42.327C20.1192 42.2746 20.1558 42.2299 20.2029 42.1983C20.25 42.1668 20.3053 42.15 20.362 42.15C20.4375 42.15 20.5099 42.1798 20.5635 42.2331C20.6171 42.2863 20.6475 42.3585 20.648 42.434Z" fill="white" stroke="#263238" stroke-linecap="round" stroke-linejoin="round"/>
<path d="M78.598 59.452V22.34C78.598 21.3713 77.8127 20.586 76.844 20.586L22.824 20.586C21.8553 20.586 21.07 21.3713 21.07 22.34V59.452C21.07 60.4207 21.8553 61.206 22.824 61.206H76.844C77.8127 61.206 78.598 60.4207 78.598 59.452Z" fill="white" stroke="#263238" stroke-linecap="round" stroke-linejoin="round"/>
<path opacity="0.3" d="M78.598 59.452V22.34C78.598 21.3713 77.8127 20.586 76.844 20.586L22.824 20.586C21.8553 20.586 21.07 21.3713 21.07 22.34V59.452C21.07 60.4207 21.8553 61.206 22.824 61.206H76.844C77.8127 61.206 78.598 60.4207 78.598 59.452Z" fill="#407BFF"/>
<path d="M36.704 29.236H25.652C25.5989 29.236 25.5481 29.2149 25.5105 29.1774C25.473 29.1399 25.452 29.089 25.452 29.036C25.452 28.983 25.473 28.9321 25.5105 28.8946C25.5481 28.8571 25.5989 28.836 25.652 28.836H36.704C36.757 28.836 36.8079 28.8571 36.8454 28.8946C36.8829 28.9321 36.904 28.983 36.904 29.036C36.904 29.089 36.8829 29.1399 36.8454 29.1774C36.8079 29.2149 36.757 29.236 36.704 29.236Z" fill="#263238"/>
<path d="M33.466 31.638H25.652C25.5989 31.638 25.5481 31.6169 25.5105 31.5794C25.473 31.5419 25.452 31.491 25.452 31.438C25.452 31.385 25.473 31.3341 25.5105 31.2966C25.5481 31.2591 25.5989 31.238 25.652 31.238H33.466C33.519 31.238 33.5699 31.2591 33.6074 31.2966C33.6449 31.3341 33.666 31.385 33.666 31.438C33.666 31.491 33.6449 31.5419 33.6074 31.5794C33.5699 31.6169 33.519 31.638 33.466 31.638Z" fill="#263238"/>
<path d="M38.324 34.04H25.652C25.5989 34.04 25.5481 34.0189 25.5105 33.9814C25.473 33.9439 25.452 33.8931 25.452 33.84C25.452 33.787 25.473 33.7361 25.5105 33.6986C25.5481 33.6611 25.5989 33.64 25.652 33.64H38.324C38.377 33.64 38.4279 33.6611 38.4654 33.6986C38.5029 33.7361 38.524 33.787 38.524 33.84C38.524 33.8931 38.5029 33.9439 38.4654 33.9814C38.4279 34.0189 38.377 34.04 38.324 34.04Z" fill="#263238"/>
<path d="M36.704 36.442H25.652C25.5989 36.442 25.5481 36.4209 25.5105 36.3834C25.473 36.3459 25.452 36.295 25.452 36.242C25.452 36.1889 25.473 36.1381 25.5105 36.1006C25.5481 36.0631 25.5989 36.042 25.652 36.042H36.704C36.757 36.042 36.8079 36.0631 36.8454 36.1006C36.8829 36.1381 36.904 36.1889 36.904 36.242C36.904 36.295 36.8829 36.3459 36.8454 36.3834C36.8079 36.4209 36.757 36.442 36.704 36.442Z" fill="#263238"/>
<path d="M33.466 38.844H25.652C25.5989 38.844 25.5481 38.8229 25.5105 38.7854C25.473 38.7479 25.452 38.697 25.452 38.644C25.452 38.591 25.473 38.5401 25.5105 38.5026C25.5481 38.4651 25.5989 38.444 25.652 38.444H33.466C33.519 38.444 33.5699 38.4651 33.6074 38.5026C33.6449 38.5401 33.666 38.591 33.666 38.644C33.666 38.697 33.6449 38.7479 33.6074 38.7854C33.5699 38.8229 33.519 38.844 33.466 38.844Z" fill="#263238"/>
<path opacity="0.2" d="M40.056 29.544H42.228C42.4224 29.544 42.58 29.3864 42.58 29.192V28.876C42.58 28.6816 42.4224 28.524 42.228 28.524H40.056C39.8616 28.524 39.704 28.6816 39.704 28.876V29.192C39.704 29.3864 39.8616 29.544 40.056 29.544Z" fill="black"/>
<path d="M40.054 29.544H40.496C40.6904 29.544 40.848 29.3864 40.848 29.192V28.876C40.848 28.6816 40.6904 28.524 40.496 28.524H40.054C39.8596 28.524 39.702 28.6816 39.702 28.876V29.192C39.702 29.3864 39.8596 29.544 40.054 29.544Z" fill="#407BFF" stroke="#263238" stroke-linecap="round" stroke-linejoin="round"/>
<path opacity="0.2" d="M42.228 30.926H40.056C39.8616 30.926 39.704 31.0836 39.704 31.278V31.594C39.704 31.7884 39.8616 31.946 40.056 31.946H42.228C42.4224 31.946 42.58 31.7884 42.58 31.594V31.278C42.58 31.0836 42.4224 30.926 42.228 30.926Z" fill="black"/>
<path d="M42.23 30.926H41.788C41.5936 30.926 41.436 31.0836 41.436 31.278V31.594C41.436 31.7884 41.5936 31.946 41.788 31.946H42.23C42.4244 31.946 42.582 31.7884 42.582 31.594V31.278C42.582 31.0836 42.4244 30.926 42.23 30.926Z" fill="#999999" stroke="#263238" stroke-linecap="round" stroke-linejoin="round"/>
<path opacity="0.2" d="M42.228 33.328H40.056C39.8616 33.328 39.704 33.4856 39.704 33.68V33.996C39.704 34.1904 39.8616 34.348 40.056 34.348H42.228C42.4224 34.348 42.58 34.1904 42.58 33.996V33.68C42.58 33.4856 42.4224 33.328 42.228 33.328Z" fill="black"/>
<path d="M42.23 33.328H41.788C41.5936 33.328 41.436 33.4856 41.436 33.68V33.996C41.436 34.1904 41.5936 34.348 41.788 34.348H42.23C42.4244 34.348 42.582 34.1904 42.582 33.996V33.68C42.582 33.4856 42.4244 33.328 42.23 33.328Z" fill="#999999" stroke="#263238" stroke-linecap="round" stroke-linejoin="round"/>
<path opacity="0.2" d="M40.056 36.748H42.228C42.4224 36.748 42.58 36.5904 42.58 36.396V36.08C42.58 35.8856 42.4224 35.728 42.228 35.728H40.056C39.8616 35.728 39.704 35.8856 39.704 36.08V36.396C39.704 36.5904 39.8616 36.748 40.056 36.748Z" fill="black"/>
<path d="M40.054 36.748H40.496C40.6904 36.748 40.848 36.5904 40.848 36.396V36.08C40.848 35.8856 40.6904 35.728 40.496 35.728H40.054C39.8596 35.728 39.702 35.8856 39.702 36.08V36.396C39.702 36.5904 39.8596 36.748 40.054 36.748Z" fill="#407BFF" stroke="#263238" stroke-linecap="round" stroke-linejoin="round"/>
<path opacity="0.2" d="M42.228 38.132H40.056C39.8616 38.132 39.704 38.2896 39.704 38.484V38.8C39.704 38.9944 39.8616 39.152 40.056 39.152H42.228C42.4224 39.152 42.58 38.9944 42.58 38.8V38.484C42.58 38.2896 42.4224 38.132 42.228 38.132Z" fill="black"/>
<path d="M42.23 38.132H41.788C41.5936 38.132 41.436 38.2896 41.436 38.484V38.8C41.436 38.9944 41.5936 39.152 41.788 39.152H42.23C42.4244 39.152 42.582 38.9944 42.582 38.8V38.484C42.582 38.2896 42.4244 38.132 42.23 38.132Z" fill="#999999" stroke="#263238" stroke-linecap="round" stroke-linejoin="round"/>
<path d="M57.904 31.638H47.824C47.7709 31.638 47.72 31.6169 47.6825 31.5794C47.645 31.5419 47.624 31.491 47.624 31.438C47.624 31.385 47.645 31.3341 47.6825 31.2966C47.72 31.2591 47.7709 31.238 47.824 31.238H57.904C57.957 31.238 58.0079 31.2591 58.0454 31.2966C58.0829 31.3341 58.104 31.385 58.104 31.438C58.104 31.491 58.0829 31.5419 58.0454 31.5794C58.0079 31.6169 57.957 31.638 57.904 31.638Z" fill="#263238"/>
<path d="M56.286 29.236H47.824C47.7709 29.236 47.72 29.2149 47.6825 29.1774C47.645 29.1399 47.624 29.089 47.624 29.036C47.624 28.983 47.645 28.9321 47.6825 28.8946C47.72 28.8571 47.7709 28.836 47.824 28.836H56.286C56.339 28.836 56.3899 28.8571 56.4274 28.8946C56.4649 28.9321 56.486 28.983 56.486 29.036C56.486 29.089 56.4649 29.1399 56.4274 29.1774C56.3899 29.2149 56.339 29.236 56.286 29.236Z" fill="#263238"/>
<path d="M57.904 38.844H47.824C47.7709 38.844 47.72 38.8229 47.6825 38.7854C47.645 38.7479 47.624 38.697 47.624 38.644C47.624 38.591 47.645 38.5401 47.6825 38.5026C47.72 38.4651 47.7709 38.444 47.824 38.444H57.904C57.957 38.444 58.0079 38.4651 58.0454 38.5026C58.0829 38.5401 58.104 38.591 58.104 38.644C58.104 38.697 58.0829 38.7479 58.0454 38.7854C58.0079 38.8229 57.957 38.844 57.904 38.844Z" fill="#263238"/>
<path d="M54.666 36.442H47.824C47.7709 36.442 47.72 36.4209 47.6825 36.3834C47.645 36.3459 47.624 36.295 47.624 36.242C47.624 36.1889 47.645 36.1381 47.6825 36.1006C47.72 36.0631 47.7709 36.042 47.824 36.042H54.666C54.719 36.042 54.7699 36.0631 54.8074 36.1006C54.8449 36.1381 54.866 36.1889 54.866 36.242C54.866 36.295 54.8449 36.3459 54.8074 36.3834C54.7699 36.4209 54.719 36.442 54.666 36.442Z" fill="#263238"/>
<path d="M53.046 34.04H47.824C47.7709 34.04 47.72 34.0189 47.6825 33.9814C47.645 33.9439 47.624 33.8931 47.624 33.84C47.624 33.787 47.645 33.7361 47.6825 33.6986C47.72 33.6611 47.7709 33.64 47.824 33.64H53.046C53.099 33.64 53.1499 33.6611 53.1874 33.6986C53.2249 33.7361 53.246 33.787 53.246 33.84C53.246 33.8931 53.2249 33.9439 53.1874 33.9814C53.1499 34.0189 53.099 34.04 53.046 34.04Z" fill="#263238"/>
<path d="M61.516 28.676H60.804V29.388H61.516V28.676Z" fill="#999999" stroke="#263238" stroke-linecap="round" stroke-linejoin="round"/>
<path d="M62.574 28.676H61.862V29.388H62.574V28.676Z" fill="#999999" stroke="#263238" stroke-linecap="round" stroke-linejoin="round"/>
<path d="M63.632 28.676H62.92V29.388H63.632V28.676Z" fill="#999999" stroke="#263238" stroke-linecap="round" stroke-linejoin="round"/>
<path d="M64.692 28.676H63.98V29.388H64.692V28.676Z" fill="#999999" stroke="#263238" stroke-linecap="round" stroke-linejoin="round"/>
<path d="M65.75 28.676H65.038V29.388H65.75V28.676Z" fill="#999999" stroke="#263238" stroke-linecap="round" stroke-linejoin="round"/>
<path d="M66.808 28.676H66.096V29.388H66.808V28.676Z" fill="#999999" stroke="#263238" stroke-linecap="round" stroke-linejoin="round"/>
<path d="M67.866 28.676H67.154V29.388H67.866V28.676Z" fill="#999999" stroke="#263238" stroke-linecap="round" stroke-linejoin="round"/>
<path d="M68.926 28.676H68.214V29.388H68.926V28.676Z" fill="#999999" stroke="#263238" stroke-linecap="round" stroke-linejoin="round"/>
<path d="M69.984 28.676H69.272V29.388H69.984V28.676Z" fill="#407BFF" stroke="#263238" stroke-linecap="round" stroke-linejoin="round"/>
<path d="M71.042 28.676H70.33V29.388H71.042V28.676Z" fill="#407BFF" stroke="#263238" stroke-linecap="round" stroke-linejoin="round"/>
<path opacity="0.2" d="M72.1 28.676H71.388V29.388H72.1V28.676Z" fill="#263238"/>
<path opacity="0.2" d="M73.16 28.676H72.448V29.388H73.16V28.676Z" fill="#263238"/>
<path opacity="0.2" d="M74.218 28.676H73.506V29.388H74.218V28.676Z" fill="#263238"/>
<path d="M61.516 31.078H60.804V31.79H61.516V31.078Z" fill="#999999" stroke="#263238" stroke-linecap="round" stroke-linejoin="round"/>
<path d="M62.574 31.078H61.862V31.79H62.574V31.078Z" fill="#999999" stroke="#263238" stroke-linecap="round" stroke-linejoin="round"/>
<path d="M63.632 31.078H62.92V31.79H63.632V31.078Z" fill="#999999" stroke="#263238" stroke-linecap="round" stroke-linejoin="round"/>
<path d="M64.692 31.078H63.98V31.79H64.692V31.078Z" fill="#999999" stroke="#263238" stroke-linecap="round" stroke-linejoin="round"/>
<path d="M65.75 31.078H65.038V31.79H65.75V31.078Z" fill="#999999" stroke="#263238" stroke-linecap="round" stroke-linejoin="round"/>
<path d="M66.808 31.078H66.096V31.79H66.808V31.078Z" fill="#999999" stroke="#263238" stroke-linecap="round" stroke-linejoin="round"/>
<path d="M67.866 31.078H67.154V31.79H67.866V31.078Z" fill="#999999" stroke="#263238" stroke-linecap="round" stroke-linejoin="round"/>
<path opacity="0.2" d="M68.926 31.078H68.214V31.79H68.926V31.078Z" fill="#263238"/>
<path opacity="0.2" d="M69.984 31.078H69.272V31.79H69.984V31.078Z" fill="#263238"/>
<path opacity="0.2" d="M71.042 31.078H70.33V31.79H71.042V31.078Z" fill="#263238"/>
<path opacity="0.2" d="M72.1 31.078H71.388V31.79H72.1V31.078Z" fill="#263238"/>
<path opacity="0.2" d="M73.16 31.078H72.448V31.79H73.16V31.078Z" fill="#263238"/>
<path opacity="0.2" d="M74.218 31.078H73.506V31.79H74.218V31.078Z" fill="#263238"/>
<path d="M61.516 38.284H60.804V38.996H61.516V38.284Z" fill="#999999" stroke="#263238" stroke-linecap="round" stroke-linejoin="round"/>
<path d="M62.574 38.284H61.862V38.996H62.574V38.284Z" fill="#999999" stroke="#263238" stroke-linecap="round" stroke-linejoin="round"/>
<path d="M63.632 38.284H62.92V38.996H63.632V38.284Z" fill="#999999" stroke="#263238" stroke-linecap="round" stroke-linejoin="round"/>
<path opacity="0.2" d="M64.692 38.284H63.98V38.996H64.692V38.284Z" fill="#263238"/>
<path opacity="0.2" d="M65.75 38.284H65.038V38.996H65.75V38.284Z" fill="#263238"/>
<path opacity="0.2" d="M66.808 38.284H66.096V38.996H66.808V38.284Z" fill="#263238"/>
<path opacity="0.2" d="M67.866 38.284H67.154V38.996H67.866V38.284Z" fill="#263238"/>
<path opacity="0.2" d="M68.926 38.284H68.214V38.996H68.926V38.284Z" fill="#263238"/>
<path opacity="0.2" d="M69.984 38.284H69.272V38.996H69.984V38.284Z" fill="#263238"/>
<path opacity="0.2" d="M71.042 38.284H70.33V38.996H71.042V38.284Z" fill="#263238"/>
<path opacity="0.2" d="M72.1 38.284H71.388V38.996H72.1V38.284Z" fill="#263238"/>
<path opacity="0.2" d="M73.16 38.284H72.448V38.996H73.16V38.284Z" fill="#263238"/>
<path opacity="0.2" d="M74.218 38.284H73.506V38.996H74.218V38.284Z" fill="#263238"/>
<path d="M61.516 35.882H60.804V36.594H61.516V35.882Z" fill="#999999" stroke="#263238" stroke-linecap="round" stroke-linejoin="round"/>
<path d="M62.574 35.882H61.862V36.594H62.574V35.882Z" fill="#999999" stroke="#263238" stroke-linecap="round" stroke-linejoin="round"/>
<path d="M63.632 35.882H62.92V36.594H63.632V35.882Z" fill="#999999" stroke="#263238" stroke-linecap="round" stroke-linejoin="round"/>
<path d="M64.692 35.882H63.98V36.594H64.692V35.882Z" fill="#999999" stroke="#263238" stroke-linecap="round" stroke-linejoin="round"/>
<path d="M65.75 35.882H65.038V36.594H65.75V35.882Z" fill="#999999" stroke="#263238" stroke-linecap="round" stroke-linejoin="round"/>
<path d="M66.808 35.882H66.096V36.594H66.808V35.882Z" fill="#999999" stroke="#263238" stroke-linecap="round" stroke-linejoin="round"/>
<path d="M67.866 35.882H67.154V36.594H67.866V35.882Z" fill="#999999" stroke="#263238" stroke-linecap="round" stroke-linejoin="round"/>
<path d="M68.926 35.882H68.214V36.594H68.926V35.882Z" fill="#999999" stroke="#263238" stroke-linecap="round" stroke-linejoin="round"/>
<path d="M69.984 35.882H69.272V36.594H69.984V35.882Z" fill="#407BFF" stroke="#263238" stroke-linecap="round" stroke-linejoin="round"/>
<path d="M71.042 35.882H70.33V36.594H71.042V35.882Z" fill="#407BFF" stroke="#263238" stroke-linecap="round" stroke-linejoin="round"/>
<path d="M72.1 35.882H71.388V36.594H72.1V35.882Z" fill="#407BFF" stroke="#263238" stroke-linecap="round" stroke-linejoin="round"/>
<path d="M73.16 35.882H72.448V36.594H73.16V35.882Z" fill="#407BFF" stroke="#263238" stroke-linecap="round" stroke-linejoin="round"/>
<path opacity="0.2" d="M74.218 35.882H73.506V36.594H74.218V35.882Z" fill="#263238"/>
<path d="M61.516 33.48H60.804V34.192H61.516V33.48Z" fill="#999999" stroke="#263238" stroke-linecap="round" stroke-linejoin="round"/>
<path d="M62.574 33.48H61.862V34.192H62.574V33.48Z" fill="#999999" stroke="#263238" stroke-linecap="round" stroke-linejoin="round"/>
<path d="M63.632 33.48H62.92V34.192H63.632V33.48Z" fill="#999999" stroke="#263238" stroke-linecap="round" stroke-linejoin="round"/>
<path d="M64.692 33.48H63.98V34.192H64.692V33.48Z" fill="#999999" stroke="#263238" stroke-linecap="round" stroke-linejoin="round"/>
<path d="M65.75 33.48H65.038V34.192H65.75V33.48Z" fill="#999999" stroke="#263238" stroke-linecap="round" stroke-linejoin="round"/>
<path opacity="0.2" d="M66.808 33.48H66.096V34.192H66.808V33.48Z" fill="#263238"/>
<path opacity="0.2" d="M67.866 33.48H67.154V34.192H67.866V33.48Z" fill="#263238"/>
<path opacity="0.2" d="M68.926 33.48H68.214V34.192H68.926V33.48Z" fill="#263238"/>
<path opacity="0.2" d="M69.984 33.48H69.272V34.192H69.984V33.48Z" fill="#263238"/>
<path opacity="0.2" d="M71.042 33.48H70.33V34.192H71.042V33.48Z" fill="#263238"/>
<path opacity="0.2" d="M72.1 33.48H71.388V34.192H72.1V33.48Z" fill="#263238"/>
<path opacity="0.2" d="M73.16 33.48H72.448V34.192H73.16V33.48Z" fill="#263238"/>
<path opacity="0.2" d="M74.218 33.48H73.506V34.192H74.218V33.48Z" fill="#263238"/>
<path opacity="0.4" d="M35.288 29.782H25.552C25.525 29.782 25.499 29.7713 25.4799 29.7521C25.4608 29.733 25.45 29.7071 25.45 29.68C25.45 29.6667 25.4527 29.6535 25.4578 29.6413C25.463 29.629 25.4705 29.6179 25.48 29.6086C25.4895 29.5993 25.5008 29.5919 25.5131 29.587C25.5255 29.5821 25.5387 29.5797 25.552 29.58H35.288C35.3013 29.5797 35.3145 29.5821 35.3269 29.587C35.3393 29.5919 35.3505 29.5993 35.36 29.6086C35.3695 29.6179 35.3771 29.629 35.3822 29.6413C35.3874 29.6535 35.39 29.6667 35.39 29.68C35.39 29.7071 35.3793 29.733 35.3601 29.7521C35.341 29.7713 35.3151 29.782 35.288 29.782Z" fill="#263238"/>
<path opacity="0.4" d="M35.936 32.184H25.552C25.525 32.184 25.499 32.1733 25.4799 32.1541C25.4608 32.135 25.45 32.1091 25.45 32.082C25.45 32.0687 25.4527 32.0555 25.4578 32.0433C25.463 32.031 25.4705 32.0199 25.48 32.0106C25.4895 32.0013 25.5008 31.9939 25.5131 31.989C25.5255 31.9841 25.5387 31.9817 25.552 31.982H35.936C35.9493 31.9817 35.9625 31.9841 35.9749 31.989C35.9873 31.9939 35.9985 32.0013 36.008 32.0106C36.0175 32.0199 36.0251 32.031 36.0302 32.0433C36.0354 32.0555 36.038 32.0687 36.038 32.082C36.038 32.1091 36.0273 32.135 36.0081 32.1541C35.989 32.1733 35.9631 32.184 35.936 32.184Z" fill="#263238"/>
<path opacity="0.4" d="M29.458 34.586H25.552C25.525 34.586 25.499 34.5752 25.4799 34.5561C25.4608 34.537 25.45 34.511 25.45 34.484C25.45 34.4707 25.4527 34.4575 25.4578 34.4453C25.463 34.433 25.4705 34.4219 25.48 34.4126C25.4895 34.4033 25.5008 34.3959 25.5131 34.391C25.5255 34.3861 25.5387 34.3837 25.552 34.384H29.458C29.4713 34.3837 29.4845 34.3861 29.4969 34.391C29.5093 34.3959 29.5205 34.4033 29.53 34.4126C29.5395 34.4219 29.5471 34.433 29.5522 34.4453C29.5574 34.4575 29.56 34.4707 29.56 34.484C29.56 34.511 29.5493 34.537 29.5301 34.5561C29.511 34.5752 29.4851 34.586 29.458 34.586Z" fill="#263238"/>
<path opacity="0.4" d="M32.696 36.988H25.552C25.525 36.988 25.499 36.9773 25.4799 36.9581C25.4608 36.939 25.45 36.9131 25.45 36.886C25.45 36.8727 25.4527 36.8595 25.4578 36.8473C25.463 36.835 25.4705 36.8239 25.48 36.8146C25.4895 36.8053 25.5008 36.7979 25.5131 36.793C25.5255 36.7881 25.5387 36.7857 25.552 36.786H32.696C32.7093 36.7857 32.7225 36.7881 32.7349 36.793C32.7473 36.7979 32.7585 36.8053 32.768 36.8146C32.7775 36.8239 32.7851 36.835 32.7902 36.8473C32.7954 36.8595 32.798 36.8727 32.798 36.886C32.798 36.9131 32.7873 36.939 32.7681 36.9581C32.749 36.9773 32.7231 36.988 32.696 36.988Z" fill="#263238"/>
<path opacity="0.4" d="M32.696 39.4H25.552C25.525 39.4 25.499 39.3892 25.4799 39.3701C25.4608 39.351 25.45 39.325 25.45 39.298C25.45 39.2847 25.4527 39.2715 25.4578 39.2593C25.463 39.247 25.4705 39.2359 25.48 39.2266C25.4895 39.2172 25.5008 39.2099 25.5131 39.205C25.5255 39.2001 25.5387 39.1977 25.552 39.198H32.696C32.7093 39.1977 32.7225 39.2001 32.7349 39.205C32.7473 39.2099 32.7585 39.2172 32.768 39.2266C32.7775 39.2359 32.7851 39.247 32.7902 39.2593C32.7954 39.2715 32.798 39.2847 32.798 39.298C32.798 39.325 32.7873 39.351 32.7681 39.3701C32.749 39.3892 32.7231 39.4 32.696 39.4Z" fill="#263238"/>
<path opacity="0.4" d="M55.516 29.782H47.716C47.7027 29.782 47.6895 29.7794 47.6773 29.7742C47.665 29.7691 47.6539 29.7615 47.6446 29.752C47.6352 29.7425 47.6279 29.7313 47.623 29.7189C47.6181 29.7065 47.6157 29.6933 47.616 29.68C47.616 29.6535 47.6265 29.6281 47.6453 29.6093C47.664 29.5905 47.6895 29.58 47.716 29.58H55.516C55.5293 29.5797 55.5425 29.5821 55.5549 29.587C55.5672 29.5919 55.5785 29.5993 55.588 29.6086C55.5975 29.6179 55.605 29.629 55.6102 29.6413C55.6153 29.6535 55.618 29.6667 55.618 29.68C55.618 29.7071 55.6072 29.733 55.5881 29.7521C55.569 29.7713 55.543 29.782 55.516 29.782Z" fill="#263238"/>
<path opacity="0.4" d="M52.278 32.184H47.722C47.7087 32.184 47.6955 32.1813 47.6832 32.1762C47.671 32.171 47.6599 32.1635 47.6505 32.154C47.6412 32.1445 47.6339 32.1332 47.629 32.1209C47.6241 32.1085 47.6217 32.0953 47.622 32.082C47.622 32.0555 47.6325 32.03 47.6513 32.0113C47.67 31.9925 47.6954 31.982 47.722 31.982H52.278C52.3045 31.982 52.3299 31.9925 52.3487 32.0113C52.3674 32.03 52.378 32.0555 52.378 32.082C52.3782 32.0953 52.3758 32.1085 52.3709 32.1209C52.366 32.1332 52.3587 32.1445 52.3494 32.154C52.3401 32.1635 52.329 32.171 52.3167 32.1762C52.3044 32.1813 52.2913 32.184 52.278 32.184Z" fill="#263238"/>
<path opacity="0.4" d="M52.278 34.586H47.722C47.7087 34.586 47.6955 34.5834 47.6832 34.5782C47.671 34.5731 47.6599 34.5655 47.6505 34.556C47.6412 34.5465 47.6339 34.5352 47.629 34.5229C47.6241 34.5105 47.6217 34.4973 47.622 34.484C47.622 34.4575 47.6325 34.432 47.6513 34.4133C47.67 34.3945 47.6954 34.384 47.722 34.384H52.278C52.3045 34.384 52.3299 34.3945 52.3487 34.4133C52.3674 34.432 52.378 34.4575 52.378 34.484C52.3782 34.4973 52.3758 34.5105 52.3709 34.5229C52.366 34.5352 52.3587 34.5465 52.3494 34.556C52.3401 34.5655 52.329 34.5731 52.3167 34.5782C52.3044 34.5834 52.2913 34.586 52.278 34.586Z" fill="#263238"/>
<path opacity="0.4" d="M57.136 36.988H47.722C47.7087 36.988 47.6955 36.9854 47.6832 36.9802C47.671 36.9751 47.6599 36.9675 47.6505 36.958C47.6412 36.9485 47.6339 36.9373 47.629 36.9249C47.6241 36.9125 47.6217 36.8993 47.622 36.886C47.622 36.8595 47.6325 36.8341 47.6513 36.8153C47.67 36.7965 47.6954 36.786 47.722 36.786H57.136C57.1625 36.786 57.1879 36.7965 57.2067 36.8153C57.2254 36.8341 57.236 36.8595 57.236 36.886C57.2362 36.8993 57.2338 36.9125 57.2289 36.9249C57.224 36.9373 57.2167 36.9485 57.2074 36.958C57.1981 36.9675 57.187 36.9751 57.1747 36.9802C57.1624 36.9854 57.1493 36.988 57.136 36.988Z" fill="#263238"/>
<path opacity="0.4" d="M57.136 39.4H47.722C47.7087 39.4 47.6955 39.3973 47.6832 39.3922C47.671 39.387 47.6599 39.3795 47.6505 39.37C47.6412 39.3605 47.6339 39.3492 47.629 39.3369C47.6241 39.3245 47.6217 39.3113 47.622 39.298C47.622 39.2715 47.6325 39.246 47.6513 39.2273C47.67 39.2085 47.6954 39.198 47.722 39.198H57.136C57.1625 39.198 57.1879 39.2085 57.2067 39.2273C57.2254 39.246 57.236 39.2715 57.236 39.298C57.2362 39.3113 57.2338 39.3245 57.2289 39.3369C57.224 39.3492 57.2167 39.3605 57.2074 39.37C57.1981 39.3795 57.187 39.387 57.1747 39.3922C57.1624 39.3973 57.1493 39.4 57.136 39.4Z" fill="#263238"/>
<path d="M47.817 53.6198C50.2918 51.8244 50.8425 48.3627 49.0471 45.8879C47.2517 43.4132 43.7901 42.8624 41.3153 44.6578C38.8405 46.4532 38.2897 49.9149 40.0851 52.3897C41.8805 54.8644 45.3422 55.4152 47.817 53.6198Z" fill="#999999" stroke="#263238" stroke-linecap="round" stroke-linejoin="round"/>
<path d="M45.582 46C45.5238 45.9808 45.4755 45.9393 45.4477 45.8845C45.42 45.8298 45.4151 45.7663 45.434 45.708L45.764 44.682C45.7832 44.6237 45.8247 44.5754 45.8795 44.5477C45.9342 44.52 45.9977 44.515 46.056 44.534C46.0849 44.5431 46.1118 44.5578 46.1349 44.5774C46.1581 44.5969 46.1771 44.6209 46.1909 44.6479C46.2047 44.6749 46.2129 44.7044 46.2152 44.7346C46.2174 44.7649 46.2136 44.7952 46.204 44.824L45.874 45.85C45.8548 45.9083 45.8134 45.9567 45.7587 45.9848C45.7041 46.0128 45.6406 46.0183 45.582 46Z" fill="#407BFF" stroke="#263238" stroke-linecap="round" stroke-linejoin="round"/>
<g opacity="0.4">
<path d="M44.566 55.6C48.1326 55.6 51.024 52.7086 51.024 49.142C51.024 45.5753 48.1326 42.684 44.566 42.684C40.9993 42.684 38.108 45.5753 38.108 49.142C38.108 52.7086 40.9993 55.6 44.566 55.6Z" stroke="#263238" stroke-width="3" stroke-miterlimit="10" stroke-dasharray="0.98 14.63"/>
</g>
<path d="M31.858 57.2H26.636C26.5829 57.2 26.5321 57.1789 26.4946 57.1414C26.457 57.1039 26.436 57.053 26.436 57C26.436 56.9469 26.457 56.8961 26.4946 56.8586C26.5321 56.8211 26.5829 56.8 26.636 56.8H31.858C31.911 56.8 31.9619 56.8211 31.9994 56.8586C32.0369 56.8961 32.058 56.9469 32.058 57C32.058 57.0263 32.0528 57.0523 32.0428 57.0765C32.0327 57.1008 32.018 57.1228 31.9994 57.1414C31.9808 57.16 31.9588 57.1747 31.9345 57.1848C31.9102 57.1948 31.8842 57.2 31.858 57.2Z" fill="#263238"/>
<path opacity="0.4" d="M31.526 57.748H26.97C26.9567 57.748 26.9435 57.7454 26.9313 57.7402C26.919 57.7351 26.9079 57.7275 26.8986 57.718C26.8893 57.7085 26.8819 57.6973 26.877 57.6849C26.8721 57.6725 26.8697 57.6593 26.87 57.646C26.8697 57.6327 26.8721 57.6195 26.877 57.6071C26.8819 57.5948 26.8893 57.5835 26.8986 57.574C26.9079 57.5645 26.919 57.557 26.9313 57.5518C26.9435 57.5467 26.9567 57.544 26.97 57.544H31.526C31.5393 57.544 31.5525 57.5467 31.5648 57.5518C31.577 57.557 31.5881 57.5645 31.5974 57.574C31.6068 57.5835 31.6141 57.5948 31.619 57.6071C31.6239 57.6195 31.6263 57.6327 31.626 57.646C31.6263 57.6593 31.6239 57.6725 31.619 57.6849C31.6141 57.6973 31.6068 57.7085 31.5974 57.718C31.5881 57.7275 31.577 57.7351 31.5648 57.7402C31.5525 57.7454 31.5393 57.748 31.526 57.748Z" fill="#263238"/>
<path d="M47.178 57.2H41.954C41.9009 57.2 41.8501 57.1789 41.8125 57.1414C41.775 57.1039 41.754 57.053 41.754 57C41.754 56.9469 41.775 56.8961 41.8125 56.8586C41.8501 56.8211 41.9009 56.8 41.954 56.8H47.178C47.231 56.8 47.2819 56.8211 47.3194 56.8586C47.3569 56.8961 47.378 56.9469 47.378 57C47.378 57.053 47.3569 57.1039 47.3194 57.1414C47.2819 57.1789 47.231 57.2 47.178 57.2Z" fill="#263238"/>
<path opacity="0.4" d="M46.844 57.748H42.288C42.2747 57.748 42.2615 57.7454 42.2493 57.7402C42.237 57.7351 42.2259 57.7275 42.2166 57.718C42.2073 57.7085 42.1999 57.6973 42.195 57.6849C42.1901 57.6725 42.1877 57.6593 42.188 57.646C42.1877 57.6327 42.1901 57.6195 42.195 57.6071C42.1999 57.5948 42.2073 57.5835 42.2166 57.574C42.2259 57.5645 42.237 57.557 42.2493 57.5518C42.2615 57.5467 42.2747 57.544 42.288 57.544H46.844C46.8573 57.544 46.8705 57.5467 46.8827 57.5518C46.895 57.557 46.9061 57.5645 46.9154 57.574C46.9247 57.5835 46.9321 57.5948 46.937 57.6071C46.9419 57.6195 46.9443 57.6327 46.944 57.646C46.9443 57.6593 46.9419 57.6725 46.937 57.6849C46.9321 57.6973 46.9247 57.7085 46.9154 57.718C46.9061 57.7275 46.895 57.7351 46.8827 57.7402C46.8705 57.7454 46.8573 57.748 46.844 57.748Z" fill="#263238"/>
<path opacity="0.5" d="M76.232 42.062H56.208C55.8501 42.062 55.56 42.3521 55.56 42.71V57.29C55.56 57.6479 55.8501 57.938 56.208 57.938H76.232C76.5899 57.938 76.88 57.6479 76.88 57.29V42.71C76.88 42.3521 76.5899 42.062 76.232 42.062Z" fill="#407BFF"/>
<path d="M74.734 44.546H66.436C66.2305 44.546 66.064 44.7125 66.064 44.918V45.472C66.064 45.6774 66.2305 45.844 66.436 45.844H74.734C74.9394 45.844 75.106 45.6774 75.106 45.472V44.918C75.106 44.7125 74.9394 44.546 74.734 44.546Z" fill="#999999" stroke="#263238" stroke-linecap="round" stroke-linejoin="round"/>
<path d="M74.176 44.946L74.486 45.444L74.796 44.946H74.176Z" fill="#407BFF"/>
<path d="M70.046 45.4H66.768C66.7149 45.4 66.6641 45.3789 66.6266 45.3414C66.5891 45.3039 66.568 45.253 66.568 45.2C66.568 45.147 66.5891 45.0961 66.6266 45.0586C66.6641 45.0211 66.7149 45 66.768 45H70.046C70.099 45 70.1499 45.0211 70.1874 45.0586C70.2249 45.0961 70.246 45.147 70.246 45.2C70.246 45.253 70.2249 45.3039 70.1874 45.3414C70.1499 45.3789 70.099 45.4 70.046 45.4Z" fill="#263238"/>
<path d="M74.734 54.154H66.436C66.2305 54.154 66.064 54.3205 66.064 54.526V55.08C66.064 55.2854 66.2305 55.452 66.436 55.452H74.734C74.9394 55.452 75.106 55.2854 75.106 55.08V54.526C75.106 54.3205 74.9394 54.154 74.734 54.154Z" fill="#999999" stroke="#263238" stroke-linecap="round" stroke-linejoin="round"/>
<path d="M74.176 54.554L74.486 55.052L74.796 54.554H74.176Z" fill="#407BFF"/>
<path d="M70.046 55H66.768C66.7149 55 66.6641 54.9789 66.6266 54.9414C66.5891 54.9039 66.568 54.853 66.568 54.8C66.568 54.747 66.5891 54.6961 66.6266 54.6586C66.6641 54.6211 66.7149 54.6 66.768 54.6H70.046C70.099 54.6 70.1499 54.6211 70.1874 54.6586C70.2249 54.6961 70.246 54.747 70.246 54.8C70.246 54.853 70.2249 54.9039 70.1874 54.9414C70.1499 54.9789 70.099 55 70.046 55Z" fill="#263238"/>
<path d="M74.734 46.948H66.436C66.2305 46.948 66.064 47.1145 66.064 47.32V47.874C66.064 48.0794 66.2305 48.246 66.436 48.246H74.734C74.9394 48.246 75.106 48.0794 75.106 47.874V47.32C75.106 47.1145 74.9394 46.948 74.734 46.948Z" fill="#999999" stroke="#263238" stroke-linecap="round" stroke-linejoin="round"/>
<path d="M74.176 47.348L74.486 47.846L74.796 47.348H74.176Z" fill="#407BFF"/>
<path d="M71.018 47.8H66.768C66.7149 47.8 66.6641 47.7789 66.6266 47.7414C66.5891 47.7039 66.568 47.653 66.568 47.6C66.568 47.547 66.5891 47.4961 66.6266 47.4586C66.6641 47.4211 66.7149 47.4 66.768 47.4H71.018C71.071 47.4 71.1219 47.4211 71.1594 47.4586C71.1969 47.4961 71.218 47.547 71.218 47.6C71.218 47.653 71.1969 47.7039 71.1594 47.7414C71.1219 47.7789 71.071 47.8 71.018 47.8Z" fill="#263238"/>
<path d="M74.734 49.35H66.436C66.2305 49.35 66.064 49.5166 66.064 49.722V50.276C66.064 50.4815 66.2305 50.648 66.436 50.648H74.734C74.9394 50.648 75.106 50.4815 75.106 50.276V49.722C75.106 49.5166 74.9394 49.35 74.734 49.35Z" fill="#999999" stroke="#263238" stroke-linecap="round" stroke-linejoin="round"/>
<path d="M74.176 49.75L74.486 50.25L74.796 49.75H74.176Z" fill="#407BFF"/>
<path d="M70.046 50.2H66.768C66.7149 50.2 66.6641 50.1789 66.6266 50.1414C66.5891 50.1039 66.568 50.053 66.568 50C66.568 49.9469 66.5891 49.8961 66.6266 49.8586C66.6641 49.8211 66.7149 49.8 66.768 49.8H70.046C70.099 49.8 70.1499 49.8211 70.1874 49.8586C70.2249 49.8961 70.246 49.9469 70.246 50C70.246 50.053 70.2249 50.1039 70.1874 50.1414C70.1499 50.1789 70.099 50.2 70.046 50.2Z" fill="#263238"/>
<path d="M74.734 51.752H66.436C66.2305 51.752 66.064 51.9186 66.064 52.124V52.678C66.064 52.8835 66.2305 53.05 66.436 53.05H74.734C74.9394 53.05 75.106 52.8835 75.106 52.678V52.124C75.106 51.9186 74.9394 51.752 74.734 51.752Z" fill="#999999" stroke="#263238" stroke-linecap="round" stroke-linejoin="round"/>
<path d="M74.176 52.152L74.486 52.65L74.796 52.152H74.176Z" fill="#407BFF"/>
<path d="M71.018 52.6H66.768C66.7149 52.6 66.6641 52.5789 66.6266 52.5414C66.5891 52.5039 66.568 52.4531 66.568 52.4C66.568 52.347 66.5891 52.2961 66.6266 52.2586C66.6641 52.2211 66.7149 52.2 66.768 52.2H71.018C71.071 52.2 71.1219 52.2211 71.1594 52.2586C71.1969 52.2961 71.218 52.347 71.218 52.4C71.218 52.4531 71.1969 52.5039 71.1594 52.5414C71.1219 52.5789 71.071 52.6 71.018 52.6Z" fill="#263238"/>
<path d="M64.054 45.4H57.536C57.483 45.4 57.4321 45.3789 57.3946 45.3414C57.3571 45.3039 57.336 45.253 57.336 45.2C57.336 45.147 57.3571 45.0961 57.3946 45.0586C57.4321 45.0211 57.483 45 57.536 45H64.054C64.107 45 64.1579 45.0211 64.1954 45.0586C64.2329 45.0961 64.254 45.147 64.254 45.2C64.254 45.253 64.2329 45.3039 64.1954 45.3414C64.1579 45.3789 64.107 45.4 64.054 45.4Z" fill="#263238"/>
<path d="M62.11 47.8H57.536C57.483 47.8 57.4321 47.7789 57.3946 47.7414C57.3571 47.7039 57.336 47.653 57.336 47.6C57.336 47.547 57.3571 47.4961 57.3946 47.4586C57.4321 47.4211 57.483 47.4 57.536 47.4H62.11C62.163 47.4 62.2139 47.4211 62.2514 47.4586C62.2889 47.4961 62.31 47.547 62.31 47.6C62.31 47.653 62.2889 47.7039 62.2514 47.7414C62.2139 47.7789 62.163 47.8 62.11 47.8Z" fill="#263238"/>
<path d="M62.758 50.2H57.536C57.483 50.2 57.4321 50.1789 57.3946 50.1414C57.3571 50.1039 57.336 50.053 57.336 50C57.336 49.9469 57.3571 49.8961 57.3946 49.8586C57.4321 49.8211 57.483 49.8 57.536 49.8H62.758C62.811 49.8 62.8619 49.8211 62.8994 49.8586C62.9369 49.8961 62.958 49.9469 62.958 50C62.958 50.053 62.9369 50.1039 62.8994 50.1414C62.8619 50.1789 62.811 50.2 62.758 50.2Z" fill="#263238"/>
<path d="M61.138 52.6H57.538C57.485 52.6 57.4341 52.5789 57.3966 52.5414C57.3591 52.5039 57.338 52.4531 57.338 52.4C57.338 52.347 57.3591 52.2961 57.3966 52.2586C57.4341 52.2211 57.485 52.2 57.538 52.2H61.138C61.1911 52.2 61.2419 52.2211 61.2794 52.2586C61.3169 52.2961 61.338 52.347 61.338 52.4C61.338 52.4531 61.3169 52.5039 61.2794 52.5414C61.2419 52.5789 61.1911 52.6 61.138 52.6Z" fill="#263238"/>
<path d="M62.11 55H57.536C57.483 55 57.4321 54.9789 57.3946 54.9414C57.3571 54.9039 57.336 54.853 57.336 54.8C57.336 54.747 57.3571 54.6961 57.3946 54.6586C57.4321 54.6211 57.483 54.6 57.536 54.6H62.11C62.163 54.6 62.2139 54.6211 62.2514 54.6586C62.2889 54.6961 62.31 54.747 62.31 54.8C62.31 54.853 62.2889 54.9039 62.2514 54.9414C62.2139 54.9789 62.163 55 62.11 55Z" fill="#263238"/>
<path d="M34.7319 49.9167C35.1584 46.8891 33.0499 44.089 30.0224 43.6624C26.9949 43.2359 24.1947 45.3444 23.7682 48.3719C23.3416 51.3994 25.4501 54.1996 28.4776 54.6261C31.5052 55.0527 34.3053 52.9442 34.7319 49.9167Z" fill="#999999" stroke="#263238" stroke-linecap="round" stroke-linejoin="round"/>
<path d="M32.556 49.014C32.5547 48.9836 32.5594 48.9533 32.5698 48.9247C32.5803 48.8962 32.5963 48.87 32.6169 48.8477C32.6376 48.8254 32.6625 48.8074 32.6901 48.7947C32.7177 48.7821 32.7476 48.775 32.778 48.774L33.854 48.732C33.8844 48.7307 33.9147 48.7354 33.9433 48.7458C33.9718 48.7563 33.998 48.7723 34.0203 48.7929C34.0426 48.8136 34.0606 48.8384 34.0733 48.8661C34.0859 48.8937 34.093 48.9236 34.094 48.954C34.0953 48.9844 34.0907 49.0147 34.0802 49.0433C34.0697 49.0718 34.0537 49.098 34.0331 49.1203C34.0124 49.1426 33.9876 49.1606 33.9599 49.1733C33.9323 49.1859 33.9024 49.193 33.872 49.194L32.796 49.236C32.7656 49.2373 32.7353 49.2326 32.7068 49.2222C32.6782 49.2117 32.652 49.1957 32.6297 49.1751C32.6074 49.1544 32.5894 49.1296 32.5767 49.1019C32.5641 49.0743 32.557 49.0444 32.556 49.014Z" fill="#407BFF" stroke="#263238" stroke-linecap="round" stroke-linejoin="round"/>
<g opacity="0.4">
<path d="M29.248 55.6C32.8146 55.6 35.706 52.7086 35.706 49.142C35.706 45.5753 32.8146 42.684 29.248 42.684C25.6813 42.684 22.79 45.5753 22.79 49.142C22.79 52.7086 25.6813 55.6 29.248 55.6Z" stroke="#263238" stroke-width="3" stroke-miterlimit="10" stroke-dasharray="0.98 14.63"/>
</g>
<path d="M50.474 60.142L49.834 59.894L49.196 60.142" stroke="#263238" stroke-linecap="round" stroke-linejoin="round"/>
<path d="M50.474 60.628L49.834 60.38L49.196 60.628" stroke="#263238" stroke-linecap="round" stroke-linejoin="round"/>
<path d="M76.28 22.406H23.39C23.0586 22.406 22.79 22.6746 22.79 23.006V25.306C22.79 25.6374 23.0586 25.906 23.39 25.906H76.28C76.6113 25.906 76.88 25.6374 76.88 25.306V23.006C76.88 22.6746 76.6113 22.406 76.28 22.406Z" fill="#407BFF" stroke="#263238" stroke-linecap="round" stroke-linejoin="round"/>
<path d="M46.968 24.354V23.954L46.67 23.928C46.6525 23.8659 46.6276 23.8062 46.596 23.75L46.796 23.522L46.516 23.242L46.288 23.442C46.232 23.41 46.1722 23.3852 46.11 23.368L46.084 23.072H45.684L45.66 23.368C45.5977 23.3848 45.5379 23.4097 45.482 23.442L45.254 23.242L44.974 23.522L45.174 23.75C45.1439 23.8067 45.1198 23.8663 45.102 23.928L44.804 23.954V24.354L45.102 24.38C45.1198 24.4417 45.1439 24.5013 45.174 24.558L44.974 24.784L45.254 25.066L45.482 24.866C45.538 24.8976 45.5978 24.9218 45.66 24.938L45.684 25.236H46.084L46.11 24.938C46.1721 24.9215 46.2319 24.8973 46.288 24.866L46.516 25.066L46.796 24.784L46.596 24.558C46.6276 24.5018 46.6525 24.442 46.67 24.38L46.968 24.354ZM45.878 24.616C45.7866 24.616 45.6972 24.5888 45.6211 24.538C45.5451 24.4871 45.4859 24.4149 45.451 24.3303C45.4161 24.2458 45.4071 24.1528 45.425 24.0631C45.443 23.9734 45.4872 23.8911 45.552 23.8266C45.6169 23.7621 45.6994 23.7182 45.7891 23.7006C45.8789 23.683 45.9718 23.6925 46.0562 23.7277C46.1406 23.763 46.2126 23.8225 46.2631 23.8988C46.3137 23.975 46.3404 24.0645 46.34 24.156C46.34 24.2166 46.3281 24.2765 46.3048 24.3325C46.2816 24.3884 46.2475 24.4392 46.2046 24.482C46.1617 24.5247 46.1107 24.5586 46.0547 24.5816C45.9986 24.6045 45.9386 24.6163 45.878 24.616Z" fill="#263238"/>
<path d="M47.924 23.2C48.208 23.2 48.352 23.37 48.352 23.666V23.726H48.078V23.648C48.078 23.516 48.024 23.466 47.932 23.466C47.84 23.466 47.786 23.516 47.786 23.648C47.786 23.78 47.844 23.884 48.034 24.048C48.278 24.262 48.356 24.416 48.356 24.628C48.3665 24.6889 48.3628 24.7515 48.3451 24.8107C48.3274 24.87 48.2962 24.9243 48.2539 24.9695C48.2117 25.0147 48.1595 25.0494 48.1016 25.071C48.0436 25.0926 47.9815 25.1005 47.92 25.094C47.634 25.094 47.486 24.924 47.486 24.628V24.514H47.762V24.646C47.762 24.78 47.82 24.826 47.912 24.826C48.004 24.826 48.064 24.78 48.064 24.646C48.064 24.512 48.006 24.41 47.814 24.246C47.57 24.03 47.494 23.878 47.494 23.664C47.494 23.376 47.64 23.2 47.924 23.2Z" fill="#263238"/>
<path d="M48.814 24.01H49.214V24.274H48.814V24.818H49.318V25.084H48.518V23.228H49.318V23.492H48.814V24.01Z" fill="#263238"/>
<path d="M49.412 23.228H50.314V23.492H50.01V25.092H49.718V23.492H49.412V23.228Z" fill="#263238"/>
<path d="M50.356 23.228H51.258V23.492H50.952V25.092H50.662V23.492H50.356V23.228Z" fill="#263238"/>
<path d="M51.384 23.228H51.676V25.084H51.384V23.228Z" fill="#263238"/>
<path d="M52.154 23.74V25.084H51.892V23.228H52.258L52.552 24.338V23.228H52.812V25.084H52.514L52.154 23.74Z" fill="#263238"/>
<path d="M53.458 24.05H53.858V24.638C53.8685 24.6989 53.8648 24.7615 53.8471 24.8207C53.8294 24.88 53.7982 24.9343 53.7559 24.9795C53.7137 25.0246 53.6615 25.0594 53.6036 25.081C53.5456 25.1026 53.4835 25.1105 53.422 25.104C53.136 25.104 52.988 24.934 52.988 24.638V23.672C52.988 23.376 53.136 23.206 53.422 23.206C53.4835 23.1995 53.5456 23.2074 53.6036 23.229C53.6615 23.2506 53.7137 23.2854 53.7559 23.3305C53.7982 23.3757 53.8294 23.43 53.8471 23.4893C53.8648 23.5485 53.8685 23.6111 53.858 23.672V23.854H53.6V23.654C53.6 23.522 53.542 23.472 53.448 23.472C53.354 23.472 53.298 23.522 53.298 23.654V24.654C53.298 24.788 53.356 24.834 53.448 24.834C53.54 24.834 53.6 24.788 53.6 24.654V24.312H53.468L53.458 24.05Z" fill="#263238"/>
<path d="M54.446 23.2C54.73 23.2 54.876 23.37 54.876 23.666V23.726H54.6V23.648C54.6 23.516 54.546 23.466 54.454 23.466C54.362 23.466 54.308 23.516 54.308 23.648C54.308 23.78 54.366 23.884 54.558 24.048C54.6541 24.1118 54.7334 24.1978 54.7891 24.2988C54.8448 24.3998 54.8753 24.5127 54.878 24.628C54.878 24.924 54.73 25.094 54.444 25.094C54.3825 25.1005 54.3203 25.0926 54.2624 25.071C54.2044 25.0494 54.1523 25.0147 54.11 24.9695C54.0678 24.9243 54.0366 24.87 54.0189 24.8107C54.0012 24.7515 53.9975 24.6889 54.008 24.628V24.514H54.284V24.646C54.284 24.78 54.342 24.826 54.436 24.826C54.53 24.826 54.586 24.78 54.586 24.646C54.586 24.512 54.528 24.41 54.338 24.246C54.094 24.03 54.016 23.878 54.016 23.664C54.016 23.376 54.162 23.2 54.446 23.2Z" fill="#263238"/>
<g opacity="0.4">
<path d="M46.088 20.586L21.07 45.6V22.34C21.07 21.8748 21.2548 21.4287 21.5837 21.0997C21.9127 20.7708 22.3588 20.586 22.824 20.586H46.088Z" fill="white"/>
<path d="M54.358 20.586L21.07 53.874V52.536L53.02 20.586H54.358Z" fill="white"/>
<path d="M67.92 20.586L27.3 61.206H26.882L67.5 20.586H67.92Z" fill="white"/>
</g>
<path opacity="0.3" d="M72.102 29.478C70.702 29.388 70.33 31.792 70.33 34.194C70.33 36.596 71.13 38.148 71.388 38.994C71.646 39.84 71.634 42.65 71.22 43.778C70.806 44.906 69.052 48.456 67.91 50.528C66.768 52.6 68.37 58.898 69.272 60.5C70.174 62.102 74.956 63.61 76.008 65.5C77.06 67.39 76.582 67.934 77.546 69.34C78.51 70.746 83.074 75.672 85.59 84.498L87.772 54.544L79.504 45.648L72.102 29.478Z" fill="black" fill-opacity="0.7"/>
<path d="M85.276 85.814L85.24 85.858L85.408 85.788C85.358 85.8 85.312 85.81 85.276 85.814ZM97.37 70.88C97.216 70.626 97.07 70.38 96.93 70.142C94.074 65.274 93.566 63.186 93.226 61.782C93.0985 61.1434 92.8916 60.5232 92.61 59.936L92.444 59.616C91.9713 58.7824 91.6089 57.891 91.366 56.964C91.194 56.226 91.436 54.428 91.67 52.69C91.838 51.436 91.998 50.254 91.982 49.582V49.344C91.942 47.584 91.858 43.924 91.492 42.898C91.14 41.912 90.786 41.756 90.142 41.476L89.942 41.384C89.7 41.276 89.292 41.05 88.82 40.784C87.76 40.198 86.438 39.464 85.76 39.352C85.1249 39.2608 84.4794 39.2723 83.848 39.386C83.024 38.718 81.622 37.846 81.196 37.818C80.77 37.79 79.704 38.092 79.526 38.142C79.2883 37.945 79.0325 37.7709 78.762 37.622C78.152 37.346 77.124 37.382 76.938 37.392C76.236 36.244 75.538 35.096 75.248 34.592C74.714 33.692 73.248 30.418 72.816 29.44C72.74 29.268 72.696 29.166 72.692 29.16C72.6867 29.148 72.6776 29.1381 72.666 29.132C72.652 29.132 71.372 28.676 70.836 29.864C70.3 31.052 70.944 33.792 71.626 34.788C71.956 35.27 72.836 37.22 73.728 39.236C73.664 39.294 73.482 39.452 73.232 39.662C72.514 40.262 71.232 41.278 70.524 41.508C69.742 41.76 69.812 45.736 69.866 48.932C69.886 50.108 69.904 51.132 69.866 51.732C69.836 52.302 70.314 52.99 71.046 53.732H71.056C71.9696 54.6082 72.9297 55.4348 73.932 56.208C75.77 57.682 77.67 59.208 77.866 60.278C78.0382 61.3503 78.5207 62.3488 79.254 63.15C80.236 64.162 83.754 79.538 84.854 84.372C85.054 85.27 85.18 85.802 85.186 85.818L85.284 85.798C85.986 84.928 97.368 70.932 97.36 70.93C97.366 70.9233 97.3701 70.9152 97.3718 70.9064C97.3736 70.8976 97.3729 70.8885 97.37 70.88ZM73.534 43.694C73.674 43.558 74.618 42.616 74.798 41.68C75.438 43.124 75.834 43.992 75.932 44.08C76.03 44.168 76.012 44.628 75.996 45.068C75.9678 45.4535 75.9678 45.8405 75.996 46.226C75.828 46.366 74.752 47.292 74.518 48.056L73.656 46.982L73.534 43.694Z" fill="white"/>
<path opacity="0.4" d="M76.658 45.112C76.954 43.854 75.458 42.598 73.714 39.238C73.65 39.296 73.468 39.454 73.218 39.664C73.482 40.378 73.674 41.204 73.31 41.5C72.618 42.064 72.348 42.082 72.38 42.7C72.412 43.318 73.214 47.684 72.876 48.7C72.538 49.716 74.876 49.996 75.24 50.198C75.604 50.4 75.224 48.616 76.112 47.866C77 47.116 76.328 46.514 76.658 45.112ZM74.526 48.062L73.664 46.988L73.534 43.694C73.674 43.558 74.618 42.616 74.798 41.68C75.438 43.124 75.834 43.992 75.932 44.08C76.03 44.168 76.012 44.628 75.996 45.068C75.9678 45.4535 75.9678 45.8405 75.996 46.226C75.836 46.372 74.76 47.298 74.526 48.062Z" fill="#407BFF"/>
<path opacity="0.4" d="M84.846 84.388C83.746 79.554 80.228 64.178 79.246 63.166C78.5127 62.3648 78.0302 61.3663 77.858 60.294C77.658 59.222 75.762 57.694 73.924 56.224C72.9217 55.4508 71.9616 54.6242 71.048 53.748C72.848 55.25 77.286 58.348 78.092 58.374C78.928 58.398 78.998 61.756 80.352 62.636C81.648 63.474 86.888 78.258 84.846 84.388Z" fill="#407BFF"/>
<path opacity="0.4" d="M96.93 70.14C94.478 69.474 92.278 64.476 92.154 63.256C92.008 61.824 92.034 60.728 90.332 58.812C88.63 56.896 89.648 55.858 89.648 55.858C89.784 56.5 90.936 57.506 90.936 57.506C90.472 56.064 91.002 50.826 91.22 49.848C91.42 48.988 91.496 43.682 90.42 41.926C89.162 41.14 89.28 42.472 88.294 42.404C87.76 42.366 86.872 41.764 86.046 41.748C85.282 41.738 85.276 42.778 83.124 41.778C82.042 41.274 81.524 42.816 80.278 42.178C78.4 41.2 77.138 37.652 75.908 36.6C75.332 36.102 74.024 33.898 73.77 32.542C73.57 31.492 72.184 32.468 71.526 31.342C70.986 30.412 71.28 29.072 72.804 29.458C73.24 30.436 74.702 33.71 75.236 34.61C75.534 35.114 76.224 36.262 76.926 37.41C77.112 37.4 78.14 37.364 78.75 37.64C79.0205 37.7889 79.2763 37.963 79.514 38.16C79.692 38.11 80.754 37.804 81.184 37.836C81.614 37.868 83.012 38.736 83.836 39.404C84.4674 39.2903 85.113 39.2788 85.748 39.37C86.426 39.482 87.748 40.216 88.808 40.802C89.28 41.066 89.688 41.292 89.93 41.402L90.13 41.494C90.774 41.774 91.13 41.93 91.48 42.916C91.846 43.942 91.93 47.602 91.97 49.362V49.6C91.986 50.272 91.826 51.454 91.658 52.708C91.424 54.446 91.182 56.244 91.354 56.982C91.5969 57.909 91.9593 58.8004 92.432 59.634L92.598 59.954C92.8796 60.5412 93.0866 61.1613 93.214 61.8C93.566 63.184 94.074 65.272 96.93 70.14Z" fill="#407BFF"/>
<path d="M80.188 41.424C79.5953 41.2185 79.0805 40.835 78.714 40.326C78.126 39.49 75.83 35.69 75.194 34.618C74.558 33.546 72.636 29.178 72.636 29.178C72.636 29.178 71.39 28.722 70.868 29.884C70.346 31.046 70.938 33.718 71.654 34.762C72.37 35.806 75.692 43.788 75.966 44.05C76.24 44.312 75.766 46.402 76.306 46.926" stroke="#263238" stroke-linecap="round" stroke-linejoin="round"/>
<path d="M76.056 46.252C76.056 46.252 74.724 47.346 74.548 48.166L73.618 47.006L73.484 43.674C73.484 43.674 74.684 42.544 74.774 41.508" stroke="#263238" stroke-linecap="round" stroke-linejoin="round"/>
<path d="M73.776 39.248C73.776 39.248 71.562 41.222 70.526 41.556C69.49 41.89 70.02 49.532 69.906 51.738C69.792 53.944 77.49 58.012 77.906 60.286C78.0765 61.3492 78.5557 62.3389 79.284 63.132C80.466 64.35 85.224 85.814 85.224 85.814" stroke="#263238" stroke-linecap="round" stroke-linejoin="round"/>
<path d="M76.9 37.442C76.9 37.442 78.076 37.37 78.73 37.664C79.384 37.958 82 40.342 82.636 40.8C83.272 41.258 84.236 41.452 84.414 41.932" stroke="#263238" stroke-linecap="round" stroke-linejoin="round"/>
<path d="M79.504 38.2C79.504 38.2 80.724 37.836 81.18 37.87C81.636 37.904 83.342 38.976 84.1 39.67C84.6796 40.2157 85.3531 40.652 86.088 40.958" stroke="#263238" stroke-linecap="round" stroke-linejoin="round"/>
<path d="M83.824 39.438C84.4563 39.3208 85.1035 39.3079 85.74 39.4C86.716 39.56 89.14 41.078 89.91 41.426C90.68 41.774 91.058 41.846 91.44 42.914C91.822 43.982 91.896 47.996 91.934 49.582C91.972 51.168 91.016 55.686 91.32 56.982C91.624 58.278 92.212 59.272 92.566 59.966C93.608 62.01 92.644 63.114 97.328 70.916" stroke="#263238" stroke-linecap="round" stroke-linejoin="round"/>
<path d="M85.316 42.388C86.192 43.374 85.808 45.014 85.61 45.488C85.412 45.962 85.784 47.996 85.846 49.074" stroke="#263238" stroke-linecap="round" stroke-linejoin="round"/>
<path d="M78.988 42.464C80.758 42.718 81.178 43.994 81.188 44.798" stroke="#263238" stroke-linecap="round" stroke-linejoin="round"/>
<path d="M86.75 41.6C87.282 41.626 88.54 42.62 88.64 44.01" stroke="#263238" stroke-linecap="round" stroke-linejoin="round"/>
<path d="M73.484 43.674C73.484 43.674 73.312 42.888 73.058 42.78" stroke="#263238" stroke-linecap="round" stroke-linejoin="round"/>
<path d="M73.618 47C73.6948 47.4591 73.8037 47.9122 73.944 48.356C74.122 48.836 73.804 49.514 73.804 49.514" stroke="#263238" stroke-linecap="round" stroke-linejoin="round"/>
<path d="M74.548 48.166C74.494 48.926 75.226 49.836 75.414 49.716" stroke="#263238" stroke-linecap="round" stroke-linejoin="round"/>
<path opacity="0.3" d="M32.858 45.636C33.916 46.166 32.896 51.728 31.178 53.2L29.56 59.534L31.178 66.462L35.2 63.94C35.2 63.94 35.6 61.472 37.066 60.628C38.532 59.784 38.536 61.12 38.536 61.12C38.536 61.12 36.968 65.016 37.066 66.462C37.164 67.908 34.448 70.586 33.168 72.518C31.888 74.45 28.7 73.764 25.494 75.846C22.288 77.928 12.894 87.846 12.894 87.846L18.914 63.25L32.858 45.636Z" fill="black" fill-opacity="0.7"/>
<path d="M34.67 61.782C34.3741 62.1505 34.1067 62.5409 33.87 62.95C33.738 63.166 33.614 63.392 33.492 63.624C33.436 63.726 33.382 63.824 33.33 63.934L33.31 63.974C33.25 64.092 33.192 64.21 33.132 64.33C33.1255 64.3464 33.1181 64.3624 33.11 64.378C33.058 64.482 33.01 64.578 32.962 64.69C32.914 64.802 32.85 64.932 32.798 65.052L32.656 65.374C32.518 65.686 32.388 65.998 32.256 66.298C32.124 66.598 32.026 66.866 31.92 67.13C31.908 67.156 31.898 67.182 31.888 67.208C31.86 67.274 31.834 67.34 31.81 67.408C31.684 67.726 31.568 68.018 31.462 68.272C31.455 68.2927 31.4463 68.3128 31.436 68.332C31.436 68.348 31.42 68.366 31.41 68.382C31.1873 68.7328 30.8903 69.0305 30.54 69.254C30.47 69.304 30.398 69.354 30.322 69.402C30.122 69.54 29.884 69.676 29.64 69.814L29.454 69.914C29.304 69.996 29.152 70.076 28.994 70.154C27.194 71.07 24.974 71.894 24.408 72.506C23.658 73.322 23.528 73.988 22.608 74.948C22.3444 75.2234 22.0624 75.4807 21.764 75.718C20.602 76.66 17.902 81.684 16.236 84.918C15.406 86.528 14.836 87.696 14.836 87.696L3.34198 82.296C3.34198 82.296 9.37598 73.92 9.67998 72.496C9.98398 71.072 10.858 69.622 10.858 69.622C10.858 69.622 10.708 66.41 10.926 64.154C11.144 61.898 11.686 58.104 11.942 56.588C12.198 55.072 13.684 52.7 14.396 50.894C15.108 49.088 15.518 47.456 16.148 46.346C16.778 45.236 17.39 43.27 17.76 43.062C18.13 42.854 18.522 43.182 18.924 43.756C19.326 44.33 18.356 47.666 18.356 47.666C19.06 46.506 19.502 44.11 19.756 43.488C20.01 42.866 20.5 39.978 20.5 39.978C20.759 39.8103 21.0433 39.6854 21.342 39.608C21.6048 39.5342 21.884 39.5426 22.142 39.632C22.866 39.916 23.25 41.504 23.056 43.342C22.862 45.18 21.828 49.126 21.828 49.126L24.828 44.57C25.408 43.686 26.408 40.212 26.586 39.988C26.716 39.824 27.528 39.42 28.162 39.814C28.4438 40.0042 28.6498 40.2873 28.744 40.614C29.27 42.148 27.744 45.596 27.544 46.272C27.374 46.824 26.05 49.1 25.574 49.914L25.422 50.176C25.558 49.976 26.512 48.638 27.222 48.424C27.99 48.194 29.512 47.208 30.488 46.614C31.464 46.02 31.508 43.952 32.86 45.614C33.432 46.318 33.1 47.57 32.598 48.708C32.096 49.846 29.694 51.892 29.694 51.892C29.602 52.15 29.376 52.748 29.094 53.476C29.084 53.506 29.072 53.534 29.06 53.564C29.012 53.696 28.96 53.832 28.906 53.964C28.836 54.148 28.762 54.338 28.688 54.528C28.648 54.628 28.61 54.728 28.572 54.83C28.534 54.932 28.48 55.064 28.434 55.18C28.412 55.24 28.388 55.298 28.366 55.356C28.366 55.372 28.354 55.39 28.346 55.404C28.308 55.504 28.268 55.604 28.23 55.7L28.164 55.868C28.084 56.068 28.004 56.268 27.93 56.458C27.9208 56.4768 27.9128 56.4962 27.906 56.516C27.886 56.562 27.866 56.612 27.848 56.658C27.808 56.756 27.77 56.858 27.732 56.94C27.694 57.022 27.66 57.114 27.628 57.196C27.476 57.556 27.358 57.82 27.298 57.922C26.99 58.442 27.994 63.904 28.794 63.222C29.594 62.54 31.686 59.158 31.686 59.158C31.98 57.204 33.086 55.654 34.57 55.01C34.6953 54.9552 34.8235 54.9072 34.954 54.866C36.64 54.336 36.82 55.634 36.82 55.634C34.754 60.47 36.08 60.082 34.67 61.782Z" fill="white"/>
<path opacity="0.4" d="M21.834 49.132L18.974 53.502C19.216 51.902 20.636 48.482 20.636 48.482C20.836 47.172 22.562 41.06 21.984 40.098C21.7994 39.901 21.5822 39.7373 21.342 39.614C21.6049 39.5402 21.884 39.5486 22.142 39.638C22.866 39.922 23.25 41.51 23.056 43.348C22.862 45.186 21.834 49.132 21.834 49.132Z" fill="#407BFF"/>
<path opacity="0.4" d="M18.914 43.762C18.928 43.78 18.964 43.828 19.016 43.904C18.9968 43.8167 18.9727 43.7306 18.944 43.646L18.914 43.762Z" fill="#407BFF"/>
<path opacity="0.4" d="M15.8 53.45C15.8 53.45 17.86 49.944 18.722 46.9C19.042 45.774 19.196 44.71 19.024 43.914C19.0048 43.8267 18.9807 43.7406 18.952 43.656L18.916 43.764C18.778 43.5548 18.6125 43.3651 18.424 43.2C18.584 43.72 18.672 44.676 17.904 45.976C16.702 48.012 16.47 50.844 15.8 53.45Z" fill="#407BFF"/>
<path opacity="0.4" d="M28.92 64.138C30.054 63.22 30.974 60.612 32.172 59.286C32.172 59.286 32.134 56.918 34.572 55.038C33.082 55.682 31.982 57.238 31.688 59.186C31.688 59.186 29.594 62.568 28.796 63.25C27.998 63.932 26.996 58.47 27.3 57.95C27.36 57.848 27.478 57.584 27.63 57.222C27.664 57.142 27.698 57.056 27.736 56.968C27.774 56.88 27.81 56.782 27.85 56.686C27.87 56.64 27.888 56.59 27.908 56.544C27.9148 56.5242 27.9228 56.5048 27.932 56.486C28.006 56.298 28.084 56.1 28.166 55.896C28.188 55.84 28.21 55.784 28.234 55.728C28.27 55.63 28.31 55.528 28.35 55.432C28.35 55.416 28.35 55.4 28.368 55.382C28.39 55.326 28.414 55.268 28.436 55.208C28.482 55.092 28.526 54.976 28.574 54.858L28.69 54.556C28.764 54.366 28.838 54.176 28.908 53.992C28.96 53.854 29.012 53.718 29.064 53.592C29.074 53.562 29.086 53.532 29.096 53.504C28.988 53.714 26.99 57.576 26.232 58.396C25.474 59.216 26.162 65.012 27.722 64.528C27.72 64.524 28.076 64.82 28.92 64.138Z" fill="#407BFF"/>
<path opacity="0.4" d="M10.916 64.16C10.698 66.416 10.848 69.628 10.848 69.628C10.848 69.628 9.97197 71.076 9.66997 72.502C9.58797 72.886 9.08997 73.774 8.40997 74.866C8.58397 74.632 10.446 72.126 10.698 71.142C10.962 70.108 11.334 69.906 12.256 68.802C13.178 67.698 14.014 68.08 14.014 68.08C14.014 68.08 13.478 71.322 14.842 69.48C16.206 67.638 17.028 65.264 17.352 56.35C17.352 56.35 16.752 57.316 16.152 60.5C15.552 63.684 14.534 64.422 14.534 64.422C13.9559 62.1592 13.6425 59.837 13.6 57.502C13.6 57.502 12.85 61.208 12.62 62.928C12.39 64.648 12.336 60.784 12.22 58.372C12.108 56.11 12.302 55.316 12.972 53.912C12.49 54.898 12.07 55.848 11.942 56.594C11.676 58.11 11.134 61.904 10.916 64.16Z" fill="#407BFF"/>
<path opacity="0.4" d="M22.6 74.948C22.3364 75.2234 22.0544 75.4807 21.756 75.718C20.594 76.66 17.894 81.684 16.228 84.918C16.562 83.5 17.162 81.504 18.17 79.73C19.974 76.556 21.754 75.72 22.6 74.948Z" fill="#407BFF"/>
<path opacity="0.4" d="M27.546 46.284C27.376 46.836 26.052 49.112 25.576 49.926C24.976 50.622 23.334 54.034 22.932 54.526C22.53 55.018 21.76 55.06 22.102 54.304C22.66 53.07 24.352 48.844 25.226 48.024C26.1 47.204 27.444 43.736 28.124 41.786C28.466 40.8 28.362 40.186 28.172 39.8C28.4538 39.9902 28.6598 40.2733 28.754 40.6C29.274 42.16 27.756 45.6 27.546 46.284Z" fill="#407BFF"/>
<path opacity="0.4" d="M30.486 46.632C29.514 47.232 27.998 48.206 27.228 48.432C27.332 48.412 28.702 48.158 29.196 48.998C29.708 49.876 29.692 51.908 29.692 51.908C29.692 51.908 32.092 49.862 32.596 48.724C33.1 47.586 33.43 46.334 32.858 45.628C31.506 43.97 31.464 46.04 30.486 46.632Z" fill="#407BFF"/>
<path d="M14.826 87.7019C14.826 87.7019 20.026 77.1279 21.758 75.7179C23.49 74.3079 23.468 73.5179 24.404 72.5059C25.34 71.4939 30.788 69.9059 31.46 68.2699C32.132 66.6339 33.26 63.4859 34.672 61.7839C36.084 60.0819 34.754 60.4699 36.822 55.6619C36.822 55.6619 36.638 54.3639 34.954 54.8939C33.27 55.4239 32 57.0679 31.686 59.1879C31.686 59.1879 29.592 62.5679 28.792 63.2499C27.992 63.9319 26.992 58.4699 27.298 57.9499C27.604 57.4299 29.38 52.7699 29.698 51.9159C29.698 51.9159 32.098 49.8679 32.6 48.7319C33.102 47.5959 33.436 46.3319 32.864 45.6359C31.512 43.9699 31.464 46.0359 30.492 46.6359C29.52 47.2359 27.996 48.2159 27.226 48.4459C26.456 48.6759 25.4 50.2199 25.4 50.2199C25.4 50.2199 27.336 46.9599 27.546 46.2839C27.756 45.6079 29.272 42.1599 28.746 40.6259C28.22 39.0919 26.768 39.7659 26.59 39.9899C26.412 40.2139 25.412 43.6859 24.83 44.5699L21.83 49.1319C21.83 49.1319 22.864 45.1899 23.058 43.3499C23.252 41.5099 22.858 39.9219 22.144 39.6359C21.43 39.3499 20.498 39.9839 20.498 39.9839C20.498 39.9839 20.016 42.8699 19.752 43.4919C19.488 44.1139 19.046 46.5119 18.352 47.6719C18.352 47.6719 19.322 44.3339 18.92 43.7599C18.518 43.1859 18.12 42.8599 17.758 43.0679C17.396 43.2759 16.772 45.2399 16.144 46.3519C15.516 47.4639 15.102 49.0939 14.392 50.8999C13.682 52.7059 12.2 55.0759 11.934 56.5999C11.668 58.1239 11.134 61.9119 10.916 64.1679C10.698 66.4239 10.848 69.6359 10.848 69.6359C10.848 69.6359 9.97197 71.0839 9.66997 72.5099C9.36797 73.9359 3.33197 82.3099 3.33197 82.3099" stroke="#263238" stroke-linecap="round" stroke-linejoin="round"/>
<path d="M21.8339 49.132C21.2539 49.86 19.4199 53.106 18.9739 53.502C18.743 53.7267 18.4532 53.8813 18.1379 53.948" stroke="#263238" stroke-linecap="round" stroke-linejoin="round"/>
<path d="M18.346 47.672C18.346 47.672 18.222 48.4 17.2 50.578C16.178 52.756 15.724 53.666 15.368 54.114" stroke="#263238" stroke-linecap="round" stroke-linejoin="round"/>
<path d="M25.4 50.22C24.544 51.476 23.664 53.62 23.212 54.206C22.76 54.792 22.482 54.87 22.482 54.87" stroke="#263238" stroke-linecap="round" stroke-linejoin="round"/>
<path d="M23.716 53.338C23.373 53.4739 23.0702 53.6948 22.836 53.98" stroke="#263238" stroke-linecap="round" stroke-linejoin="round"/>
<path d="M28.8 63.25C28.8 63.25 28.032 65.018 26.92 64.554" stroke="#263238" stroke-linecap="round" stroke-linejoin="round"/>
<path d="M27.298 57.95C27.298 57.95 26.392 60.056 26.626 61.12" stroke="#263238" stroke-linecap="round" stroke-linejoin="round"/>
<path d="M18.078 55.416C18.078 55.416 17.172 55.674 17.304 57.216C17.436 58.758 16.782 64.616 16.782 64.616" stroke="#263238" stroke-linecap="round" stroke-linejoin="round"/>
<path d="M14.296 55.948C13.624 57.116 13.586 57.148 13.684 58.832C13.782 60.516 13.586 64.54 13.586 64.54" stroke="#263238" stroke-linecap="round" stroke-linejoin="round"/>
<path d="M10.848 69.628C10.848 69.628 11.638 68.744 11.448 67.788" stroke="#263238" stroke-linecap="round" stroke-linejoin="round"/>
<path d="M21.758 75.718C21.758 75.718 19.978 77.162 18.862 79.022" stroke="#263238" stroke-linecap="round" stroke-linejoin="round"/>
</svg>
